%TF.GenerationSoftware,KiCad,Pcbnew,9.0.3*%
%TF.CreationDate,2026-03-30T15:50:24+02:00*%
%TF.ProjectId,new version,6e657720-7665-4727-9369-6f6e2e6b6963,rev?*%
%TF.SameCoordinates,Original*%
%TF.FileFunction,Soldermask,Top*%
%TF.FilePolarity,Negative*%
%FSLAX46Y46*%
G04 Gerber Fmt 4.6, Leading zero omitted, Abs format (unit mm)*
G04 Created by KiCad (PCBNEW 9.0.3) date 2026-03-30 15:50:24*
%MOMM*%
%LPD*%
G01*
G04 APERTURE LIST*
G04 Aperture macros list*
%AMRoundRect*
0 Rectangle with rounded corners*
0 $1 Rounding radius*
0 $2 $3 $4 $5 $6 $7 $8 $9 X,Y pos of 4 corners*
0 Add a 4 corners polygon primitive as box body*
4,1,4,$2,$3,$4,$5,$6,$7,$8,$9,$2,$3,0*
0 Add four circle primitives for the rounded corners*
1,1,$1+$1,$2,$3*
1,1,$1+$1,$4,$5*
1,1,$1+$1,$6,$7*
1,1,$1+$1,$8,$9*
0 Add four rect primitives between the rounded corners*
20,1,$1+$1,$2,$3,$4,$5,0*
20,1,$1+$1,$4,$5,$6,$7,0*
20,1,$1+$1,$6,$7,$8,$9,0*
20,1,$1+$1,$8,$9,$2,$3,0*%
%AMFreePoly0*
4,1,6,1.000000,0.000000,0.500000,-0.750000,-0.500000,-0.750000,-0.500000,0.750000,0.500000,0.750000,1.000000,0.000000,1.000000,0.000000,$1*%
G04 Aperture macros list end*
%ADD10RoundRect,0.250001X-0.462499X-0.624999X0.462499X-0.624999X0.462499X0.624999X-0.462499X0.624999X0*%
%ADD11R,1.700000X1.700000*%
%ADD12C,1.700000*%
%ADD13RoundRect,0.150000X-0.512500X-0.150000X0.512500X-0.150000X0.512500X0.150000X-0.512500X0.150000X0*%
%ADD14RoundRect,0.375000X0.375000X-0.625000X0.375000X0.625000X-0.375000X0.625000X-0.375000X-0.625000X0*%
%ADD15RoundRect,0.500000X1.400000X-0.500000X1.400000X0.500000X-1.400000X0.500000X-1.400000X-0.500000X0*%
%ADD16C,4.500000*%
%ADD17RoundRect,0.250000X-0.350000X-0.625000X0.350000X-0.625000X0.350000X0.625000X-0.350000X0.625000X0*%
%ADD18O,1.200000X1.750000*%
%ADD19RoundRect,0.250002X-1.699998X-1.699998X1.699998X-1.699998X1.699998X1.699998X-1.699998X1.699998X0*%
%ADD20RoundRect,0.075500X-0.806500X-0.226500X0.806500X-0.226500X0.806500X0.226500X-0.806500X0.226500X0*%
%ADD21RoundRect,0.250000X-0.450000X0.325000X-0.450000X-0.325000X0.450000X-0.325000X0.450000X0.325000X0*%
%ADD22RoundRect,0.150000X0.825000X0.150000X-0.825000X0.150000X-0.825000X-0.150000X0.825000X-0.150000X0*%
%ADD23R,2.410000X3.300000*%
%ADD24R,1.500000X0.900000*%
%ADD25R,0.900000X1.500000*%
%ADD26C,0.600000*%
%ADD27R,3.900000X3.900000*%
%ADD28R,2.500000X2.000000*%
%ADD29R,2.000000X2.000000*%
%ADD30FreePoly0,0.000000*%
%ADD31FreePoly0,180.000000*%
%ADD32C,0.650000*%
%ADD33R,1.450000X0.600000*%
%ADD34R,1.450000X0.300000*%
%ADD35O,2.100000X1.000000*%
%ADD36O,1.600000X1.000000*%
%ADD37C,1.512000*%
%ADD38C,2.304000*%
%ADD39RoundRect,0.250000X0.450000X-0.325000X0.450000X0.325000X-0.450000X0.325000X-0.450000X-0.325000X0*%
%ADD40RoundRect,0.250000X0.325000X0.450000X-0.325000X0.450000X-0.325000X-0.450000X0.325000X-0.450000X0*%
G04 APERTURE END LIST*
%TO.C,JP2*%
G36*
X128500000Y-87250000D02*
G01*
X133500000Y-87250000D01*
X133500000Y-88750000D01*
X128500000Y-88750000D01*
X128500000Y-87250000D01*
G37*
%TD*%
D10*
%TO.C,F1*%
X139262500Y-113800000D03*
X142237500Y-113800000D03*
%TD*%
D11*
%TO.C,J3*%
X168080000Y-78100000D03*
D12*
X165540000Y-78100000D03*
X163000000Y-78100000D03*
%TD*%
D13*
%TO.C,U5*%
X139612500Y-106550000D03*
X139612500Y-107500000D03*
X139612500Y-108450000D03*
X141887500Y-108450000D03*
X141887500Y-107500000D03*
X141887500Y-106550000D03*
%TD*%
D14*
%TO.C,U1*%
X128450000Y-85300000D03*
X130750000Y-85300000D03*
D15*
X130750000Y-79000000D03*
D14*
X133050000Y-85300000D03*
%TD*%
D13*
%TO.C,U3*%
X138112500Y-91050000D03*
X138112500Y-92000000D03*
X138112500Y-92950000D03*
X140387500Y-92950000D03*
X140387500Y-92000000D03*
X140387500Y-91050000D03*
%TD*%
D16*
%TO.C,H1*%
X167000000Y-112000000D03*
%TD*%
D17*
%TO.C,J4*%
X150250000Y-106200000D03*
D18*
X152250000Y-106200000D03*
X154250000Y-106200000D03*
X156250000Y-106200000D03*
X158250000Y-106200000D03*
%TD*%
D19*
%TO.C,J8*%
X129750000Y-112500000D03*
%TD*%
D20*
%TO.C,Q1*%
X131120000Y-106775000D03*
X131120000Y-107425000D03*
X131120000Y-108075000D03*
X131120000Y-108725000D03*
X136880000Y-108725000D03*
X136880000Y-108075000D03*
X136880000Y-107425000D03*
X136880000Y-106775000D03*
%TD*%
D17*
%TO.C,J13*%
X165330000Y-89640000D03*
D18*
X167330000Y-89640000D03*
%TD*%
D19*
%TO.C,J7*%
X135250000Y-112500000D03*
%TD*%
D21*
%TO.C,D9*%
X151005000Y-100225000D03*
X151005000Y-102275000D03*
%TD*%
D17*
%TO.C,J11*%
X165330000Y-100640000D03*
D18*
X167330000Y-100640000D03*
%TD*%
D11*
%TO.C,J16*%
X168080000Y-85720000D03*
D12*
X165540000Y-85720000D03*
X163000000Y-85720000D03*
%TD*%
D22*
%TO.C,U4*%
X136675000Y-104955000D03*
X136675000Y-103685000D03*
X136675000Y-102415000D03*
X136675000Y-101145000D03*
X131725000Y-101145000D03*
X131725000Y-102415000D03*
X131725000Y-103685000D03*
X131725000Y-104955000D03*
D23*
X134200000Y-103050000D03*
%TD*%
D24*
%TO.C,U2*%
X142635000Y-73740000D03*
X142635000Y-75010000D03*
X142635000Y-76280000D03*
X142635000Y-77550000D03*
X142635000Y-78820000D03*
X142635000Y-80090000D03*
X142635000Y-81360000D03*
X142635000Y-82630000D03*
X142635000Y-83900000D03*
X142635000Y-85170000D03*
X142635000Y-86440000D03*
X142635000Y-87710000D03*
X142635000Y-88980000D03*
X142635000Y-90250000D03*
D25*
X144400000Y-91500000D03*
X145670000Y-91500000D03*
X146940000Y-91500000D03*
X148210000Y-91500000D03*
X149480000Y-91500000D03*
X150750000Y-91500000D03*
X152020000Y-91500000D03*
X153290000Y-91500000D03*
X154560000Y-91500000D03*
X155830000Y-91500000D03*
X157100000Y-91500000D03*
X158370000Y-91500000D03*
D24*
X160135000Y-90250000D03*
X160135000Y-88980000D03*
X160135000Y-87710000D03*
X160135000Y-86440000D03*
X160135000Y-85170000D03*
X160135000Y-83900000D03*
X160135000Y-82630000D03*
X160135000Y-81360000D03*
X160135000Y-80090000D03*
X160135000Y-78820000D03*
X160135000Y-77550000D03*
X160135000Y-76280000D03*
X160135000Y-75010000D03*
X160135000Y-73740000D03*
D26*
X148485000Y-80760000D03*
X148485000Y-82160000D03*
X149185000Y-80060000D03*
X149185000Y-81460000D03*
X149185000Y-82860000D03*
X149885000Y-80760000D03*
D27*
X149885000Y-81460000D03*
D26*
X149885000Y-82160000D03*
X150585000Y-80060000D03*
X150585000Y-81460000D03*
X150585000Y-82860000D03*
X151285000Y-80760000D03*
X151285000Y-82160000D03*
%TD*%
D11*
%TO.C,J14*%
X168080000Y-80640000D03*
D12*
X165540000Y-80640000D03*
X163000000Y-80640000D03*
%TD*%
D28*
%TO.C,L1*%
X141250000Y-99000000D03*
X141250000Y-104000000D03*
%TD*%
D11*
%TO.C,J15*%
X168080000Y-83180000D03*
D12*
X165540000Y-83180000D03*
X163000000Y-83180000D03*
%TD*%
D17*
%TO.C,J12*%
X165330000Y-95140000D03*
D18*
X167330000Y-95140000D03*
%TD*%
D29*
%TO.C,SW1*%
X168608000Y-74168000D03*
X168608000Y-74168000D03*
X162608000Y-74168000D03*
X162608000Y-74168000D03*
%TD*%
D17*
%TO.C,J5*%
X163250000Y-106200000D03*
D18*
X165250000Y-106200000D03*
X167250000Y-106200000D03*
%TD*%
D30*
%TO.C,JP2*%
X129000000Y-88000000D03*
D31*
X133000000Y-88000000D03*
%TD*%
D21*
%TO.C,D4*%
X128250000Y-105725000D03*
X128250000Y-107775000D03*
%TD*%
D32*
%TO.C,J1*%
X134000000Y-92110000D03*
X134000000Y-97890000D03*
D33*
X135445000Y-91750000D03*
X135445000Y-92550000D03*
D34*
X135445000Y-93750000D03*
X135445000Y-94750000D03*
X135445000Y-95250000D03*
X135445000Y-96250000D03*
D33*
X135445000Y-97450000D03*
X135445000Y-98250000D03*
X135445000Y-98250000D03*
X135445000Y-97450000D03*
D34*
X135445000Y-96750000D03*
X135445000Y-95750000D03*
X135445000Y-94250000D03*
X135445000Y-93250000D03*
D33*
X135445000Y-92550000D03*
X135445000Y-91750000D03*
D35*
X134530000Y-90680000D03*
D36*
X130350000Y-90680000D03*
D35*
X134530000Y-99320000D03*
D36*
X130350000Y-99320000D03*
%TD*%
D16*
%TO.C,H2*%
X130000000Y-75000000D03*
%TD*%
D29*
%TO.C,SW2*%
X134000000Y-74250000D03*
X134000000Y-74250000D03*
X140000000Y-74250000D03*
X140000000Y-74250000D03*
%TD*%
D37*
%TO.C,U7*%
X138500000Y-82750000D03*
X138500000Y-86750000D03*
X138500000Y-84750000D03*
D38*
X138500000Y-80600000D03*
X138500000Y-88900000D03*
%TD*%
D13*
%TO.C,U6*%
X144500000Y-106600000D03*
X144500000Y-107550000D03*
X144500000Y-108500000D03*
X146775000Y-108500000D03*
X146775000Y-107550000D03*
X146775000Y-106600000D03*
%TD*%
D17*
%TO.C,J2*%
X146000000Y-111700000D03*
D18*
X148000000Y-111700000D03*
X150000000Y-111700000D03*
X152000000Y-111700000D03*
X154000000Y-111700000D03*
X156000000Y-111700000D03*
X158000000Y-111700000D03*
X160000000Y-111700000D03*
X162000000Y-111700000D03*
%TD*%
D39*
%TO.C,D3*%
X128250000Y-103525000D03*
X128250000Y-101475000D03*
%TD*%
D40*
%TO.C,D2*%
X139025000Y-78000000D03*
X136975000Y-78000000D03*
%TD*%
M02*
