%TF.GenerationSoftware,KiCad,Pcbnew,9.0.3*%
%TF.CreationDate,2026-03-30T15:50:24+02:00*%
%TF.ProjectId,new version,6e657720-7665-4727-9369-6f6e2e6b6963,rev?*%
%TF.SameCoordinates,Original*%
%TF.FileFunction,Soldermask,Bot*%
%TF.FilePolarity,Negative*%
%FSLAX46Y46*%
G04 Gerber Fmt 4.6, Leading zero omitted, Abs format (unit mm)*
G04 Created by KiCad (PCBNEW 9.0.3) date 2026-03-30 15:50:24*
%MOMM*%
%LPD*%
G01*
G04 APERTURE LIST*
G04 Aperture macros list*
%AMRoundRect*
0 Rectangle with rounded corners*
0 $1 Rounding radius*
0 $2 $3 $4 $5 $6 $7 $8 $9 X,Y pos of 4 corners*
0 Add a 4 corners polygon primitive as box body*
4,1,4,$2,$3,$4,$5,$6,$7,$8,$9,$2,$3,0*
0 Add four circle primitives for the rounded corners*
1,1,$1+$1,$2,$3*
1,1,$1+$1,$4,$5*
1,1,$1+$1,$6,$7*
1,1,$1+$1,$8,$9*
0 Add four rect primitives between the rounded corners*
20,1,$1+$1,$2,$3,$4,$5,0*
20,1,$1+$1,$4,$5,$6,$7,0*
20,1,$1+$1,$6,$7,$8,$9,0*
20,1,$1+$1,$8,$9,$2,$3,0*%
G04 Aperture macros list end*
%ADD10R,1.700000X1.700000*%
%ADD11C,1.700000*%
%ADD12C,4.500000*%
%ADD13RoundRect,0.250000X-0.350000X-0.625000X0.350000X-0.625000X0.350000X0.625000X-0.350000X0.625000X0*%
%ADD14O,1.200000X1.750000*%
%ADD15RoundRect,0.250002X-1.699998X-1.699998X1.699998X-1.699998X1.699998X1.699998X-1.699998X1.699998X0*%
%ADD16C,0.650000*%
%ADD17O,2.100000X1.000000*%
%ADD18O,1.600000X1.000000*%
%ADD19C,1.512000*%
%ADD20C,2.304000*%
%ADD21RoundRect,0.250000X-0.337500X-0.475000X0.337500X-0.475000X0.337500X0.475000X-0.337500X0.475000X0*%
%ADD22RoundRect,0.250000X-0.475000X0.337500X-0.475000X-0.337500X0.475000X-0.337500X0.475000X0.337500X0*%
%ADD23RoundRect,0.250000X0.450000X-0.350000X0.450000X0.350000X-0.450000X0.350000X-0.450000X-0.350000X0*%
%ADD24RoundRect,0.250000X0.475000X-0.337500X0.475000X0.337500X-0.475000X0.337500X-0.475000X-0.337500X0*%
%ADD25RoundRect,0.250000X0.350000X0.450000X-0.350000X0.450000X-0.350000X-0.450000X0.350000X-0.450000X0*%
%ADD26RoundRect,0.250000X-0.325000X-0.450000X0.325000X-0.450000X0.325000X0.450000X-0.325000X0.450000X0*%
%ADD27RoundRect,0.250000X0.325000X0.450000X-0.325000X0.450000X-0.325000X-0.450000X0.325000X-0.450000X0*%
%ADD28RoundRect,0.250000X-0.450000X0.350000X-0.450000X-0.350000X0.450000X-0.350000X0.450000X0.350000X0*%
%ADD29RoundRect,0.200000X-0.750000X-0.200000X0.750000X-0.200000X0.750000X0.200000X-0.750000X0.200000X0*%
%ADD30RoundRect,0.250000X-0.350000X-0.450000X0.350000X-0.450000X0.350000X0.450000X-0.350000X0.450000X0*%
%ADD31RoundRect,0.250000X0.337500X0.475000X-0.337500X0.475000X-0.337500X-0.475000X0.337500X-0.475000X0*%
G04 APERTURE END LIST*
D10*
%TO.C,J3*%
X168080000Y-78100000D03*
D11*
X165540000Y-78100000D03*
X163000000Y-78100000D03*
%TD*%
D12*
%TO.C,H1*%
X167000000Y-112000000D03*
%TD*%
D13*
%TO.C,J4*%
X150250000Y-106200000D03*
D14*
X152250000Y-106200000D03*
X154250000Y-106200000D03*
X156250000Y-106200000D03*
X158250000Y-106200000D03*
%TD*%
D15*
%TO.C,J8*%
X129750000Y-112500000D03*
%TD*%
D13*
%TO.C,J13*%
X165330000Y-89640000D03*
D14*
X167330000Y-89640000D03*
%TD*%
D15*
%TO.C,J7*%
X135250000Y-112500000D03*
%TD*%
D13*
%TO.C,J11*%
X165330000Y-100640000D03*
D14*
X167330000Y-100640000D03*
%TD*%
D10*
%TO.C,J16*%
X168080000Y-85720000D03*
D11*
X165540000Y-85720000D03*
X163000000Y-85720000D03*
%TD*%
D10*
%TO.C,J14*%
X168080000Y-80640000D03*
D11*
X165540000Y-80640000D03*
X163000000Y-80640000D03*
%TD*%
D10*
%TO.C,J15*%
X168080000Y-83180000D03*
D11*
X165540000Y-83180000D03*
X163000000Y-83180000D03*
%TD*%
D13*
%TO.C,J12*%
X165330000Y-95140000D03*
D14*
X167330000Y-95140000D03*
%TD*%
D13*
%TO.C,J5*%
X163250000Y-106200000D03*
D14*
X165250000Y-106200000D03*
X167250000Y-106200000D03*
%TD*%
D16*
%TO.C,J1*%
X134000000Y-92110000D03*
X134000000Y-97890000D03*
D17*
X134530000Y-90680000D03*
D18*
X130350000Y-90680000D03*
D17*
X134530000Y-99320000D03*
D18*
X130350000Y-99320000D03*
%TD*%
D12*
%TO.C,H2*%
X130000000Y-75000000D03*
%TD*%
D19*
%TO.C,U7*%
X138500000Y-82750000D03*
X138500000Y-86750000D03*
X138500000Y-84750000D03*
D20*
X138500000Y-80600000D03*
X138500000Y-88900000D03*
%TD*%
D13*
%TO.C,J2*%
X146000000Y-111700000D03*
D14*
X148000000Y-111700000D03*
X150000000Y-111700000D03*
X152000000Y-111700000D03*
X154000000Y-111700000D03*
X156000000Y-111700000D03*
X158000000Y-111700000D03*
X160000000Y-111700000D03*
X162000000Y-111700000D03*
%TD*%
D21*
%TO.C,C11*%
X139712500Y-110500000D03*
X141787500Y-110500000D03*
%TD*%
D22*
%TO.C,C1*%
X128500000Y-92712500D03*
X128500000Y-94787500D03*
%TD*%
D23*
%TO.C,R19*%
X153500000Y-91500000D03*
X153500000Y-89500000D03*
%TD*%
%TO.C,R17*%
X153500000Y-97000000D03*
X153500000Y-95000000D03*
%TD*%
D24*
%TO.C,C3*%
X145000000Y-75037500D03*
X145000000Y-72962500D03*
%TD*%
D25*
%TO.C,R3*%
X157500000Y-74250000D03*
X155500000Y-74250000D03*
%TD*%
D26*
%TO.C,D1*%
X130725000Y-92500000D03*
X132775000Y-92500000D03*
%TD*%
D22*
%TO.C,C13*%
X146887500Y-107762500D03*
X146887500Y-109837500D03*
%TD*%
D27*
%TO.C,D6*%
X167275000Y-103500000D03*
X165225000Y-103500000D03*
%TD*%
D24*
%TO.C,C6*%
X128500000Y-87112500D03*
X128500000Y-85037500D03*
%TD*%
D25*
%TO.C,R13*%
X142500000Y-101500000D03*
X140500000Y-101500000D03*
%TD*%
D28*
%TO.C,R14*%
X144387500Y-107800000D03*
X144387500Y-109800000D03*
%TD*%
D29*
%TO.C,Q4*%
X158580000Y-91282600D03*
X158580000Y-89382600D03*
X161580000Y-90332600D03*
%TD*%
D22*
%TO.C,C9*%
X131250000Y-80500000D03*
X131250000Y-82575000D03*
%TD*%
D25*
%TO.C,R2*%
X132750000Y-97500000D03*
X130750000Y-97500000D03*
%TD*%
%TO.C,R5*%
X139000000Y-78000000D03*
X137000000Y-78000000D03*
%TD*%
D30*
%TO.C,R10*%
X143500000Y-99000000D03*
X145500000Y-99000000D03*
%TD*%
D28*
%TO.C,R20*%
X156000000Y-89500000D03*
X156000000Y-91500000D03*
%TD*%
D27*
%TO.C,D8*%
X167355000Y-92140000D03*
X165305000Y-92140000D03*
%TD*%
D21*
%TO.C,C4*%
X164462500Y-74250000D03*
X166537500Y-74250000D03*
%TD*%
D30*
%TO.C,R12*%
X137000000Y-107500000D03*
X139000000Y-107500000D03*
%TD*%
D28*
%TO.C,R16*%
X156080000Y-100140000D03*
X156080000Y-102140000D03*
%TD*%
%TO.C,R6*%
X128239100Y-101505800D03*
X128239100Y-103505800D03*
%TD*%
D24*
%TO.C,C7*%
X131250000Y-87075000D03*
X131250000Y-85000000D03*
%TD*%
D31*
%TO.C,C12*%
X141787500Y-113750000D03*
X139712500Y-113750000D03*
%TD*%
D27*
%TO.C,D5*%
X146662500Y-105800000D03*
X144612500Y-105800000D03*
%TD*%
D22*
%TO.C,C8*%
X128500000Y-80500000D03*
X128500000Y-82575000D03*
%TD*%
D25*
%TO.C,R11*%
X142500000Y-104000000D03*
X140500000Y-104000000D03*
%TD*%
D28*
%TO.C,R18*%
X156000000Y-95000000D03*
X156000000Y-97000000D03*
%TD*%
D24*
%TO.C,C10*%
X131500000Y-103543300D03*
X131500000Y-101468300D03*
%TD*%
D23*
%TO.C,R7*%
X128225000Y-107705000D03*
X128225000Y-105705000D03*
%TD*%
D30*
%TO.C,R4*%
X140500000Y-74250000D03*
X142500000Y-74250000D03*
%TD*%
D23*
%TO.C,R15*%
X153580000Y-102140000D03*
X153580000Y-100140000D03*
%TD*%
D28*
%TO.C,R8*%
X136750000Y-101500000D03*
X136750000Y-103500000D03*
%TD*%
D30*
%TO.C,R9*%
X139000000Y-99000000D03*
X141000000Y-99000000D03*
%TD*%
D27*
%TO.C,D7*%
X167275000Y-97750000D03*
X165225000Y-97750000D03*
%TD*%
D29*
%TO.C,Q3*%
X158580000Y-96840000D03*
X158580000Y-94940000D03*
X161580000Y-95890000D03*
%TD*%
%TO.C,Q2*%
X158580000Y-102090000D03*
X158580000Y-100190000D03*
X161580000Y-101140000D03*
%TD*%
D23*
%TO.C,R21*%
X151000000Y-102250000D03*
X151000000Y-100250000D03*
%TD*%
D25*
%TO.C,R1*%
X132750000Y-95000000D03*
X130750000Y-95000000D03*
%TD*%
D24*
%TO.C,C2*%
X147750000Y-75037500D03*
X147750000Y-72962500D03*
%TD*%
D31*
%TO.C,C5*%
X138037500Y-74250000D03*
X135962500Y-74250000D03*
%TD*%
M02*
