%TF.GenerationSoftware,KiCad,Pcbnew,9.0.3*%
%TF.CreationDate,2026-03-30T15:50:24+02:00*%
%TF.ProjectId,new version,6e657720-7665-4727-9369-6f6e2e6b6963,rev?*%
%TF.SameCoordinates,Original*%
%TF.FileFunction,Legend,Bot*%
%TF.FilePolarity,Positive*%
%FSLAX46Y46*%
G04 Gerber Fmt 4.6, Leading zero omitted, Abs format (unit mm)*
G04 Created by KiCad (PCBNEW 9.0.3) date 2026-03-30 15:50:24*
%MOMM*%
%LPD*%
G01*
G04 APERTURE LIST*
%ADD10C,0.087500*%
%ADD11C,0.150000*%
%ADD12C,0.000000*%
%ADD13C,0.120000*%
G04 APERTURE END LIST*
D10*
X164025768Y-108532822D02*
X164025768Y-107832822D01*
X163625768Y-108532822D02*
X163925768Y-108132822D01*
X163625768Y-107832822D02*
X164025768Y-108232822D01*
X163325768Y-108532822D02*
X163325768Y-108066155D01*
X163325768Y-107832822D02*
X163359101Y-107866155D01*
X163359101Y-107866155D02*
X163325768Y-107899489D01*
X163325768Y-107899489D02*
X163292435Y-107866155D01*
X163292435Y-107866155D02*
X163325768Y-107832822D01*
X163325768Y-107832822D02*
X163325768Y-107899489D01*
X163092435Y-108066155D02*
X162825768Y-108066155D01*
X162992435Y-107832822D02*
X162992435Y-108432822D01*
X162992435Y-108432822D02*
X162959102Y-108499489D01*
X162959102Y-108499489D02*
X162892435Y-108532822D01*
X162892435Y-108532822D02*
X162825768Y-108532822D01*
X161825769Y-108166155D02*
X161725769Y-108199489D01*
X161725769Y-108199489D02*
X161692435Y-108232822D01*
X161692435Y-108232822D02*
X161659102Y-108299489D01*
X161659102Y-108299489D02*
X161659102Y-108399489D01*
X161659102Y-108399489D02*
X161692435Y-108466155D01*
X161692435Y-108466155D02*
X161725769Y-108499489D01*
X161725769Y-108499489D02*
X161792435Y-108532822D01*
X161792435Y-108532822D02*
X162059102Y-108532822D01*
X162059102Y-108532822D02*
X162059102Y-107832822D01*
X162059102Y-107832822D02*
X161825769Y-107832822D01*
X161825769Y-107832822D02*
X161759102Y-107866155D01*
X161759102Y-107866155D02*
X161725769Y-107899489D01*
X161725769Y-107899489D02*
X161692435Y-107966155D01*
X161692435Y-107966155D02*
X161692435Y-108032822D01*
X161692435Y-108032822D02*
X161725769Y-108099489D01*
X161725769Y-108099489D02*
X161759102Y-108132822D01*
X161759102Y-108132822D02*
X161825769Y-108166155D01*
X161825769Y-108166155D02*
X162059102Y-108166155D01*
X161259102Y-108532822D02*
X161325769Y-108499489D01*
X161325769Y-108499489D02*
X161359102Y-108466155D01*
X161359102Y-108466155D02*
X161392435Y-108399489D01*
X161392435Y-108399489D02*
X161392435Y-108199489D01*
X161392435Y-108199489D02*
X161359102Y-108132822D01*
X161359102Y-108132822D02*
X161325769Y-108099489D01*
X161325769Y-108099489D02*
X161259102Y-108066155D01*
X161259102Y-108066155D02*
X161159102Y-108066155D01*
X161159102Y-108066155D02*
X161092435Y-108099489D01*
X161092435Y-108099489D02*
X161059102Y-108132822D01*
X161059102Y-108132822D02*
X161025769Y-108199489D01*
X161025769Y-108199489D02*
X161025769Y-108399489D01*
X161025769Y-108399489D02*
X161059102Y-108466155D01*
X161059102Y-108466155D02*
X161092435Y-108499489D01*
X161092435Y-108499489D02*
X161159102Y-108532822D01*
X161159102Y-108532822D02*
X161259102Y-108532822D01*
X160825769Y-108066155D02*
X160559102Y-108066155D01*
X160725769Y-107832822D02*
X160725769Y-108432822D01*
X160725769Y-108432822D02*
X160692436Y-108499489D01*
X160692436Y-108499489D02*
X160625769Y-108532822D01*
X160625769Y-108532822D02*
X160559102Y-108532822D01*
X160025769Y-108532822D02*
X160025769Y-108166155D01*
X160025769Y-108166155D02*
X160059102Y-108099489D01*
X160059102Y-108099489D02*
X160125769Y-108066155D01*
X160125769Y-108066155D02*
X160259102Y-108066155D01*
X160259102Y-108066155D02*
X160325769Y-108099489D01*
X160025769Y-108499489D02*
X160092436Y-108532822D01*
X160092436Y-108532822D02*
X160259102Y-108532822D01*
X160259102Y-108532822D02*
X160325769Y-108499489D01*
X160325769Y-108499489D02*
X160359102Y-108432822D01*
X160359102Y-108432822D02*
X160359102Y-108366155D01*
X160359102Y-108366155D02*
X160325769Y-108299489D01*
X160325769Y-108299489D02*
X160259102Y-108266155D01*
X160259102Y-108266155D02*
X160092436Y-108266155D01*
X160092436Y-108266155D02*
X160025769Y-108232822D01*
X159692436Y-108066155D02*
X159692436Y-108532822D01*
X159692436Y-108132822D02*
X159659103Y-108099489D01*
X159659103Y-108099489D02*
X159592436Y-108066155D01*
X159592436Y-108066155D02*
X159492436Y-108066155D01*
X159492436Y-108066155D02*
X159425769Y-108099489D01*
X159425769Y-108099489D02*
X159392436Y-108166155D01*
X159392436Y-108166155D02*
X159392436Y-108532822D01*
X159059103Y-108532822D02*
X159059103Y-108066155D01*
X159059103Y-107832822D02*
X159092436Y-107866155D01*
X159092436Y-107866155D02*
X159059103Y-107899489D01*
X159059103Y-107899489D02*
X159025770Y-107866155D01*
X159025770Y-107866155D02*
X159059103Y-107832822D01*
X159059103Y-107832822D02*
X159059103Y-107899489D01*
X158425770Y-108066155D02*
X158425770Y-108766155D01*
X158425770Y-108499489D02*
X158492437Y-108532822D01*
X158492437Y-108532822D02*
X158625770Y-108532822D01*
X158625770Y-108532822D02*
X158692437Y-108499489D01*
X158692437Y-108499489D02*
X158725770Y-108466155D01*
X158725770Y-108466155D02*
X158759103Y-108399489D01*
X158759103Y-108399489D02*
X158759103Y-108199489D01*
X158759103Y-108199489D02*
X158725770Y-108132822D01*
X158725770Y-108132822D02*
X158692437Y-108099489D01*
X158692437Y-108099489D02*
X158625770Y-108066155D01*
X158625770Y-108066155D02*
X158492437Y-108066155D01*
X158492437Y-108066155D02*
X158425770Y-108099489D01*
X157792437Y-108066155D02*
X157792437Y-108532822D01*
X158092437Y-108066155D02*
X158092437Y-108432822D01*
X158092437Y-108432822D02*
X158059104Y-108499489D01*
X158059104Y-108499489D02*
X157992437Y-108532822D01*
X157992437Y-108532822D02*
X157892437Y-108532822D01*
X157892437Y-108532822D02*
X157825770Y-108499489D01*
X157825770Y-108499489D02*
X157792437Y-108466155D01*
X157192437Y-108499489D02*
X157259104Y-108532822D01*
X157259104Y-108532822D02*
X157392437Y-108532822D01*
X157392437Y-108532822D02*
X157459104Y-108499489D01*
X157459104Y-108499489D02*
X157492437Y-108432822D01*
X157492437Y-108432822D02*
X157492437Y-108166155D01*
X157492437Y-108166155D02*
X157459104Y-108099489D01*
X157459104Y-108099489D02*
X157392437Y-108066155D01*
X157392437Y-108066155D02*
X157259104Y-108066155D01*
X157259104Y-108066155D02*
X157192437Y-108099489D01*
X157192437Y-108099489D02*
X157159104Y-108166155D01*
X157159104Y-108166155D02*
X157159104Y-108232822D01*
X157159104Y-108232822D02*
X157492437Y-108299489D01*
X156392438Y-108066155D02*
X156225771Y-108532822D01*
X156225771Y-108532822D02*
X156059104Y-108066155D01*
X155425771Y-108532822D02*
X155825771Y-108532822D01*
X155625771Y-108532822D02*
X155625771Y-107832822D01*
X155625771Y-107832822D02*
X155692438Y-107932822D01*
X155692438Y-107932822D02*
X155759105Y-107999489D01*
X155759105Y-107999489D02*
X155825771Y-108032822D01*
X155125771Y-108466155D02*
X155092438Y-108499489D01*
X155092438Y-108499489D02*
X155125771Y-108532822D01*
X155125771Y-108532822D02*
X155159104Y-108499489D01*
X155159104Y-108499489D02*
X155125771Y-108466155D01*
X155125771Y-108466155D02*
X155125771Y-108532822D01*
X154659105Y-107832822D02*
X154592438Y-107832822D01*
X154592438Y-107832822D02*
X154525771Y-107866155D01*
X154525771Y-107866155D02*
X154492438Y-107899489D01*
X154492438Y-107899489D02*
X154459105Y-107966155D01*
X154459105Y-107966155D02*
X154425771Y-108099489D01*
X154425771Y-108099489D02*
X154425771Y-108266155D01*
X154425771Y-108266155D02*
X154459105Y-108399489D01*
X154459105Y-108399489D02*
X154492438Y-108466155D01*
X154492438Y-108466155D02*
X154525771Y-108499489D01*
X154525771Y-108499489D02*
X154592438Y-108532822D01*
X154592438Y-108532822D02*
X154659105Y-108532822D01*
X154659105Y-108532822D02*
X154725771Y-108499489D01*
X154725771Y-108499489D02*
X154759105Y-108466155D01*
X154759105Y-108466155D02*
X154792438Y-108399489D01*
X154792438Y-108399489D02*
X154825771Y-108266155D01*
X154825771Y-108266155D02*
X154825771Y-108099489D01*
X154825771Y-108099489D02*
X154792438Y-107966155D01*
X154792438Y-107966155D02*
X154759105Y-107899489D01*
X154759105Y-107899489D02*
X154725771Y-107866155D01*
X154725771Y-107866155D02*
X154659105Y-107832822D01*
X164025768Y-109659783D02*
X164025768Y-108959783D01*
X164025768Y-108959783D02*
X163859101Y-108959783D01*
X163859101Y-108959783D02*
X163759101Y-108993116D01*
X163759101Y-108993116D02*
X163692435Y-109059783D01*
X163692435Y-109059783D02*
X163659101Y-109126450D01*
X163659101Y-109126450D02*
X163625768Y-109259783D01*
X163625768Y-109259783D02*
X163625768Y-109359783D01*
X163625768Y-109359783D02*
X163659101Y-109493116D01*
X163659101Y-109493116D02*
X163692435Y-109559783D01*
X163692435Y-109559783D02*
X163759101Y-109626450D01*
X163759101Y-109626450D02*
X163859101Y-109659783D01*
X163859101Y-109659783D02*
X164025768Y-109659783D01*
X163059101Y-109626450D02*
X163125768Y-109659783D01*
X163125768Y-109659783D02*
X163259101Y-109659783D01*
X163259101Y-109659783D02*
X163325768Y-109626450D01*
X163325768Y-109626450D02*
X163359101Y-109559783D01*
X163359101Y-109559783D02*
X163359101Y-109293116D01*
X163359101Y-109293116D02*
X163325768Y-109226450D01*
X163325768Y-109226450D02*
X163259101Y-109193116D01*
X163259101Y-109193116D02*
X163125768Y-109193116D01*
X163125768Y-109193116D02*
X163059101Y-109226450D01*
X163059101Y-109226450D02*
X163025768Y-109293116D01*
X163025768Y-109293116D02*
X163025768Y-109359783D01*
X163025768Y-109359783D02*
X163359101Y-109426450D01*
X162759101Y-109626450D02*
X162692435Y-109659783D01*
X162692435Y-109659783D02*
X162559101Y-109659783D01*
X162559101Y-109659783D02*
X162492435Y-109626450D01*
X162492435Y-109626450D02*
X162459101Y-109559783D01*
X162459101Y-109559783D02*
X162459101Y-109526450D01*
X162459101Y-109526450D02*
X162492435Y-109459783D01*
X162492435Y-109459783D02*
X162559101Y-109426450D01*
X162559101Y-109426450D02*
X162659101Y-109426450D01*
X162659101Y-109426450D02*
X162725768Y-109393116D01*
X162725768Y-109393116D02*
X162759101Y-109326450D01*
X162759101Y-109326450D02*
X162759101Y-109293116D01*
X162759101Y-109293116D02*
X162725768Y-109226450D01*
X162725768Y-109226450D02*
X162659101Y-109193116D01*
X162659101Y-109193116D02*
X162559101Y-109193116D01*
X162559101Y-109193116D02*
X162492435Y-109226450D01*
X162159101Y-109659783D02*
X162159101Y-109193116D01*
X162159101Y-108959783D02*
X162192434Y-108993116D01*
X162192434Y-108993116D02*
X162159101Y-109026450D01*
X162159101Y-109026450D02*
X162125768Y-108993116D01*
X162125768Y-108993116D02*
X162159101Y-108959783D01*
X162159101Y-108959783D02*
X162159101Y-109026450D01*
X161525768Y-109193116D02*
X161525768Y-109759783D01*
X161525768Y-109759783D02*
X161559101Y-109826450D01*
X161559101Y-109826450D02*
X161592435Y-109859783D01*
X161592435Y-109859783D02*
X161659101Y-109893116D01*
X161659101Y-109893116D02*
X161759101Y-109893116D01*
X161759101Y-109893116D02*
X161825768Y-109859783D01*
X161525768Y-109626450D02*
X161592435Y-109659783D01*
X161592435Y-109659783D02*
X161725768Y-109659783D01*
X161725768Y-109659783D02*
X161792435Y-109626450D01*
X161792435Y-109626450D02*
X161825768Y-109593116D01*
X161825768Y-109593116D02*
X161859101Y-109526450D01*
X161859101Y-109526450D02*
X161859101Y-109326450D01*
X161859101Y-109326450D02*
X161825768Y-109259783D01*
X161825768Y-109259783D02*
X161792435Y-109226450D01*
X161792435Y-109226450D02*
X161725768Y-109193116D01*
X161725768Y-109193116D02*
X161592435Y-109193116D01*
X161592435Y-109193116D02*
X161525768Y-109226450D01*
X161192435Y-109193116D02*
X161192435Y-109659783D01*
X161192435Y-109259783D02*
X161159102Y-109226450D01*
X161159102Y-109226450D02*
X161092435Y-109193116D01*
X161092435Y-109193116D02*
X160992435Y-109193116D01*
X160992435Y-109193116D02*
X160925768Y-109226450D01*
X160925768Y-109226450D02*
X160892435Y-109293116D01*
X160892435Y-109293116D02*
X160892435Y-109659783D01*
X160292435Y-109626450D02*
X160359102Y-109659783D01*
X160359102Y-109659783D02*
X160492435Y-109659783D01*
X160492435Y-109659783D02*
X160559102Y-109626450D01*
X160559102Y-109626450D02*
X160592435Y-109559783D01*
X160592435Y-109559783D02*
X160592435Y-109293116D01*
X160592435Y-109293116D02*
X160559102Y-109226450D01*
X160559102Y-109226450D02*
X160492435Y-109193116D01*
X160492435Y-109193116D02*
X160359102Y-109193116D01*
X160359102Y-109193116D02*
X160292435Y-109226450D01*
X160292435Y-109226450D02*
X160259102Y-109293116D01*
X160259102Y-109293116D02*
X160259102Y-109359783D01*
X160259102Y-109359783D02*
X160592435Y-109426450D01*
X159659102Y-109659783D02*
X159659102Y-108959783D01*
X159659102Y-109626450D02*
X159725769Y-109659783D01*
X159725769Y-109659783D02*
X159859102Y-109659783D01*
X159859102Y-109659783D02*
X159925769Y-109626450D01*
X159925769Y-109626450D02*
X159959102Y-109593116D01*
X159959102Y-109593116D02*
X159992435Y-109526450D01*
X159992435Y-109526450D02*
X159992435Y-109326450D01*
X159992435Y-109326450D02*
X159959102Y-109259783D01*
X159959102Y-109259783D02*
X159925769Y-109226450D01*
X159925769Y-109226450D02*
X159859102Y-109193116D01*
X159859102Y-109193116D02*
X159725769Y-109193116D01*
X159725769Y-109193116D02*
X159659102Y-109226450D01*
X158792436Y-109659783D02*
X158792436Y-108959783D01*
X158792436Y-109226450D02*
X158725769Y-109193116D01*
X158725769Y-109193116D02*
X158592436Y-109193116D01*
X158592436Y-109193116D02*
X158525769Y-109226450D01*
X158525769Y-109226450D02*
X158492436Y-109259783D01*
X158492436Y-109259783D02*
X158459103Y-109326450D01*
X158459103Y-109326450D02*
X158459103Y-109526450D01*
X158459103Y-109526450D02*
X158492436Y-109593116D01*
X158492436Y-109593116D02*
X158525769Y-109626450D01*
X158525769Y-109626450D02*
X158592436Y-109659783D01*
X158592436Y-109659783D02*
X158725769Y-109659783D01*
X158725769Y-109659783D02*
X158792436Y-109626450D01*
X158225770Y-109193116D02*
X158059103Y-109659783D01*
X157892436Y-109193116D02*
X158059103Y-109659783D01*
X158059103Y-109659783D02*
X158125770Y-109826450D01*
X158125770Y-109826450D02*
X158159103Y-109859783D01*
X158159103Y-109859783D02*
X158225770Y-109893116D01*
X156859104Y-109293116D02*
X157092437Y-109293116D01*
X157092437Y-109659783D02*
X157092437Y-108959783D01*
X157092437Y-108959783D02*
X156759104Y-108959783D01*
X156392437Y-109659783D02*
X156459104Y-109626450D01*
X156459104Y-109626450D02*
X156492437Y-109559783D01*
X156492437Y-109559783D02*
X156492437Y-108959783D01*
X156025770Y-109659783D02*
X156092437Y-109626450D01*
X156092437Y-109626450D02*
X156125770Y-109593116D01*
X156125770Y-109593116D02*
X156159103Y-109526450D01*
X156159103Y-109526450D02*
X156159103Y-109326450D01*
X156159103Y-109326450D02*
X156125770Y-109259783D01*
X156125770Y-109259783D02*
X156092437Y-109226450D01*
X156092437Y-109226450D02*
X156025770Y-109193116D01*
X156025770Y-109193116D02*
X155925770Y-109193116D01*
X155925770Y-109193116D02*
X155859103Y-109226450D01*
X155859103Y-109226450D02*
X155825770Y-109259783D01*
X155825770Y-109259783D02*
X155792437Y-109326450D01*
X155792437Y-109326450D02*
X155792437Y-109526450D01*
X155792437Y-109526450D02*
X155825770Y-109593116D01*
X155825770Y-109593116D02*
X155859103Y-109626450D01*
X155859103Y-109626450D02*
X155925770Y-109659783D01*
X155925770Y-109659783D02*
X156025770Y-109659783D01*
X155492437Y-109659783D02*
X155492437Y-109193116D01*
X155492437Y-109326450D02*
X155459104Y-109259783D01*
X155459104Y-109259783D02*
X155425770Y-109226450D01*
X155425770Y-109226450D02*
X155359104Y-109193116D01*
X155359104Y-109193116D02*
X155292437Y-109193116D01*
X155059104Y-109659783D02*
X155059104Y-109193116D01*
X155059104Y-108959783D02*
X155092437Y-108993116D01*
X155092437Y-108993116D02*
X155059104Y-109026450D01*
X155059104Y-109026450D02*
X155025771Y-108993116D01*
X155025771Y-108993116D02*
X155059104Y-108959783D01*
X155059104Y-108959783D02*
X155059104Y-109026450D01*
X154425771Y-109659783D02*
X154425771Y-109293116D01*
X154425771Y-109293116D02*
X154459104Y-109226450D01*
X154459104Y-109226450D02*
X154525771Y-109193116D01*
X154525771Y-109193116D02*
X154659104Y-109193116D01*
X154659104Y-109193116D02*
X154725771Y-109226450D01*
X154425771Y-109626450D02*
X154492438Y-109659783D01*
X154492438Y-109659783D02*
X154659104Y-109659783D01*
X154659104Y-109659783D02*
X154725771Y-109626450D01*
X154725771Y-109626450D02*
X154759104Y-109559783D01*
X154759104Y-109559783D02*
X154759104Y-109493116D01*
X154759104Y-109493116D02*
X154725771Y-109426450D01*
X154725771Y-109426450D02*
X154659104Y-109393116D01*
X154659104Y-109393116D02*
X154492438Y-109393116D01*
X154492438Y-109393116D02*
X154425771Y-109359783D01*
X154092438Y-109193116D02*
X154092438Y-109659783D01*
X154092438Y-109259783D02*
X154059105Y-109226450D01*
X154059105Y-109226450D02*
X153992438Y-109193116D01*
X153992438Y-109193116D02*
X153892438Y-109193116D01*
X153892438Y-109193116D02*
X153825771Y-109226450D01*
X153825771Y-109226450D02*
X153792438Y-109293116D01*
X153792438Y-109293116D02*
X153792438Y-109659783D01*
X152925772Y-109659783D02*
X152925772Y-108959783D01*
X152525772Y-109659783D02*
X152825772Y-109259783D01*
X152525772Y-108959783D02*
X152925772Y-109359783D01*
X152125772Y-109659783D02*
X152192439Y-109626450D01*
X152192439Y-109626450D02*
X152225772Y-109559783D01*
X152225772Y-109559783D02*
X152225772Y-108959783D01*
X151592438Y-109626450D02*
X151659105Y-109659783D01*
X151659105Y-109659783D02*
X151792438Y-109659783D01*
X151792438Y-109659783D02*
X151859105Y-109626450D01*
X151859105Y-109626450D02*
X151892438Y-109559783D01*
X151892438Y-109559783D02*
X151892438Y-109293116D01*
X151892438Y-109293116D02*
X151859105Y-109226450D01*
X151859105Y-109226450D02*
X151792438Y-109193116D01*
X151792438Y-109193116D02*
X151659105Y-109193116D01*
X151659105Y-109193116D02*
X151592438Y-109226450D01*
X151592438Y-109226450D02*
X151559105Y-109293116D01*
X151559105Y-109293116D02*
X151559105Y-109359783D01*
X151559105Y-109359783D02*
X151892438Y-109426450D01*
X151259105Y-109659783D02*
X151259105Y-109193116D01*
X151259105Y-108959783D02*
X151292438Y-108993116D01*
X151292438Y-108993116D02*
X151259105Y-109026450D01*
X151259105Y-109026450D02*
X151225772Y-108993116D01*
X151225772Y-108993116D02*
X151259105Y-108959783D01*
X151259105Y-108959783D02*
X151259105Y-109026450D01*
X150925772Y-109193116D02*
X150925772Y-109659783D01*
X150925772Y-109259783D02*
X150892439Y-109226450D01*
X150892439Y-109226450D02*
X150825772Y-109193116D01*
X150825772Y-109193116D02*
X150725772Y-109193116D01*
X150725772Y-109193116D02*
X150659105Y-109226450D01*
X150659105Y-109226450D02*
X150625772Y-109293116D01*
X150625772Y-109293116D02*
X150625772Y-109659783D01*
D11*
X138609580Y-109857142D02*
X138657200Y-109809523D01*
X138657200Y-109809523D02*
X138704819Y-109666666D01*
X138704819Y-109666666D02*
X138704819Y-109571428D01*
X138704819Y-109571428D02*
X138657200Y-109428571D01*
X138657200Y-109428571D02*
X138561961Y-109333333D01*
X138561961Y-109333333D02*
X138466723Y-109285714D01*
X138466723Y-109285714D02*
X138276247Y-109238095D01*
X138276247Y-109238095D02*
X138133390Y-109238095D01*
X138133390Y-109238095D02*
X137942914Y-109285714D01*
X137942914Y-109285714D02*
X137847676Y-109333333D01*
X137847676Y-109333333D02*
X137752438Y-109428571D01*
X137752438Y-109428571D02*
X137704819Y-109571428D01*
X137704819Y-109571428D02*
X137704819Y-109666666D01*
X137704819Y-109666666D02*
X137752438Y-109809523D01*
X137752438Y-109809523D02*
X137800057Y-109857142D01*
X138704819Y-110809523D02*
X138704819Y-110238095D01*
X138704819Y-110523809D02*
X137704819Y-110523809D01*
X137704819Y-110523809D02*
X137847676Y-110428571D01*
X137847676Y-110428571D02*
X137942914Y-110333333D01*
X137942914Y-110333333D02*
X137990533Y-110238095D01*
X138704819Y-111761904D02*
X138704819Y-111190476D01*
X138704819Y-111476190D02*
X137704819Y-111476190D01*
X137704819Y-111476190D02*
X137847676Y-111380952D01*
X137847676Y-111380952D02*
X137942914Y-111285714D01*
X137942914Y-111285714D02*
X137990533Y-111190476D01*
X128666666Y-91609580D02*
X128714285Y-91657200D01*
X128714285Y-91657200D02*
X128857142Y-91704819D01*
X128857142Y-91704819D02*
X128952380Y-91704819D01*
X128952380Y-91704819D02*
X129095237Y-91657200D01*
X129095237Y-91657200D02*
X129190475Y-91561961D01*
X129190475Y-91561961D02*
X129238094Y-91466723D01*
X129238094Y-91466723D02*
X129285713Y-91276247D01*
X129285713Y-91276247D02*
X129285713Y-91133390D01*
X129285713Y-91133390D02*
X129238094Y-90942914D01*
X129238094Y-90942914D02*
X129190475Y-90847676D01*
X129190475Y-90847676D02*
X129095237Y-90752438D01*
X129095237Y-90752438D02*
X128952380Y-90704819D01*
X128952380Y-90704819D02*
X128857142Y-90704819D01*
X128857142Y-90704819D02*
X128714285Y-90752438D01*
X128714285Y-90752438D02*
X128666666Y-90800057D01*
X127714285Y-91704819D02*
X128285713Y-91704819D01*
X127999999Y-91704819D02*
X127999999Y-90704819D01*
X127999999Y-90704819D02*
X128095237Y-90847676D01*
X128095237Y-90847676D02*
X128190475Y-90942914D01*
X128190475Y-90942914D02*
X128285713Y-90990533D01*
X153892857Y-93704819D02*
X154226190Y-93228628D01*
X154464285Y-93704819D02*
X154464285Y-92704819D01*
X154464285Y-92704819D02*
X154083333Y-92704819D01*
X154083333Y-92704819D02*
X153988095Y-92752438D01*
X153988095Y-92752438D02*
X153940476Y-92800057D01*
X153940476Y-92800057D02*
X153892857Y-92895295D01*
X153892857Y-92895295D02*
X153892857Y-93038152D01*
X153892857Y-93038152D02*
X153940476Y-93133390D01*
X153940476Y-93133390D02*
X153988095Y-93181009D01*
X153988095Y-93181009D02*
X154083333Y-93228628D01*
X154083333Y-93228628D02*
X154464285Y-93228628D01*
X152940476Y-93704819D02*
X153511904Y-93704819D01*
X153226190Y-93704819D02*
X153226190Y-92704819D01*
X153226190Y-92704819D02*
X153321428Y-92847676D01*
X153321428Y-92847676D02*
X153416666Y-92942914D01*
X153416666Y-92942914D02*
X153511904Y-92990533D01*
X152464285Y-93704819D02*
X152273809Y-93704819D01*
X152273809Y-93704819D02*
X152178571Y-93657200D01*
X152178571Y-93657200D02*
X152130952Y-93609580D01*
X152130952Y-93609580D02*
X152035714Y-93466723D01*
X152035714Y-93466723D02*
X151988095Y-93276247D01*
X151988095Y-93276247D02*
X151988095Y-92895295D01*
X151988095Y-92895295D02*
X152035714Y-92800057D01*
X152035714Y-92800057D02*
X152083333Y-92752438D01*
X152083333Y-92752438D02*
X152178571Y-92704819D01*
X152178571Y-92704819D02*
X152369047Y-92704819D01*
X152369047Y-92704819D02*
X152464285Y-92752438D01*
X152464285Y-92752438D02*
X152511904Y-92800057D01*
X152511904Y-92800057D02*
X152559523Y-92895295D01*
X152559523Y-92895295D02*
X152559523Y-93133390D01*
X152559523Y-93133390D02*
X152511904Y-93228628D01*
X152511904Y-93228628D02*
X152464285Y-93276247D01*
X152464285Y-93276247D02*
X152369047Y-93323866D01*
X152369047Y-93323866D02*
X152178571Y-93323866D01*
X152178571Y-93323866D02*
X152083333Y-93276247D01*
X152083333Y-93276247D02*
X152035714Y-93228628D01*
X152035714Y-93228628D02*
X151988095Y-93133390D01*
X153892857Y-98954819D02*
X154226190Y-98478628D01*
X154464285Y-98954819D02*
X154464285Y-97954819D01*
X154464285Y-97954819D02*
X154083333Y-97954819D01*
X154083333Y-97954819D02*
X153988095Y-98002438D01*
X153988095Y-98002438D02*
X153940476Y-98050057D01*
X153940476Y-98050057D02*
X153892857Y-98145295D01*
X153892857Y-98145295D02*
X153892857Y-98288152D01*
X153892857Y-98288152D02*
X153940476Y-98383390D01*
X153940476Y-98383390D02*
X153988095Y-98431009D01*
X153988095Y-98431009D02*
X154083333Y-98478628D01*
X154083333Y-98478628D02*
X154464285Y-98478628D01*
X152940476Y-98954819D02*
X153511904Y-98954819D01*
X153226190Y-98954819D02*
X153226190Y-97954819D01*
X153226190Y-97954819D02*
X153321428Y-98097676D01*
X153321428Y-98097676D02*
X153416666Y-98192914D01*
X153416666Y-98192914D02*
X153511904Y-98240533D01*
X152607142Y-97954819D02*
X151940476Y-97954819D01*
X151940476Y-97954819D02*
X152369047Y-98954819D01*
X145166666Y-77109580D02*
X145214285Y-77157200D01*
X145214285Y-77157200D02*
X145357142Y-77204819D01*
X145357142Y-77204819D02*
X145452380Y-77204819D01*
X145452380Y-77204819D02*
X145595237Y-77157200D01*
X145595237Y-77157200D02*
X145690475Y-77061961D01*
X145690475Y-77061961D02*
X145738094Y-76966723D01*
X145738094Y-76966723D02*
X145785713Y-76776247D01*
X145785713Y-76776247D02*
X145785713Y-76633390D01*
X145785713Y-76633390D02*
X145738094Y-76442914D01*
X145738094Y-76442914D02*
X145690475Y-76347676D01*
X145690475Y-76347676D02*
X145595237Y-76252438D01*
X145595237Y-76252438D02*
X145452380Y-76204819D01*
X145452380Y-76204819D02*
X145357142Y-76204819D01*
X145357142Y-76204819D02*
X145214285Y-76252438D01*
X145214285Y-76252438D02*
X145166666Y-76300057D01*
X144833332Y-76204819D02*
X144214285Y-76204819D01*
X144214285Y-76204819D02*
X144547618Y-76585771D01*
X144547618Y-76585771D02*
X144404761Y-76585771D01*
X144404761Y-76585771D02*
X144309523Y-76633390D01*
X144309523Y-76633390D02*
X144261904Y-76681009D01*
X144261904Y-76681009D02*
X144214285Y-76776247D01*
X144214285Y-76776247D02*
X144214285Y-77014342D01*
X144214285Y-77014342D02*
X144261904Y-77109580D01*
X144261904Y-77109580D02*
X144309523Y-77157200D01*
X144309523Y-77157200D02*
X144404761Y-77204819D01*
X144404761Y-77204819D02*
X144690475Y-77204819D01*
X144690475Y-77204819D02*
X144785713Y-77157200D01*
X144785713Y-77157200D02*
X144833332Y-77109580D01*
X156666666Y-76454819D02*
X156999999Y-75978628D01*
X157238094Y-76454819D02*
X157238094Y-75454819D01*
X157238094Y-75454819D02*
X156857142Y-75454819D01*
X156857142Y-75454819D02*
X156761904Y-75502438D01*
X156761904Y-75502438D02*
X156714285Y-75550057D01*
X156714285Y-75550057D02*
X156666666Y-75645295D01*
X156666666Y-75645295D02*
X156666666Y-75788152D01*
X156666666Y-75788152D02*
X156714285Y-75883390D01*
X156714285Y-75883390D02*
X156761904Y-75931009D01*
X156761904Y-75931009D02*
X156857142Y-75978628D01*
X156857142Y-75978628D02*
X157238094Y-75978628D01*
X156333332Y-75454819D02*
X155714285Y-75454819D01*
X155714285Y-75454819D02*
X156047618Y-75835771D01*
X156047618Y-75835771D02*
X155904761Y-75835771D01*
X155904761Y-75835771D02*
X155809523Y-75883390D01*
X155809523Y-75883390D02*
X155761904Y-75931009D01*
X155761904Y-75931009D02*
X155714285Y-76026247D01*
X155714285Y-76026247D02*
X155714285Y-76264342D01*
X155714285Y-76264342D02*
X155761904Y-76359580D01*
X155761904Y-76359580D02*
X155809523Y-76407200D01*
X155809523Y-76407200D02*
X155904761Y-76454819D01*
X155904761Y-76454819D02*
X156190475Y-76454819D01*
X156190475Y-76454819D02*
X156285713Y-76407200D01*
X156285713Y-76407200D02*
X156333332Y-76359580D01*
X135454819Y-91761905D02*
X134454819Y-91761905D01*
X134454819Y-91761905D02*
X134454819Y-92000000D01*
X134454819Y-92000000D02*
X134502438Y-92142857D01*
X134502438Y-92142857D02*
X134597676Y-92238095D01*
X134597676Y-92238095D02*
X134692914Y-92285714D01*
X134692914Y-92285714D02*
X134883390Y-92333333D01*
X134883390Y-92333333D02*
X135026247Y-92333333D01*
X135026247Y-92333333D02*
X135216723Y-92285714D01*
X135216723Y-92285714D02*
X135311961Y-92238095D01*
X135311961Y-92238095D02*
X135407200Y-92142857D01*
X135407200Y-92142857D02*
X135454819Y-92000000D01*
X135454819Y-92000000D02*
X135454819Y-91761905D01*
X135454819Y-93285714D02*
X135454819Y-92714286D01*
X135454819Y-93000000D02*
X134454819Y-93000000D01*
X134454819Y-93000000D02*
X134597676Y-92904762D01*
X134597676Y-92904762D02*
X134692914Y-92809524D01*
X134692914Y-92809524D02*
X134740533Y-92714286D01*
X148859580Y-108107142D02*
X148907200Y-108059523D01*
X148907200Y-108059523D02*
X148954819Y-107916666D01*
X148954819Y-107916666D02*
X148954819Y-107821428D01*
X148954819Y-107821428D02*
X148907200Y-107678571D01*
X148907200Y-107678571D02*
X148811961Y-107583333D01*
X148811961Y-107583333D02*
X148716723Y-107535714D01*
X148716723Y-107535714D02*
X148526247Y-107488095D01*
X148526247Y-107488095D02*
X148383390Y-107488095D01*
X148383390Y-107488095D02*
X148192914Y-107535714D01*
X148192914Y-107535714D02*
X148097676Y-107583333D01*
X148097676Y-107583333D02*
X148002438Y-107678571D01*
X148002438Y-107678571D02*
X147954819Y-107821428D01*
X147954819Y-107821428D02*
X147954819Y-107916666D01*
X147954819Y-107916666D02*
X148002438Y-108059523D01*
X148002438Y-108059523D02*
X148050057Y-108107142D01*
X148954819Y-109059523D02*
X148954819Y-108488095D01*
X148954819Y-108773809D02*
X147954819Y-108773809D01*
X147954819Y-108773809D02*
X148097676Y-108678571D01*
X148097676Y-108678571D02*
X148192914Y-108583333D01*
X148192914Y-108583333D02*
X148240533Y-108488095D01*
X147954819Y-109392857D02*
X147954819Y-110011904D01*
X147954819Y-110011904D02*
X148335771Y-109678571D01*
X148335771Y-109678571D02*
X148335771Y-109821428D01*
X148335771Y-109821428D02*
X148383390Y-109916666D01*
X148383390Y-109916666D02*
X148431009Y-109964285D01*
X148431009Y-109964285D02*
X148526247Y-110011904D01*
X148526247Y-110011904D02*
X148764342Y-110011904D01*
X148764342Y-110011904D02*
X148859580Y-109964285D01*
X148859580Y-109964285D02*
X148907200Y-109916666D01*
X148907200Y-109916666D02*
X148954819Y-109821428D01*
X148954819Y-109821428D02*
X148954819Y-109535714D01*
X148954819Y-109535714D02*
X148907200Y-109440476D01*
X148907200Y-109440476D02*
X148859580Y-109392857D01*
X169454819Y-102761905D02*
X168454819Y-102761905D01*
X168454819Y-102761905D02*
X168454819Y-103000000D01*
X168454819Y-103000000D02*
X168502438Y-103142857D01*
X168502438Y-103142857D02*
X168597676Y-103238095D01*
X168597676Y-103238095D02*
X168692914Y-103285714D01*
X168692914Y-103285714D02*
X168883390Y-103333333D01*
X168883390Y-103333333D02*
X169026247Y-103333333D01*
X169026247Y-103333333D02*
X169216723Y-103285714D01*
X169216723Y-103285714D02*
X169311961Y-103238095D01*
X169311961Y-103238095D02*
X169407200Y-103142857D01*
X169407200Y-103142857D02*
X169454819Y-103000000D01*
X169454819Y-103000000D02*
X169454819Y-102761905D01*
X168454819Y-104190476D02*
X168454819Y-104000000D01*
X168454819Y-104000000D02*
X168502438Y-103904762D01*
X168502438Y-103904762D02*
X168550057Y-103857143D01*
X168550057Y-103857143D02*
X168692914Y-103761905D01*
X168692914Y-103761905D02*
X168883390Y-103714286D01*
X168883390Y-103714286D02*
X169264342Y-103714286D01*
X169264342Y-103714286D02*
X169359580Y-103761905D01*
X169359580Y-103761905D02*
X169407200Y-103809524D01*
X169407200Y-103809524D02*
X169454819Y-103904762D01*
X169454819Y-103904762D02*
X169454819Y-104095238D01*
X169454819Y-104095238D02*
X169407200Y-104190476D01*
X169407200Y-104190476D02*
X169359580Y-104238095D01*
X169359580Y-104238095D02*
X169264342Y-104285714D01*
X169264342Y-104285714D02*
X169026247Y-104285714D01*
X169026247Y-104285714D02*
X168931009Y-104238095D01*
X168931009Y-104238095D02*
X168883390Y-104190476D01*
X168883390Y-104190476D02*
X168835771Y-104095238D01*
X168835771Y-104095238D02*
X168835771Y-103904762D01*
X168835771Y-103904762D02*
X168883390Y-103809524D01*
X168883390Y-103809524D02*
X168931009Y-103761905D01*
X168931009Y-103761905D02*
X169026247Y-103714286D01*
X128666666Y-88859580D02*
X128714285Y-88907200D01*
X128714285Y-88907200D02*
X128857142Y-88954819D01*
X128857142Y-88954819D02*
X128952380Y-88954819D01*
X128952380Y-88954819D02*
X129095237Y-88907200D01*
X129095237Y-88907200D02*
X129190475Y-88811961D01*
X129190475Y-88811961D02*
X129238094Y-88716723D01*
X129238094Y-88716723D02*
X129285713Y-88526247D01*
X129285713Y-88526247D02*
X129285713Y-88383390D01*
X129285713Y-88383390D02*
X129238094Y-88192914D01*
X129238094Y-88192914D02*
X129190475Y-88097676D01*
X129190475Y-88097676D02*
X129095237Y-88002438D01*
X129095237Y-88002438D02*
X128952380Y-87954819D01*
X128952380Y-87954819D02*
X128857142Y-87954819D01*
X128857142Y-87954819D02*
X128714285Y-88002438D01*
X128714285Y-88002438D02*
X128666666Y-88050057D01*
X127809523Y-87954819D02*
X127999999Y-87954819D01*
X127999999Y-87954819D02*
X128095237Y-88002438D01*
X128095237Y-88002438D02*
X128142856Y-88050057D01*
X128142856Y-88050057D02*
X128238094Y-88192914D01*
X128238094Y-88192914D02*
X128285713Y-88383390D01*
X128285713Y-88383390D02*
X128285713Y-88764342D01*
X128285713Y-88764342D02*
X128238094Y-88859580D01*
X128238094Y-88859580D02*
X128190475Y-88907200D01*
X128190475Y-88907200D02*
X128095237Y-88954819D01*
X128095237Y-88954819D02*
X127904761Y-88954819D01*
X127904761Y-88954819D02*
X127809523Y-88907200D01*
X127809523Y-88907200D02*
X127761904Y-88859580D01*
X127761904Y-88859580D02*
X127714285Y-88764342D01*
X127714285Y-88764342D02*
X127714285Y-88526247D01*
X127714285Y-88526247D02*
X127761904Y-88431009D01*
X127761904Y-88431009D02*
X127809523Y-88383390D01*
X127809523Y-88383390D02*
X127904761Y-88335771D01*
X127904761Y-88335771D02*
X128095237Y-88335771D01*
X128095237Y-88335771D02*
X128190475Y-88383390D01*
X128190475Y-88383390D02*
X128238094Y-88431009D01*
X128238094Y-88431009D02*
X128285713Y-88526247D01*
X144454819Y-100857142D02*
X143978628Y-100523809D01*
X144454819Y-100285714D02*
X143454819Y-100285714D01*
X143454819Y-100285714D02*
X143454819Y-100666666D01*
X143454819Y-100666666D02*
X143502438Y-100761904D01*
X143502438Y-100761904D02*
X143550057Y-100809523D01*
X143550057Y-100809523D02*
X143645295Y-100857142D01*
X143645295Y-100857142D02*
X143788152Y-100857142D01*
X143788152Y-100857142D02*
X143883390Y-100809523D01*
X143883390Y-100809523D02*
X143931009Y-100761904D01*
X143931009Y-100761904D02*
X143978628Y-100666666D01*
X143978628Y-100666666D02*
X143978628Y-100285714D01*
X144454819Y-101809523D02*
X144454819Y-101238095D01*
X144454819Y-101523809D02*
X143454819Y-101523809D01*
X143454819Y-101523809D02*
X143597676Y-101428571D01*
X143597676Y-101428571D02*
X143692914Y-101333333D01*
X143692914Y-101333333D02*
X143740533Y-101238095D01*
X143454819Y-102142857D02*
X143454819Y-102761904D01*
X143454819Y-102761904D02*
X143835771Y-102428571D01*
X143835771Y-102428571D02*
X143835771Y-102571428D01*
X143835771Y-102571428D02*
X143883390Y-102666666D01*
X143883390Y-102666666D02*
X143931009Y-102714285D01*
X143931009Y-102714285D02*
X144026247Y-102761904D01*
X144026247Y-102761904D02*
X144264342Y-102761904D01*
X144264342Y-102761904D02*
X144359580Y-102714285D01*
X144359580Y-102714285D02*
X144407200Y-102666666D01*
X144407200Y-102666666D02*
X144454819Y-102571428D01*
X144454819Y-102571428D02*
X144454819Y-102285714D01*
X144454819Y-102285714D02*
X144407200Y-102190476D01*
X144407200Y-102190476D02*
X144359580Y-102142857D01*
X143204819Y-107357142D02*
X142728628Y-107023809D01*
X143204819Y-106785714D02*
X142204819Y-106785714D01*
X142204819Y-106785714D02*
X142204819Y-107166666D01*
X142204819Y-107166666D02*
X142252438Y-107261904D01*
X142252438Y-107261904D02*
X142300057Y-107309523D01*
X142300057Y-107309523D02*
X142395295Y-107357142D01*
X142395295Y-107357142D02*
X142538152Y-107357142D01*
X142538152Y-107357142D02*
X142633390Y-107309523D01*
X142633390Y-107309523D02*
X142681009Y-107261904D01*
X142681009Y-107261904D02*
X142728628Y-107166666D01*
X142728628Y-107166666D02*
X142728628Y-106785714D01*
X143204819Y-108309523D02*
X143204819Y-107738095D01*
X143204819Y-108023809D02*
X142204819Y-108023809D01*
X142204819Y-108023809D02*
X142347676Y-107928571D01*
X142347676Y-107928571D02*
X142442914Y-107833333D01*
X142442914Y-107833333D02*
X142490533Y-107738095D01*
X142538152Y-109166666D02*
X143204819Y-109166666D01*
X142157200Y-108928571D02*
X142871485Y-108690476D01*
X142871485Y-108690476D02*
X142871485Y-109309523D01*
X160175238Y-93632657D02*
X160270476Y-93585038D01*
X160270476Y-93585038D02*
X160365714Y-93489800D01*
X160365714Y-93489800D02*
X160508571Y-93346942D01*
X160508571Y-93346942D02*
X160603809Y-93299323D01*
X160603809Y-93299323D02*
X160699047Y-93299323D01*
X160651428Y-93537419D02*
X160746666Y-93489800D01*
X160746666Y-93489800D02*
X160841904Y-93394561D01*
X160841904Y-93394561D02*
X160889523Y-93204085D01*
X160889523Y-93204085D02*
X160889523Y-92870752D01*
X160889523Y-92870752D02*
X160841904Y-92680276D01*
X160841904Y-92680276D02*
X160746666Y-92585038D01*
X160746666Y-92585038D02*
X160651428Y-92537419D01*
X160651428Y-92537419D02*
X160460952Y-92537419D01*
X160460952Y-92537419D02*
X160365714Y-92585038D01*
X160365714Y-92585038D02*
X160270476Y-92680276D01*
X160270476Y-92680276D02*
X160222857Y-92870752D01*
X160222857Y-92870752D02*
X160222857Y-93204085D01*
X160222857Y-93204085D02*
X160270476Y-93394561D01*
X160270476Y-93394561D02*
X160365714Y-93489800D01*
X160365714Y-93489800D02*
X160460952Y-93537419D01*
X160460952Y-93537419D02*
X160651428Y-93537419D01*
X159365714Y-92870752D02*
X159365714Y-93537419D01*
X159603809Y-92489800D02*
X159841904Y-93204085D01*
X159841904Y-93204085D02*
X159222857Y-93204085D01*
X131416666Y-79359580D02*
X131464285Y-79407200D01*
X131464285Y-79407200D02*
X131607142Y-79454819D01*
X131607142Y-79454819D02*
X131702380Y-79454819D01*
X131702380Y-79454819D02*
X131845237Y-79407200D01*
X131845237Y-79407200D02*
X131940475Y-79311961D01*
X131940475Y-79311961D02*
X131988094Y-79216723D01*
X131988094Y-79216723D02*
X132035713Y-79026247D01*
X132035713Y-79026247D02*
X132035713Y-78883390D01*
X132035713Y-78883390D02*
X131988094Y-78692914D01*
X131988094Y-78692914D02*
X131940475Y-78597676D01*
X131940475Y-78597676D02*
X131845237Y-78502438D01*
X131845237Y-78502438D02*
X131702380Y-78454819D01*
X131702380Y-78454819D02*
X131607142Y-78454819D01*
X131607142Y-78454819D02*
X131464285Y-78502438D01*
X131464285Y-78502438D02*
X131416666Y-78550057D01*
X130940475Y-79454819D02*
X130749999Y-79454819D01*
X130749999Y-79454819D02*
X130654761Y-79407200D01*
X130654761Y-79407200D02*
X130607142Y-79359580D01*
X130607142Y-79359580D02*
X130511904Y-79216723D01*
X130511904Y-79216723D02*
X130464285Y-79026247D01*
X130464285Y-79026247D02*
X130464285Y-78645295D01*
X130464285Y-78645295D02*
X130511904Y-78550057D01*
X130511904Y-78550057D02*
X130559523Y-78502438D01*
X130559523Y-78502438D02*
X130654761Y-78454819D01*
X130654761Y-78454819D02*
X130845237Y-78454819D01*
X130845237Y-78454819D02*
X130940475Y-78502438D01*
X130940475Y-78502438D02*
X130988094Y-78550057D01*
X130988094Y-78550057D02*
X131035713Y-78645295D01*
X131035713Y-78645295D02*
X131035713Y-78883390D01*
X131035713Y-78883390D02*
X130988094Y-78978628D01*
X130988094Y-78978628D02*
X130940475Y-79026247D01*
X130940475Y-79026247D02*
X130845237Y-79073866D01*
X130845237Y-79073866D02*
X130654761Y-79073866D01*
X130654761Y-79073866D02*
X130559523Y-79026247D01*
X130559523Y-79026247D02*
X130511904Y-78978628D01*
X130511904Y-78978628D02*
X130464285Y-78883390D01*
X129704819Y-97333333D02*
X129228628Y-97000000D01*
X129704819Y-96761905D02*
X128704819Y-96761905D01*
X128704819Y-96761905D02*
X128704819Y-97142857D01*
X128704819Y-97142857D02*
X128752438Y-97238095D01*
X128752438Y-97238095D02*
X128800057Y-97285714D01*
X128800057Y-97285714D02*
X128895295Y-97333333D01*
X128895295Y-97333333D02*
X129038152Y-97333333D01*
X129038152Y-97333333D02*
X129133390Y-97285714D01*
X129133390Y-97285714D02*
X129181009Y-97238095D01*
X129181009Y-97238095D02*
X129228628Y-97142857D01*
X129228628Y-97142857D02*
X129228628Y-96761905D01*
X128800057Y-97714286D02*
X128752438Y-97761905D01*
X128752438Y-97761905D02*
X128704819Y-97857143D01*
X128704819Y-97857143D02*
X128704819Y-98095238D01*
X128704819Y-98095238D02*
X128752438Y-98190476D01*
X128752438Y-98190476D02*
X128800057Y-98238095D01*
X128800057Y-98238095D02*
X128895295Y-98285714D01*
X128895295Y-98285714D02*
X128990533Y-98285714D01*
X128990533Y-98285714D02*
X129133390Y-98238095D01*
X129133390Y-98238095D02*
X129704819Y-97666667D01*
X129704819Y-97666667D02*
X129704819Y-98285714D01*
X135954819Y-77833333D02*
X135478628Y-77500000D01*
X135954819Y-77261905D02*
X134954819Y-77261905D01*
X134954819Y-77261905D02*
X134954819Y-77642857D01*
X134954819Y-77642857D02*
X135002438Y-77738095D01*
X135002438Y-77738095D02*
X135050057Y-77785714D01*
X135050057Y-77785714D02*
X135145295Y-77833333D01*
X135145295Y-77833333D02*
X135288152Y-77833333D01*
X135288152Y-77833333D02*
X135383390Y-77785714D01*
X135383390Y-77785714D02*
X135431009Y-77738095D01*
X135431009Y-77738095D02*
X135478628Y-77642857D01*
X135478628Y-77642857D02*
X135478628Y-77261905D01*
X134954819Y-78738095D02*
X134954819Y-78261905D01*
X134954819Y-78261905D02*
X135431009Y-78214286D01*
X135431009Y-78214286D02*
X135383390Y-78261905D01*
X135383390Y-78261905D02*
X135335771Y-78357143D01*
X135335771Y-78357143D02*
X135335771Y-78595238D01*
X135335771Y-78595238D02*
X135383390Y-78690476D01*
X135383390Y-78690476D02*
X135431009Y-78738095D01*
X135431009Y-78738095D02*
X135526247Y-78785714D01*
X135526247Y-78785714D02*
X135764342Y-78785714D01*
X135764342Y-78785714D02*
X135859580Y-78738095D01*
X135859580Y-78738095D02*
X135907200Y-78690476D01*
X135907200Y-78690476D02*
X135954819Y-78595238D01*
X135954819Y-78595238D02*
X135954819Y-78357143D01*
X135954819Y-78357143D02*
X135907200Y-78261905D01*
X135907200Y-78261905D02*
X135859580Y-78214286D01*
X145142857Y-97704819D02*
X145476190Y-97228628D01*
X145714285Y-97704819D02*
X145714285Y-96704819D01*
X145714285Y-96704819D02*
X145333333Y-96704819D01*
X145333333Y-96704819D02*
X145238095Y-96752438D01*
X145238095Y-96752438D02*
X145190476Y-96800057D01*
X145190476Y-96800057D02*
X145142857Y-96895295D01*
X145142857Y-96895295D02*
X145142857Y-97038152D01*
X145142857Y-97038152D02*
X145190476Y-97133390D01*
X145190476Y-97133390D02*
X145238095Y-97181009D01*
X145238095Y-97181009D02*
X145333333Y-97228628D01*
X145333333Y-97228628D02*
X145714285Y-97228628D01*
X144190476Y-97704819D02*
X144761904Y-97704819D01*
X144476190Y-97704819D02*
X144476190Y-96704819D01*
X144476190Y-96704819D02*
X144571428Y-96847676D01*
X144571428Y-96847676D02*
X144666666Y-96942914D01*
X144666666Y-96942914D02*
X144761904Y-96990533D01*
X143571428Y-96704819D02*
X143476190Y-96704819D01*
X143476190Y-96704819D02*
X143380952Y-96752438D01*
X143380952Y-96752438D02*
X143333333Y-96800057D01*
X143333333Y-96800057D02*
X143285714Y-96895295D01*
X143285714Y-96895295D02*
X143238095Y-97085771D01*
X143238095Y-97085771D02*
X143238095Y-97323866D01*
X143238095Y-97323866D02*
X143285714Y-97514342D01*
X143285714Y-97514342D02*
X143333333Y-97609580D01*
X143333333Y-97609580D02*
X143380952Y-97657200D01*
X143380952Y-97657200D02*
X143476190Y-97704819D01*
X143476190Y-97704819D02*
X143571428Y-97704819D01*
X143571428Y-97704819D02*
X143666666Y-97657200D01*
X143666666Y-97657200D02*
X143714285Y-97609580D01*
X143714285Y-97609580D02*
X143761904Y-97514342D01*
X143761904Y-97514342D02*
X143809523Y-97323866D01*
X143809523Y-97323866D02*
X143809523Y-97085771D01*
X143809523Y-97085771D02*
X143761904Y-96895295D01*
X143761904Y-96895295D02*
X143714285Y-96800057D01*
X143714285Y-96800057D02*
X143666666Y-96752438D01*
X143666666Y-96752438D02*
X143571428Y-96704819D01*
X156642857Y-93704819D02*
X156976190Y-93228628D01*
X157214285Y-93704819D02*
X157214285Y-92704819D01*
X157214285Y-92704819D02*
X156833333Y-92704819D01*
X156833333Y-92704819D02*
X156738095Y-92752438D01*
X156738095Y-92752438D02*
X156690476Y-92800057D01*
X156690476Y-92800057D02*
X156642857Y-92895295D01*
X156642857Y-92895295D02*
X156642857Y-93038152D01*
X156642857Y-93038152D02*
X156690476Y-93133390D01*
X156690476Y-93133390D02*
X156738095Y-93181009D01*
X156738095Y-93181009D02*
X156833333Y-93228628D01*
X156833333Y-93228628D02*
X157214285Y-93228628D01*
X156261904Y-92800057D02*
X156214285Y-92752438D01*
X156214285Y-92752438D02*
X156119047Y-92704819D01*
X156119047Y-92704819D02*
X155880952Y-92704819D01*
X155880952Y-92704819D02*
X155785714Y-92752438D01*
X155785714Y-92752438D02*
X155738095Y-92800057D01*
X155738095Y-92800057D02*
X155690476Y-92895295D01*
X155690476Y-92895295D02*
X155690476Y-92990533D01*
X155690476Y-92990533D02*
X155738095Y-93133390D01*
X155738095Y-93133390D02*
X156309523Y-93704819D01*
X156309523Y-93704819D02*
X155690476Y-93704819D01*
X155071428Y-92704819D02*
X154976190Y-92704819D01*
X154976190Y-92704819D02*
X154880952Y-92752438D01*
X154880952Y-92752438D02*
X154833333Y-92800057D01*
X154833333Y-92800057D02*
X154785714Y-92895295D01*
X154785714Y-92895295D02*
X154738095Y-93085771D01*
X154738095Y-93085771D02*
X154738095Y-93323866D01*
X154738095Y-93323866D02*
X154785714Y-93514342D01*
X154785714Y-93514342D02*
X154833333Y-93609580D01*
X154833333Y-93609580D02*
X154880952Y-93657200D01*
X154880952Y-93657200D02*
X154976190Y-93704819D01*
X154976190Y-93704819D02*
X155071428Y-93704819D01*
X155071428Y-93704819D02*
X155166666Y-93657200D01*
X155166666Y-93657200D02*
X155214285Y-93609580D01*
X155214285Y-93609580D02*
X155261904Y-93514342D01*
X155261904Y-93514342D02*
X155309523Y-93323866D01*
X155309523Y-93323866D02*
X155309523Y-93085771D01*
X155309523Y-93085771D02*
X155261904Y-92895295D01*
X155261904Y-92895295D02*
X155214285Y-92800057D01*
X155214285Y-92800057D02*
X155166666Y-92752438D01*
X155166666Y-92752438D02*
X155071428Y-92704819D01*
X169454819Y-91511905D02*
X168454819Y-91511905D01*
X168454819Y-91511905D02*
X168454819Y-91750000D01*
X168454819Y-91750000D02*
X168502438Y-91892857D01*
X168502438Y-91892857D02*
X168597676Y-91988095D01*
X168597676Y-91988095D02*
X168692914Y-92035714D01*
X168692914Y-92035714D02*
X168883390Y-92083333D01*
X168883390Y-92083333D02*
X169026247Y-92083333D01*
X169026247Y-92083333D02*
X169216723Y-92035714D01*
X169216723Y-92035714D02*
X169311961Y-91988095D01*
X169311961Y-91988095D02*
X169407200Y-91892857D01*
X169407200Y-91892857D02*
X169454819Y-91750000D01*
X169454819Y-91750000D02*
X169454819Y-91511905D01*
X168883390Y-92654762D02*
X168835771Y-92559524D01*
X168835771Y-92559524D02*
X168788152Y-92511905D01*
X168788152Y-92511905D02*
X168692914Y-92464286D01*
X168692914Y-92464286D02*
X168645295Y-92464286D01*
X168645295Y-92464286D02*
X168550057Y-92511905D01*
X168550057Y-92511905D02*
X168502438Y-92559524D01*
X168502438Y-92559524D02*
X168454819Y-92654762D01*
X168454819Y-92654762D02*
X168454819Y-92845238D01*
X168454819Y-92845238D02*
X168502438Y-92940476D01*
X168502438Y-92940476D02*
X168550057Y-92988095D01*
X168550057Y-92988095D02*
X168645295Y-93035714D01*
X168645295Y-93035714D02*
X168692914Y-93035714D01*
X168692914Y-93035714D02*
X168788152Y-92988095D01*
X168788152Y-92988095D02*
X168835771Y-92940476D01*
X168835771Y-92940476D02*
X168883390Y-92845238D01*
X168883390Y-92845238D02*
X168883390Y-92654762D01*
X168883390Y-92654762D02*
X168931009Y-92559524D01*
X168931009Y-92559524D02*
X168978628Y-92511905D01*
X168978628Y-92511905D02*
X169073866Y-92464286D01*
X169073866Y-92464286D02*
X169264342Y-92464286D01*
X169264342Y-92464286D02*
X169359580Y-92511905D01*
X169359580Y-92511905D02*
X169407200Y-92559524D01*
X169407200Y-92559524D02*
X169454819Y-92654762D01*
X169454819Y-92654762D02*
X169454819Y-92845238D01*
X169454819Y-92845238D02*
X169407200Y-92940476D01*
X169407200Y-92940476D02*
X169359580Y-92988095D01*
X169359580Y-92988095D02*
X169264342Y-93035714D01*
X169264342Y-93035714D02*
X169073866Y-93035714D01*
X169073866Y-93035714D02*
X168978628Y-92988095D01*
X168978628Y-92988095D02*
X168931009Y-92940476D01*
X168931009Y-92940476D02*
X168883390Y-92845238D01*
X165774666Y-76359580D02*
X165822285Y-76407200D01*
X165822285Y-76407200D02*
X165965142Y-76454819D01*
X165965142Y-76454819D02*
X166060380Y-76454819D01*
X166060380Y-76454819D02*
X166203237Y-76407200D01*
X166203237Y-76407200D02*
X166298475Y-76311961D01*
X166298475Y-76311961D02*
X166346094Y-76216723D01*
X166346094Y-76216723D02*
X166393713Y-76026247D01*
X166393713Y-76026247D02*
X166393713Y-75883390D01*
X166393713Y-75883390D02*
X166346094Y-75692914D01*
X166346094Y-75692914D02*
X166298475Y-75597676D01*
X166298475Y-75597676D02*
X166203237Y-75502438D01*
X166203237Y-75502438D02*
X166060380Y-75454819D01*
X166060380Y-75454819D02*
X165965142Y-75454819D01*
X165965142Y-75454819D02*
X165822285Y-75502438D01*
X165822285Y-75502438D02*
X165774666Y-75550057D01*
X164917523Y-75788152D02*
X164917523Y-76454819D01*
X165155618Y-75407200D02*
X165393713Y-76121485D01*
X165393713Y-76121485D02*
X164774666Y-76121485D01*
X135704819Y-106857142D02*
X135228628Y-106523809D01*
X135704819Y-106285714D02*
X134704819Y-106285714D01*
X134704819Y-106285714D02*
X134704819Y-106666666D01*
X134704819Y-106666666D02*
X134752438Y-106761904D01*
X134752438Y-106761904D02*
X134800057Y-106809523D01*
X134800057Y-106809523D02*
X134895295Y-106857142D01*
X134895295Y-106857142D02*
X135038152Y-106857142D01*
X135038152Y-106857142D02*
X135133390Y-106809523D01*
X135133390Y-106809523D02*
X135181009Y-106761904D01*
X135181009Y-106761904D02*
X135228628Y-106666666D01*
X135228628Y-106666666D02*
X135228628Y-106285714D01*
X135704819Y-107809523D02*
X135704819Y-107238095D01*
X135704819Y-107523809D02*
X134704819Y-107523809D01*
X134704819Y-107523809D02*
X134847676Y-107428571D01*
X134847676Y-107428571D02*
X134942914Y-107333333D01*
X134942914Y-107333333D02*
X134990533Y-107238095D01*
X134800057Y-108190476D02*
X134752438Y-108238095D01*
X134752438Y-108238095D02*
X134704819Y-108333333D01*
X134704819Y-108333333D02*
X134704819Y-108571428D01*
X134704819Y-108571428D02*
X134752438Y-108666666D01*
X134752438Y-108666666D02*
X134800057Y-108714285D01*
X134800057Y-108714285D02*
X134895295Y-108761904D01*
X134895295Y-108761904D02*
X134990533Y-108761904D01*
X134990533Y-108761904D02*
X135133390Y-108714285D01*
X135133390Y-108714285D02*
X135704819Y-108142857D01*
X135704819Y-108142857D02*
X135704819Y-108761904D01*
X156892857Y-104094819D02*
X157226190Y-103618628D01*
X157464285Y-104094819D02*
X157464285Y-103094819D01*
X157464285Y-103094819D02*
X157083333Y-103094819D01*
X157083333Y-103094819D02*
X156988095Y-103142438D01*
X156988095Y-103142438D02*
X156940476Y-103190057D01*
X156940476Y-103190057D02*
X156892857Y-103285295D01*
X156892857Y-103285295D02*
X156892857Y-103428152D01*
X156892857Y-103428152D02*
X156940476Y-103523390D01*
X156940476Y-103523390D02*
X156988095Y-103571009D01*
X156988095Y-103571009D02*
X157083333Y-103618628D01*
X157083333Y-103618628D02*
X157464285Y-103618628D01*
X155940476Y-104094819D02*
X156511904Y-104094819D01*
X156226190Y-104094819D02*
X156226190Y-103094819D01*
X156226190Y-103094819D02*
X156321428Y-103237676D01*
X156321428Y-103237676D02*
X156416666Y-103332914D01*
X156416666Y-103332914D02*
X156511904Y-103380533D01*
X155083333Y-103094819D02*
X155273809Y-103094819D01*
X155273809Y-103094819D02*
X155369047Y-103142438D01*
X155369047Y-103142438D02*
X155416666Y-103190057D01*
X155416666Y-103190057D02*
X155511904Y-103332914D01*
X155511904Y-103332914D02*
X155559523Y-103523390D01*
X155559523Y-103523390D02*
X155559523Y-103904342D01*
X155559523Y-103904342D02*
X155511904Y-103999580D01*
X155511904Y-103999580D02*
X155464285Y-104047200D01*
X155464285Y-104047200D02*
X155369047Y-104094819D01*
X155369047Y-104094819D02*
X155178571Y-104094819D01*
X155178571Y-104094819D02*
X155083333Y-104047200D01*
X155083333Y-104047200D02*
X155035714Y-103999580D01*
X155035714Y-103999580D02*
X154988095Y-103904342D01*
X154988095Y-103904342D02*
X154988095Y-103666247D01*
X154988095Y-103666247D02*
X155035714Y-103571009D01*
X155035714Y-103571009D02*
X155083333Y-103523390D01*
X155083333Y-103523390D02*
X155178571Y-103475771D01*
X155178571Y-103475771D02*
X155369047Y-103475771D01*
X155369047Y-103475771D02*
X155464285Y-103523390D01*
X155464285Y-103523390D02*
X155511904Y-103571009D01*
X155511904Y-103571009D02*
X155559523Y-103666247D01*
X130454795Y-102333293D02*
X129978604Y-101999960D01*
X130454795Y-101761865D02*
X129454795Y-101761865D01*
X129454795Y-101761865D02*
X129454795Y-102142817D01*
X129454795Y-102142817D02*
X129502414Y-102238055D01*
X129502414Y-102238055D02*
X129550033Y-102285674D01*
X129550033Y-102285674D02*
X129645271Y-102333293D01*
X129645271Y-102333293D02*
X129788128Y-102333293D01*
X129788128Y-102333293D02*
X129883366Y-102285674D01*
X129883366Y-102285674D02*
X129930985Y-102238055D01*
X129930985Y-102238055D02*
X129978604Y-102142817D01*
X129978604Y-102142817D02*
X129978604Y-101761865D01*
X129454795Y-103190436D02*
X129454795Y-102999960D01*
X129454795Y-102999960D02*
X129502414Y-102904722D01*
X129502414Y-102904722D02*
X129550033Y-102857103D01*
X129550033Y-102857103D02*
X129692890Y-102761865D01*
X129692890Y-102761865D02*
X129883366Y-102714246D01*
X129883366Y-102714246D02*
X130264318Y-102714246D01*
X130264318Y-102714246D02*
X130359556Y-102761865D01*
X130359556Y-102761865D02*
X130407176Y-102809484D01*
X130407176Y-102809484D02*
X130454795Y-102904722D01*
X130454795Y-102904722D02*
X130454795Y-103095198D01*
X130454795Y-103095198D02*
X130407176Y-103190436D01*
X130407176Y-103190436D02*
X130359556Y-103238055D01*
X130359556Y-103238055D02*
X130264318Y-103285674D01*
X130264318Y-103285674D02*
X130026223Y-103285674D01*
X130026223Y-103285674D02*
X129930985Y-103238055D01*
X129930985Y-103238055D02*
X129883366Y-103190436D01*
X129883366Y-103190436D02*
X129835747Y-103095198D01*
X129835747Y-103095198D02*
X129835747Y-102904722D01*
X129835747Y-102904722D02*
X129883366Y-102809484D01*
X129883366Y-102809484D02*
X129930985Y-102761865D01*
X129930985Y-102761865D02*
X130026223Y-102714246D01*
X131416666Y-88859580D02*
X131464285Y-88907200D01*
X131464285Y-88907200D02*
X131607142Y-88954819D01*
X131607142Y-88954819D02*
X131702380Y-88954819D01*
X131702380Y-88954819D02*
X131845237Y-88907200D01*
X131845237Y-88907200D02*
X131940475Y-88811961D01*
X131940475Y-88811961D02*
X131988094Y-88716723D01*
X131988094Y-88716723D02*
X132035713Y-88526247D01*
X132035713Y-88526247D02*
X132035713Y-88383390D01*
X132035713Y-88383390D02*
X131988094Y-88192914D01*
X131988094Y-88192914D02*
X131940475Y-88097676D01*
X131940475Y-88097676D02*
X131845237Y-88002438D01*
X131845237Y-88002438D02*
X131702380Y-87954819D01*
X131702380Y-87954819D02*
X131607142Y-87954819D01*
X131607142Y-87954819D02*
X131464285Y-88002438D01*
X131464285Y-88002438D02*
X131416666Y-88050057D01*
X131083332Y-87954819D02*
X130416666Y-87954819D01*
X130416666Y-87954819D02*
X130845237Y-88954819D01*
X138609580Y-112857142D02*
X138657200Y-112809523D01*
X138657200Y-112809523D02*
X138704819Y-112666666D01*
X138704819Y-112666666D02*
X138704819Y-112571428D01*
X138704819Y-112571428D02*
X138657200Y-112428571D01*
X138657200Y-112428571D02*
X138561961Y-112333333D01*
X138561961Y-112333333D02*
X138466723Y-112285714D01*
X138466723Y-112285714D02*
X138276247Y-112238095D01*
X138276247Y-112238095D02*
X138133390Y-112238095D01*
X138133390Y-112238095D02*
X137942914Y-112285714D01*
X137942914Y-112285714D02*
X137847676Y-112333333D01*
X137847676Y-112333333D02*
X137752438Y-112428571D01*
X137752438Y-112428571D02*
X137704819Y-112571428D01*
X137704819Y-112571428D02*
X137704819Y-112666666D01*
X137704819Y-112666666D02*
X137752438Y-112809523D01*
X137752438Y-112809523D02*
X137800057Y-112857142D01*
X138704819Y-113809523D02*
X138704819Y-113238095D01*
X138704819Y-113523809D02*
X137704819Y-113523809D01*
X137704819Y-113523809D02*
X137847676Y-113428571D01*
X137847676Y-113428571D02*
X137942914Y-113333333D01*
X137942914Y-113333333D02*
X137990533Y-113238095D01*
X137800057Y-114190476D02*
X137752438Y-114238095D01*
X137752438Y-114238095D02*
X137704819Y-114333333D01*
X137704819Y-114333333D02*
X137704819Y-114571428D01*
X137704819Y-114571428D02*
X137752438Y-114666666D01*
X137752438Y-114666666D02*
X137800057Y-114714285D01*
X137800057Y-114714285D02*
X137895295Y-114761904D01*
X137895295Y-114761904D02*
X137990533Y-114761904D01*
X137990533Y-114761904D02*
X138133390Y-114714285D01*
X138133390Y-114714285D02*
X138704819Y-114142857D01*
X138704819Y-114142857D02*
X138704819Y-114761904D01*
X146375594Y-104604819D02*
X146375594Y-103604819D01*
X146375594Y-103604819D02*
X146137499Y-103604819D01*
X146137499Y-103604819D02*
X145994642Y-103652438D01*
X145994642Y-103652438D02*
X145899404Y-103747676D01*
X145899404Y-103747676D02*
X145851785Y-103842914D01*
X145851785Y-103842914D02*
X145804166Y-104033390D01*
X145804166Y-104033390D02*
X145804166Y-104176247D01*
X145804166Y-104176247D02*
X145851785Y-104366723D01*
X145851785Y-104366723D02*
X145899404Y-104461961D01*
X145899404Y-104461961D02*
X145994642Y-104557200D01*
X145994642Y-104557200D02*
X146137499Y-104604819D01*
X146137499Y-104604819D02*
X146375594Y-104604819D01*
X144899404Y-103604819D02*
X145375594Y-103604819D01*
X145375594Y-103604819D02*
X145423213Y-104081009D01*
X145423213Y-104081009D02*
X145375594Y-104033390D01*
X145375594Y-104033390D02*
X145280356Y-103985771D01*
X145280356Y-103985771D02*
X145042261Y-103985771D01*
X145042261Y-103985771D02*
X144947023Y-104033390D01*
X144947023Y-104033390D02*
X144899404Y-104081009D01*
X144899404Y-104081009D02*
X144851785Y-104176247D01*
X144851785Y-104176247D02*
X144851785Y-104414342D01*
X144851785Y-104414342D02*
X144899404Y-104509580D01*
X144899404Y-104509580D02*
X144947023Y-104557200D01*
X144947023Y-104557200D02*
X145042261Y-104604819D01*
X145042261Y-104604819D02*
X145280356Y-104604819D01*
X145280356Y-104604819D02*
X145375594Y-104557200D01*
X145375594Y-104557200D02*
X145423213Y-104509580D01*
X128666666Y-79359580D02*
X128714285Y-79407200D01*
X128714285Y-79407200D02*
X128857142Y-79454819D01*
X128857142Y-79454819D02*
X128952380Y-79454819D01*
X128952380Y-79454819D02*
X129095237Y-79407200D01*
X129095237Y-79407200D02*
X129190475Y-79311961D01*
X129190475Y-79311961D02*
X129238094Y-79216723D01*
X129238094Y-79216723D02*
X129285713Y-79026247D01*
X129285713Y-79026247D02*
X129285713Y-78883390D01*
X129285713Y-78883390D02*
X129238094Y-78692914D01*
X129238094Y-78692914D02*
X129190475Y-78597676D01*
X129190475Y-78597676D02*
X129095237Y-78502438D01*
X129095237Y-78502438D02*
X128952380Y-78454819D01*
X128952380Y-78454819D02*
X128857142Y-78454819D01*
X128857142Y-78454819D02*
X128714285Y-78502438D01*
X128714285Y-78502438D02*
X128666666Y-78550057D01*
X128095237Y-78883390D02*
X128190475Y-78835771D01*
X128190475Y-78835771D02*
X128238094Y-78788152D01*
X128238094Y-78788152D02*
X128285713Y-78692914D01*
X128285713Y-78692914D02*
X128285713Y-78645295D01*
X128285713Y-78645295D02*
X128238094Y-78550057D01*
X128238094Y-78550057D02*
X128190475Y-78502438D01*
X128190475Y-78502438D02*
X128095237Y-78454819D01*
X128095237Y-78454819D02*
X127904761Y-78454819D01*
X127904761Y-78454819D02*
X127809523Y-78502438D01*
X127809523Y-78502438D02*
X127761904Y-78550057D01*
X127761904Y-78550057D02*
X127714285Y-78645295D01*
X127714285Y-78645295D02*
X127714285Y-78692914D01*
X127714285Y-78692914D02*
X127761904Y-78788152D01*
X127761904Y-78788152D02*
X127809523Y-78835771D01*
X127809523Y-78835771D02*
X127904761Y-78883390D01*
X127904761Y-78883390D02*
X128095237Y-78883390D01*
X128095237Y-78883390D02*
X128190475Y-78931009D01*
X128190475Y-78931009D02*
X128238094Y-78978628D01*
X128238094Y-78978628D02*
X128285713Y-79073866D01*
X128285713Y-79073866D02*
X128285713Y-79264342D01*
X128285713Y-79264342D02*
X128238094Y-79359580D01*
X128238094Y-79359580D02*
X128190475Y-79407200D01*
X128190475Y-79407200D02*
X128095237Y-79454819D01*
X128095237Y-79454819D02*
X127904761Y-79454819D01*
X127904761Y-79454819D02*
X127809523Y-79407200D01*
X127809523Y-79407200D02*
X127761904Y-79359580D01*
X127761904Y-79359580D02*
X127714285Y-79264342D01*
X127714285Y-79264342D02*
X127714285Y-79073866D01*
X127714285Y-79073866D02*
X127761904Y-78978628D01*
X127761904Y-78978628D02*
X127809523Y-78931009D01*
X127809523Y-78931009D02*
X127904761Y-78883390D01*
X139454819Y-103607142D02*
X138978628Y-103273809D01*
X139454819Y-103035714D02*
X138454819Y-103035714D01*
X138454819Y-103035714D02*
X138454819Y-103416666D01*
X138454819Y-103416666D02*
X138502438Y-103511904D01*
X138502438Y-103511904D02*
X138550057Y-103559523D01*
X138550057Y-103559523D02*
X138645295Y-103607142D01*
X138645295Y-103607142D02*
X138788152Y-103607142D01*
X138788152Y-103607142D02*
X138883390Y-103559523D01*
X138883390Y-103559523D02*
X138931009Y-103511904D01*
X138931009Y-103511904D02*
X138978628Y-103416666D01*
X138978628Y-103416666D02*
X138978628Y-103035714D01*
X139454819Y-104559523D02*
X139454819Y-103988095D01*
X139454819Y-104273809D02*
X138454819Y-104273809D01*
X138454819Y-104273809D02*
X138597676Y-104178571D01*
X138597676Y-104178571D02*
X138692914Y-104083333D01*
X138692914Y-104083333D02*
X138740533Y-103988095D01*
X139454819Y-105511904D02*
X139454819Y-104940476D01*
X139454819Y-105226190D02*
X138454819Y-105226190D01*
X138454819Y-105226190D02*
X138597676Y-105130952D01*
X138597676Y-105130952D02*
X138692914Y-105035714D01*
X138692914Y-105035714D02*
X138740533Y-104940476D01*
X156642857Y-98954819D02*
X156976190Y-98478628D01*
X157214285Y-98954819D02*
X157214285Y-97954819D01*
X157214285Y-97954819D02*
X156833333Y-97954819D01*
X156833333Y-97954819D02*
X156738095Y-98002438D01*
X156738095Y-98002438D02*
X156690476Y-98050057D01*
X156690476Y-98050057D02*
X156642857Y-98145295D01*
X156642857Y-98145295D02*
X156642857Y-98288152D01*
X156642857Y-98288152D02*
X156690476Y-98383390D01*
X156690476Y-98383390D02*
X156738095Y-98431009D01*
X156738095Y-98431009D02*
X156833333Y-98478628D01*
X156833333Y-98478628D02*
X157214285Y-98478628D01*
X155690476Y-98954819D02*
X156261904Y-98954819D01*
X155976190Y-98954819D02*
X155976190Y-97954819D01*
X155976190Y-97954819D02*
X156071428Y-98097676D01*
X156071428Y-98097676D02*
X156166666Y-98192914D01*
X156166666Y-98192914D02*
X156261904Y-98240533D01*
X155119047Y-98383390D02*
X155214285Y-98335771D01*
X155214285Y-98335771D02*
X155261904Y-98288152D01*
X155261904Y-98288152D02*
X155309523Y-98192914D01*
X155309523Y-98192914D02*
X155309523Y-98145295D01*
X155309523Y-98145295D02*
X155261904Y-98050057D01*
X155261904Y-98050057D02*
X155214285Y-98002438D01*
X155214285Y-98002438D02*
X155119047Y-97954819D01*
X155119047Y-97954819D02*
X154928571Y-97954819D01*
X154928571Y-97954819D02*
X154833333Y-98002438D01*
X154833333Y-98002438D02*
X154785714Y-98050057D01*
X154785714Y-98050057D02*
X154738095Y-98145295D01*
X154738095Y-98145295D02*
X154738095Y-98192914D01*
X154738095Y-98192914D02*
X154785714Y-98288152D01*
X154785714Y-98288152D02*
X154833333Y-98335771D01*
X154833333Y-98335771D02*
X154928571Y-98383390D01*
X154928571Y-98383390D02*
X155119047Y-98383390D01*
X155119047Y-98383390D02*
X155214285Y-98431009D01*
X155214285Y-98431009D02*
X155261904Y-98478628D01*
X155261904Y-98478628D02*
X155309523Y-98573866D01*
X155309523Y-98573866D02*
X155309523Y-98764342D01*
X155309523Y-98764342D02*
X155261904Y-98859580D01*
X155261904Y-98859580D02*
X155214285Y-98907200D01*
X155214285Y-98907200D02*
X155119047Y-98954819D01*
X155119047Y-98954819D02*
X154928571Y-98954819D01*
X154928571Y-98954819D02*
X154833333Y-98907200D01*
X154833333Y-98907200D02*
X154785714Y-98859580D01*
X154785714Y-98859580D02*
X154738095Y-98764342D01*
X154738095Y-98764342D02*
X154738095Y-98573866D01*
X154738095Y-98573866D02*
X154785714Y-98478628D01*
X154785714Y-98478628D02*
X154833333Y-98431009D01*
X154833333Y-98431009D02*
X154928571Y-98383390D01*
X132392857Y-105609540D02*
X132440476Y-105657160D01*
X132440476Y-105657160D02*
X132583333Y-105704779D01*
X132583333Y-105704779D02*
X132678571Y-105704779D01*
X132678571Y-105704779D02*
X132821428Y-105657160D01*
X132821428Y-105657160D02*
X132916666Y-105561921D01*
X132916666Y-105561921D02*
X132964285Y-105466683D01*
X132964285Y-105466683D02*
X133011904Y-105276207D01*
X133011904Y-105276207D02*
X133011904Y-105133350D01*
X133011904Y-105133350D02*
X132964285Y-104942874D01*
X132964285Y-104942874D02*
X132916666Y-104847636D01*
X132916666Y-104847636D02*
X132821428Y-104752398D01*
X132821428Y-104752398D02*
X132678571Y-104704779D01*
X132678571Y-104704779D02*
X132583333Y-104704779D01*
X132583333Y-104704779D02*
X132440476Y-104752398D01*
X132440476Y-104752398D02*
X132392857Y-104800017D01*
X131440476Y-105704779D02*
X132011904Y-105704779D01*
X131726190Y-105704779D02*
X131726190Y-104704779D01*
X131726190Y-104704779D02*
X131821428Y-104847636D01*
X131821428Y-104847636D02*
X131916666Y-104942874D01*
X131916666Y-104942874D02*
X132011904Y-104990493D01*
X130821428Y-104704779D02*
X130726190Y-104704779D01*
X130726190Y-104704779D02*
X130630952Y-104752398D01*
X130630952Y-104752398D02*
X130583333Y-104800017D01*
X130583333Y-104800017D02*
X130535714Y-104895255D01*
X130535714Y-104895255D02*
X130488095Y-105085731D01*
X130488095Y-105085731D02*
X130488095Y-105323826D01*
X130488095Y-105323826D02*
X130535714Y-105514302D01*
X130535714Y-105514302D02*
X130583333Y-105609540D01*
X130583333Y-105609540D02*
X130630952Y-105657160D01*
X130630952Y-105657160D02*
X130726190Y-105704779D01*
X130726190Y-105704779D02*
X130821428Y-105704779D01*
X130821428Y-105704779D02*
X130916666Y-105657160D01*
X130916666Y-105657160D02*
X130964285Y-105609540D01*
X130964285Y-105609540D02*
X131011904Y-105514302D01*
X131011904Y-105514302D02*
X131059523Y-105323826D01*
X131059523Y-105323826D02*
X131059523Y-105085731D01*
X131059523Y-105085731D02*
X131011904Y-104895255D01*
X131011904Y-104895255D02*
X130964285Y-104800017D01*
X130964285Y-104800017D02*
X130916666Y-104752398D01*
X130916666Y-104752398D02*
X130821428Y-104704779D01*
X130329819Y-106538333D02*
X129853628Y-106205000D01*
X130329819Y-105966905D02*
X129329819Y-105966905D01*
X129329819Y-105966905D02*
X129329819Y-106347857D01*
X129329819Y-106347857D02*
X129377438Y-106443095D01*
X129377438Y-106443095D02*
X129425057Y-106490714D01*
X129425057Y-106490714D02*
X129520295Y-106538333D01*
X129520295Y-106538333D02*
X129663152Y-106538333D01*
X129663152Y-106538333D02*
X129758390Y-106490714D01*
X129758390Y-106490714D02*
X129806009Y-106443095D01*
X129806009Y-106443095D02*
X129853628Y-106347857D01*
X129853628Y-106347857D02*
X129853628Y-105966905D01*
X129329819Y-106871667D02*
X129329819Y-107538333D01*
X129329819Y-107538333D02*
X130329819Y-107109762D01*
X141666666Y-76354819D02*
X141999999Y-75878628D01*
X142238094Y-76354819D02*
X142238094Y-75354819D01*
X142238094Y-75354819D02*
X141857142Y-75354819D01*
X141857142Y-75354819D02*
X141761904Y-75402438D01*
X141761904Y-75402438D02*
X141714285Y-75450057D01*
X141714285Y-75450057D02*
X141666666Y-75545295D01*
X141666666Y-75545295D02*
X141666666Y-75688152D01*
X141666666Y-75688152D02*
X141714285Y-75783390D01*
X141714285Y-75783390D02*
X141761904Y-75831009D01*
X141761904Y-75831009D02*
X141857142Y-75878628D01*
X141857142Y-75878628D02*
X142238094Y-75878628D01*
X140809523Y-75688152D02*
X140809523Y-76354819D01*
X141047618Y-75307200D02*
X141285713Y-76021485D01*
X141285713Y-76021485D02*
X140666666Y-76021485D01*
X153972857Y-104094819D02*
X154306190Y-103618628D01*
X154544285Y-104094819D02*
X154544285Y-103094819D01*
X154544285Y-103094819D02*
X154163333Y-103094819D01*
X154163333Y-103094819D02*
X154068095Y-103142438D01*
X154068095Y-103142438D02*
X154020476Y-103190057D01*
X154020476Y-103190057D02*
X153972857Y-103285295D01*
X153972857Y-103285295D02*
X153972857Y-103428152D01*
X153972857Y-103428152D02*
X154020476Y-103523390D01*
X154020476Y-103523390D02*
X154068095Y-103571009D01*
X154068095Y-103571009D02*
X154163333Y-103618628D01*
X154163333Y-103618628D02*
X154544285Y-103618628D01*
X153020476Y-104094819D02*
X153591904Y-104094819D01*
X153306190Y-104094819D02*
X153306190Y-103094819D01*
X153306190Y-103094819D02*
X153401428Y-103237676D01*
X153401428Y-103237676D02*
X153496666Y-103332914D01*
X153496666Y-103332914D02*
X153591904Y-103380533D01*
X152115714Y-103094819D02*
X152591904Y-103094819D01*
X152591904Y-103094819D02*
X152639523Y-103571009D01*
X152639523Y-103571009D02*
X152591904Y-103523390D01*
X152591904Y-103523390D02*
X152496666Y-103475771D01*
X152496666Y-103475771D02*
X152258571Y-103475771D01*
X152258571Y-103475771D02*
X152163333Y-103523390D01*
X152163333Y-103523390D02*
X152115714Y-103571009D01*
X152115714Y-103571009D02*
X152068095Y-103666247D01*
X152068095Y-103666247D02*
X152068095Y-103904342D01*
X152068095Y-103904342D02*
X152115714Y-103999580D01*
X152115714Y-103999580D02*
X152163333Y-104047200D01*
X152163333Y-104047200D02*
X152258571Y-104094819D01*
X152258571Y-104094819D02*
X152496666Y-104094819D01*
X152496666Y-104094819D02*
X152591904Y-104047200D01*
X152591904Y-104047200D02*
X152639523Y-103999580D01*
X136916666Y-100454819D02*
X137249999Y-99978628D01*
X137488094Y-100454819D02*
X137488094Y-99454819D01*
X137488094Y-99454819D02*
X137107142Y-99454819D01*
X137107142Y-99454819D02*
X137011904Y-99502438D01*
X137011904Y-99502438D02*
X136964285Y-99550057D01*
X136964285Y-99550057D02*
X136916666Y-99645295D01*
X136916666Y-99645295D02*
X136916666Y-99788152D01*
X136916666Y-99788152D02*
X136964285Y-99883390D01*
X136964285Y-99883390D02*
X137011904Y-99931009D01*
X137011904Y-99931009D02*
X137107142Y-99978628D01*
X137107142Y-99978628D02*
X137488094Y-99978628D01*
X136345237Y-99883390D02*
X136440475Y-99835771D01*
X136440475Y-99835771D02*
X136488094Y-99788152D01*
X136488094Y-99788152D02*
X136535713Y-99692914D01*
X136535713Y-99692914D02*
X136535713Y-99645295D01*
X136535713Y-99645295D02*
X136488094Y-99550057D01*
X136488094Y-99550057D02*
X136440475Y-99502438D01*
X136440475Y-99502438D02*
X136345237Y-99454819D01*
X136345237Y-99454819D02*
X136154761Y-99454819D01*
X136154761Y-99454819D02*
X136059523Y-99502438D01*
X136059523Y-99502438D02*
X136011904Y-99550057D01*
X136011904Y-99550057D02*
X135964285Y-99645295D01*
X135964285Y-99645295D02*
X135964285Y-99692914D01*
X135964285Y-99692914D02*
X136011904Y-99788152D01*
X136011904Y-99788152D02*
X136059523Y-99835771D01*
X136059523Y-99835771D02*
X136154761Y-99883390D01*
X136154761Y-99883390D02*
X136345237Y-99883390D01*
X136345237Y-99883390D02*
X136440475Y-99931009D01*
X136440475Y-99931009D02*
X136488094Y-99978628D01*
X136488094Y-99978628D02*
X136535713Y-100073866D01*
X136535713Y-100073866D02*
X136535713Y-100264342D01*
X136535713Y-100264342D02*
X136488094Y-100359580D01*
X136488094Y-100359580D02*
X136440475Y-100407200D01*
X136440475Y-100407200D02*
X136345237Y-100454819D01*
X136345237Y-100454819D02*
X136154761Y-100454819D01*
X136154761Y-100454819D02*
X136059523Y-100407200D01*
X136059523Y-100407200D02*
X136011904Y-100359580D01*
X136011904Y-100359580D02*
X135964285Y-100264342D01*
X135964285Y-100264342D02*
X135964285Y-100073866D01*
X135964285Y-100073866D02*
X136011904Y-99978628D01*
X136011904Y-99978628D02*
X136059523Y-99931009D01*
X136059523Y-99931009D02*
X136154761Y-99883390D01*
X140166666Y-97454819D02*
X140499999Y-96978628D01*
X140738094Y-97454819D02*
X140738094Y-96454819D01*
X140738094Y-96454819D02*
X140357142Y-96454819D01*
X140357142Y-96454819D02*
X140261904Y-96502438D01*
X140261904Y-96502438D02*
X140214285Y-96550057D01*
X140214285Y-96550057D02*
X140166666Y-96645295D01*
X140166666Y-96645295D02*
X140166666Y-96788152D01*
X140166666Y-96788152D02*
X140214285Y-96883390D01*
X140214285Y-96883390D02*
X140261904Y-96931009D01*
X140261904Y-96931009D02*
X140357142Y-96978628D01*
X140357142Y-96978628D02*
X140738094Y-96978628D01*
X139690475Y-97454819D02*
X139499999Y-97454819D01*
X139499999Y-97454819D02*
X139404761Y-97407200D01*
X139404761Y-97407200D02*
X139357142Y-97359580D01*
X139357142Y-97359580D02*
X139261904Y-97216723D01*
X139261904Y-97216723D02*
X139214285Y-97026247D01*
X139214285Y-97026247D02*
X139214285Y-96645295D01*
X139214285Y-96645295D02*
X139261904Y-96550057D01*
X139261904Y-96550057D02*
X139309523Y-96502438D01*
X139309523Y-96502438D02*
X139404761Y-96454819D01*
X139404761Y-96454819D02*
X139595237Y-96454819D01*
X139595237Y-96454819D02*
X139690475Y-96502438D01*
X139690475Y-96502438D02*
X139738094Y-96550057D01*
X139738094Y-96550057D02*
X139785713Y-96645295D01*
X139785713Y-96645295D02*
X139785713Y-96883390D01*
X139785713Y-96883390D02*
X139738094Y-96978628D01*
X139738094Y-96978628D02*
X139690475Y-97026247D01*
X139690475Y-97026247D02*
X139595237Y-97073866D01*
X139595237Y-97073866D02*
X139404761Y-97073866D01*
X139404761Y-97073866D02*
X139309523Y-97026247D01*
X139309523Y-97026247D02*
X139261904Y-96978628D01*
X139261904Y-96978628D02*
X139214285Y-96883390D01*
X169454819Y-97011905D02*
X168454819Y-97011905D01*
X168454819Y-97011905D02*
X168454819Y-97250000D01*
X168454819Y-97250000D02*
X168502438Y-97392857D01*
X168502438Y-97392857D02*
X168597676Y-97488095D01*
X168597676Y-97488095D02*
X168692914Y-97535714D01*
X168692914Y-97535714D02*
X168883390Y-97583333D01*
X168883390Y-97583333D02*
X169026247Y-97583333D01*
X169026247Y-97583333D02*
X169216723Y-97535714D01*
X169216723Y-97535714D02*
X169311961Y-97488095D01*
X169311961Y-97488095D02*
X169407200Y-97392857D01*
X169407200Y-97392857D02*
X169454819Y-97250000D01*
X169454819Y-97250000D02*
X169454819Y-97011905D01*
X168454819Y-97916667D02*
X168454819Y-98583333D01*
X168454819Y-98583333D02*
X169454819Y-98154762D01*
X160175238Y-99190057D02*
X160270476Y-99142438D01*
X160270476Y-99142438D02*
X160365714Y-99047200D01*
X160365714Y-99047200D02*
X160508571Y-98904342D01*
X160508571Y-98904342D02*
X160603809Y-98856723D01*
X160603809Y-98856723D02*
X160699047Y-98856723D01*
X160651428Y-99094819D02*
X160746666Y-99047200D01*
X160746666Y-99047200D02*
X160841904Y-98951961D01*
X160841904Y-98951961D02*
X160889523Y-98761485D01*
X160889523Y-98761485D02*
X160889523Y-98428152D01*
X160889523Y-98428152D02*
X160841904Y-98237676D01*
X160841904Y-98237676D02*
X160746666Y-98142438D01*
X160746666Y-98142438D02*
X160651428Y-98094819D01*
X160651428Y-98094819D02*
X160460952Y-98094819D01*
X160460952Y-98094819D02*
X160365714Y-98142438D01*
X160365714Y-98142438D02*
X160270476Y-98237676D01*
X160270476Y-98237676D02*
X160222857Y-98428152D01*
X160222857Y-98428152D02*
X160222857Y-98761485D01*
X160222857Y-98761485D02*
X160270476Y-98951961D01*
X160270476Y-98951961D02*
X160365714Y-99047200D01*
X160365714Y-99047200D02*
X160460952Y-99094819D01*
X160460952Y-99094819D02*
X160651428Y-99094819D01*
X159889523Y-98094819D02*
X159270476Y-98094819D01*
X159270476Y-98094819D02*
X159603809Y-98475771D01*
X159603809Y-98475771D02*
X159460952Y-98475771D01*
X159460952Y-98475771D02*
X159365714Y-98523390D01*
X159365714Y-98523390D02*
X159318095Y-98571009D01*
X159318095Y-98571009D02*
X159270476Y-98666247D01*
X159270476Y-98666247D02*
X159270476Y-98904342D01*
X159270476Y-98904342D02*
X159318095Y-98999580D01*
X159318095Y-98999580D02*
X159365714Y-99047200D01*
X159365714Y-99047200D02*
X159460952Y-99094819D01*
X159460952Y-99094819D02*
X159746666Y-99094819D01*
X159746666Y-99094819D02*
X159841904Y-99047200D01*
X159841904Y-99047200D02*
X159889523Y-98999580D01*
X160175238Y-104440057D02*
X160270476Y-104392438D01*
X160270476Y-104392438D02*
X160365714Y-104297200D01*
X160365714Y-104297200D02*
X160508571Y-104154342D01*
X160508571Y-104154342D02*
X160603809Y-104106723D01*
X160603809Y-104106723D02*
X160699047Y-104106723D01*
X160651428Y-104344819D02*
X160746666Y-104297200D01*
X160746666Y-104297200D02*
X160841904Y-104201961D01*
X160841904Y-104201961D02*
X160889523Y-104011485D01*
X160889523Y-104011485D02*
X160889523Y-103678152D01*
X160889523Y-103678152D02*
X160841904Y-103487676D01*
X160841904Y-103487676D02*
X160746666Y-103392438D01*
X160746666Y-103392438D02*
X160651428Y-103344819D01*
X160651428Y-103344819D02*
X160460952Y-103344819D01*
X160460952Y-103344819D02*
X160365714Y-103392438D01*
X160365714Y-103392438D02*
X160270476Y-103487676D01*
X160270476Y-103487676D02*
X160222857Y-103678152D01*
X160222857Y-103678152D02*
X160222857Y-104011485D01*
X160222857Y-104011485D02*
X160270476Y-104201961D01*
X160270476Y-104201961D02*
X160365714Y-104297200D01*
X160365714Y-104297200D02*
X160460952Y-104344819D01*
X160460952Y-104344819D02*
X160651428Y-104344819D01*
X159841904Y-103440057D02*
X159794285Y-103392438D01*
X159794285Y-103392438D02*
X159699047Y-103344819D01*
X159699047Y-103344819D02*
X159460952Y-103344819D01*
X159460952Y-103344819D02*
X159365714Y-103392438D01*
X159365714Y-103392438D02*
X159318095Y-103440057D01*
X159318095Y-103440057D02*
X159270476Y-103535295D01*
X159270476Y-103535295D02*
X159270476Y-103630533D01*
X159270476Y-103630533D02*
X159318095Y-103773390D01*
X159318095Y-103773390D02*
X159889523Y-104344819D01*
X159889523Y-104344819D02*
X159270476Y-104344819D01*
X149454819Y-100607142D02*
X148978628Y-100273809D01*
X149454819Y-100035714D02*
X148454819Y-100035714D01*
X148454819Y-100035714D02*
X148454819Y-100416666D01*
X148454819Y-100416666D02*
X148502438Y-100511904D01*
X148502438Y-100511904D02*
X148550057Y-100559523D01*
X148550057Y-100559523D02*
X148645295Y-100607142D01*
X148645295Y-100607142D02*
X148788152Y-100607142D01*
X148788152Y-100607142D02*
X148883390Y-100559523D01*
X148883390Y-100559523D02*
X148931009Y-100511904D01*
X148931009Y-100511904D02*
X148978628Y-100416666D01*
X148978628Y-100416666D02*
X148978628Y-100035714D01*
X148550057Y-100988095D02*
X148502438Y-101035714D01*
X148502438Y-101035714D02*
X148454819Y-101130952D01*
X148454819Y-101130952D02*
X148454819Y-101369047D01*
X148454819Y-101369047D02*
X148502438Y-101464285D01*
X148502438Y-101464285D02*
X148550057Y-101511904D01*
X148550057Y-101511904D02*
X148645295Y-101559523D01*
X148645295Y-101559523D02*
X148740533Y-101559523D01*
X148740533Y-101559523D02*
X148883390Y-101511904D01*
X148883390Y-101511904D02*
X149454819Y-100940476D01*
X149454819Y-100940476D02*
X149454819Y-101559523D01*
X149454819Y-102511904D02*
X149454819Y-101940476D01*
X149454819Y-102226190D02*
X148454819Y-102226190D01*
X148454819Y-102226190D02*
X148597676Y-102130952D01*
X148597676Y-102130952D02*
X148692914Y-102035714D01*
X148692914Y-102035714D02*
X148740533Y-101940476D01*
X135454819Y-94833333D02*
X134978628Y-94500000D01*
X135454819Y-94261905D02*
X134454819Y-94261905D01*
X134454819Y-94261905D02*
X134454819Y-94642857D01*
X134454819Y-94642857D02*
X134502438Y-94738095D01*
X134502438Y-94738095D02*
X134550057Y-94785714D01*
X134550057Y-94785714D02*
X134645295Y-94833333D01*
X134645295Y-94833333D02*
X134788152Y-94833333D01*
X134788152Y-94833333D02*
X134883390Y-94785714D01*
X134883390Y-94785714D02*
X134931009Y-94738095D01*
X134931009Y-94738095D02*
X134978628Y-94642857D01*
X134978628Y-94642857D02*
X134978628Y-94261905D01*
X135454819Y-95785714D02*
X135454819Y-95214286D01*
X135454819Y-95500000D02*
X134454819Y-95500000D01*
X134454819Y-95500000D02*
X134597676Y-95404762D01*
X134597676Y-95404762D02*
X134692914Y-95309524D01*
X134692914Y-95309524D02*
X134740533Y-95214286D01*
X147916666Y-77109580D02*
X147964285Y-77157200D01*
X147964285Y-77157200D02*
X148107142Y-77204819D01*
X148107142Y-77204819D02*
X148202380Y-77204819D01*
X148202380Y-77204819D02*
X148345237Y-77157200D01*
X148345237Y-77157200D02*
X148440475Y-77061961D01*
X148440475Y-77061961D02*
X148488094Y-76966723D01*
X148488094Y-76966723D02*
X148535713Y-76776247D01*
X148535713Y-76776247D02*
X148535713Y-76633390D01*
X148535713Y-76633390D02*
X148488094Y-76442914D01*
X148488094Y-76442914D02*
X148440475Y-76347676D01*
X148440475Y-76347676D02*
X148345237Y-76252438D01*
X148345237Y-76252438D02*
X148202380Y-76204819D01*
X148202380Y-76204819D02*
X148107142Y-76204819D01*
X148107142Y-76204819D02*
X147964285Y-76252438D01*
X147964285Y-76252438D02*
X147916666Y-76300057D01*
X147535713Y-76300057D02*
X147488094Y-76252438D01*
X147488094Y-76252438D02*
X147392856Y-76204819D01*
X147392856Y-76204819D02*
X147154761Y-76204819D01*
X147154761Y-76204819D02*
X147059523Y-76252438D01*
X147059523Y-76252438D02*
X147011904Y-76300057D01*
X147011904Y-76300057D02*
X146964285Y-76395295D01*
X146964285Y-76395295D02*
X146964285Y-76490533D01*
X146964285Y-76490533D02*
X147011904Y-76633390D01*
X147011904Y-76633390D02*
X147583332Y-77204819D01*
X147583332Y-77204819D02*
X146964285Y-77204819D01*
X137166666Y-76359580D02*
X137214285Y-76407200D01*
X137214285Y-76407200D02*
X137357142Y-76454819D01*
X137357142Y-76454819D02*
X137452380Y-76454819D01*
X137452380Y-76454819D02*
X137595237Y-76407200D01*
X137595237Y-76407200D02*
X137690475Y-76311961D01*
X137690475Y-76311961D02*
X137738094Y-76216723D01*
X137738094Y-76216723D02*
X137785713Y-76026247D01*
X137785713Y-76026247D02*
X137785713Y-75883390D01*
X137785713Y-75883390D02*
X137738094Y-75692914D01*
X137738094Y-75692914D02*
X137690475Y-75597676D01*
X137690475Y-75597676D02*
X137595237Y-75502438D01*
X137595237Y-75502438D02*
X137452380Y-75454819D01*
X137452380Y-75454819D02*
X137357142Y-75454819D01*
X137357142Y-75454819D02*
X137214285Y-75502438D01*
X137214285Y-75502438D02*
X137166666Y-75550057D01*
X136261904Y-75454819D02*
X136738094Y-75454819D01*
X136738094Y-75454819D02*
X136785713Y-75931009D01*
X136785713Y-75931009D02*
X136738094Y-75883390D01*
X136738094Y-75883390D02*
X136642856Y-75835771D01*
X136642856Y-75835771D02*
X136404761Y-75835771D01*
X136404761Y-75835771D02*
X136309523Y-75883390D01*
X136309523Y-75883390D02*
X136261904Y-75931009D01*
X136261904Y-75931009D02*
X136214285Y-76026247D01*
X136214285Y-76026247D02*
X136214285Y-76264342D01*
X136214285Y-76264342D02*
X136261904Y-76359580D01*
X136261904Y-76359580D02*
X136309523Y-76407200D01*
X136309523Y-76407200D02*
X136404761Y-76454819D01*
X136404761Y-76454819D02*
X136642856Y-76454819D01*
X136642856Y-76454819D02*
X136738094Y-76407200D01*
X136738094Y-76407200D02*
X136785713Y-76359580D01*
D12*
%TO.C,G\u002A\u002A\u002A*%
G36*
X159535016Y-83841472D02*
G01*
X159607358Y-83863095D01*
X159686304Y-83909731D01*
X159768575Y-83990398D01*
X159831052Y-84094903D01*
X159873560Y-84222837D01*
X159895927Y-84373790D01*
X159897977Y-84547354D01*
X159897026Y-84566898D01*
X159883750Y-84705923D01*
X159859237Y-84820904D01*
X159822035Y-84916998D01*
X159770693Y-84999363D01*
X159725049Y-85050160D01*
X159668699Y-85098895D01*
X159612323Y-85136656D01*
X159565247Y-85156319D01*
X159520542Y-85162161D01*
X159453753Y-85164813D01*
X159382386Y-85163303D01*
X159318363Y-85157930D01*
X159273605Y-85148995D01*
X159182597Y-85106077D01*
X159102014Y-85036976D01*
X159040955Y-84943618D01*
X159018307Y-84891490D01*
X158995599Y-84825302D01*
X158982906Y-84770416D01*
X158972789Y-84695091D01*
X159064231Y-84699860D01*
X159155673Y-84704629D01*
X159174046Y-84776906D01*
X159178130Y-84792250D01*
X159210004Y-84875723D01*
X159254142Y-84935511D01*
X159314647Y-84977465D01*
X159347763Y-84992321D01*
X159422303Y-85009613D01*
X159490967Y-84998574D01*
X159560108Y-84958719D01*
X159577530Y-84944619D01*
X159627649Y-84888692D01*
X159667128Y-84813688D01*
X159676356Y-84790979D01*
X159689724Y-84751823D01*
X159698433Y-84711576D01*
X159703455Y-84662673D01*
X159705762Y-84597549D01*
X159706326Y-84508642D01*
X159703875Y-84396442D01*
X159693580Y-84286383D01*
X159673845Y-84198832D01*
X159643165Y-84129354D01*
X159600036Y-84073516D01*
X159542957Y-84026885D01*
X159490789Y-84001713D01*
X159419249Y-83993656D01*
X159348740Y-84011521D01*
X159284395Y-84052821D01*
X159231346Y-84115067D01*
X159194726Y-84195768D01*
X159176148Y-84257778D01*
X159084555Y-84257778D01*
X159058759Y-84257662D01*
X159016219Y-84254201D01*
X158997459Y-84240850D01*
X158997613Y-84210910D01*
X159011813Y-84157683D01*
X159051357Y-84059285D01*
X159113523Y-83967018D01*
X159191325Y-83895971D01*
X159280728Y-83850750D01*
X159357087Y-83835148D01*
X159447082Y-83831986D01*
X159535016Y-83841472D01*
G37*
G36*
X156881170Y-83842037D02*
G01*
X156978940Y-83880145D01*
X157063839Y-83943016D01*
X157121545Y-84009370D01*
X157175791Y-84101950D01*
X157212992Y-84210654D01*
X157234484Y-84339615D01*
X157241600Y-84492963D01*
X157240435Y-84560362D01*
X157224421Y-84722670D01*
X157189582Y-84860041D01*
X157135855Y-84972625D01*
X157063174Y-85060575D01*
X156971474Y-85124043D01*
X156926873Y-85143460D01*
X156821101Y-85167812D01*
X156713910Y-85165873D01*
X156611430Y-85138910D01*
X156519787Y-85088195D01*
X156445109Y-85014996D01*
X156434820Y-85000982D01*
X156382827Y-84911474D01*
X156344431Y-84813271D01*
X156325279Y-84720258D01*
X156319692Y-84657592D01*
X156406992Y-84652975D01*
X156494293Y-84648358D01*
X156513218Y-84730347D01*
X156518576Y-84751502D01*
X156554563Y-84843729D01*
X156604939Y-84918546D01*
X156665981Y-84972466D01*
X156733965Y-85002003D01*
X156805169Y-85003672D01*
X156859259Y-84983827D01*
X156923260Y-84935399D01*
X156978736Y-84865915D01*
X157020195Y-84781061D01*
X157034825Y-84728043D01*
X157048958Y-84635234D01*
X157055656Y-84529805D01*
X157054741Y-84422186D01*
X157046037Y-84322807D01*
X157029366Y-84242099D01*
X157005146Y-84177391D01*
X156959427Y-84097270D01*
X156904805Y-84038137D01*
X156845305Y-84005171D01*
X156808575Y-83996725D01*
X156727023Y-83998116D01*
X156654597Y-84028623D01*
X156593336Y-84087108D01*
X156545282Y-84172434D01*
X156509339Y-84259153D01*
X156422355Y-84254546D01*
X156377408Y-84251472D01*
X156349612Y-84245495D01*
X156339690Y-84233196D01*
X156340478Y-84210741D01*
X156344899Y-84189002D01*
X156365569Y-84129153D01*
X156396528Y-84062029D01*
X156431850Y-83999764D01*
X156465609Y-83954495D01*
X156485674Y-83934841D01*
X156572782Y-83875093D01*
X156671876Y-83839630D01*
X156776744Y-83828572D01*
X156881170Y-83842037D01*
G37*
G36*
X155361079Y-83863263D02*
G01*
X155447076Y-83868564D01*
X155452483Y-84333634D01*
X155453369Y-84404959D01*
X155455357Y-84529681D01*
X155457744Y-84628319D01*
X155460737Y-84704417D01*
X155464545Y-84761520D01*
X155469374Y-84803174D01*
X155475431Y-84832923D01*
X155482924Y-84854312D01*
X155513831Y-84906354D01*
X155573604Y-84963258D01*
X155645880Y-84997814D01*
X155724337Y-85008452D01*
X155802654Y-84993598D01*
X155874510Y-84951682D01*
X155892597Y-84936000D01*
X155915598Y-84912765D01*
X155933839Y-84886966D01*
X155947933Y-84855004D01*
X155958489Y-84813280D01*
X155966118Y-84758195D01*
X155971431Y-84686149D01*
X155975037Y-84593542D01*
X155977548Y-84476777D01*
X155979574Y-84332253D01*
X155985381Y-83865802D01*
X156070221Y-83865802D01*
X156155062Y-83865802D01*
X156155062Y-84299611D01*
X156154708Y-84393119D01*
X156153155Y-84514740D01*
X156150512Y-84624458D01*
X156146936Y-84717409D01*
X156142587Y-84788730D01*
X156137623Y-84833560D01*
X156127794Y-84878974D01*
X156086672Y-84982283D01*
X156023023Y-85063885D01*
X155936664Y-85124043D01*
X155896570Y-85142818D01*
X155849521Y-85158071D01*
X155796548Y-85165351D01*
X155724997Y-85167238D01*
X155623930Y-85161989D01*
X155528552Y-85141507D01*
X155451575Y-85103781D01*
X155387750Y-85046936D01*
X155384629Y-85043384D01*
X155359121Y-85013092D01*
X155338476Y-84983979D01*
X155322133Y-84952430D01*
X155309530Y-84914829D01*
X155300106Y-84867561D01*
X155293300Y-84807011D01*
X155288550Y-84729564D01*
X155285294Y-84631606D01*
X155282972Y-84509520D01*
X155281021Y-84359691D01*
X155275082Y-83857963D01*
X155361079Y-83863263D01*
G37*
G36*
X153392019Y-83835591D02*
G01*
X153485565Y-83848263D01*
X153562928Y-83877531D01*
X153632989Y-83926241D01*
X153655261Y-83946605D01*
X153712629Y-84020122D01*
X153745213Y-84106188D01*
X153755571Y-84210741D01*
X153755503Y-84221307D01*
X153749028Y-84295996D01*
X153729824Y-84358157D01*
X153694817Y-84410448D01*
X153640934Y-84455525D01*
X153565101Y-84496046D01*
X153464245Y-84534667D01*
X153335290Y-84574047D01*
X153240239Y-84602905D01*
X153167011Y-84631404D01*
X153116981Y-84661245D01*
X153086171Y-84695633D01*
X153070602Y-84737777D01*
X153066296Y-84790883D01*
X153066424Y-84806299D01*
X153071003Y-84853630D01*
X153086363Y-84888084D01*
X153118200Y-84924299D01*
X153156025Y-84955316D01*
X153235555Y-84992365D01*
X153323706Y-85005716D01*
X153412017Y-84994601D01*
X153492028Y-84958252D01*
X153509003Y-84945881D01*
X153563992Y-84890316D01*
X153601311Y-84826942D01*
X153615062Y-84765027D01*
X153615062Y-84712469D01*
X153709846Y-84712469D01*
X153804631Y-84712469D01*
X153794866Y-84771265D01*
X153788041Y-84806930D01*
X153750695Y-84923932D01*
X153694896Y-85020234D01*
X153622490Y-85093211D01*
X153535326Y-85140238D01*
X153496153Y-85150910D01*
X153412693Y-85162254D01*
X153318836Y-85164908D01*
X153227043Y-85158760D01*
X153149776Y-85143699D01*
X153096440Y-85122990D01*
X153010833Y-85065641D01*
X152943891Y-84987424D01*
X152901200Y-84893953D01*
X152891034Y-84851936D01*
X152881770Y-84751251D01*
X152893258Y-84657595D01*
X152924838Y-84579760D01*
X152931409Y-84570071D01*
X152983721Y-84520539D01*
X153063758Y-84474325D01*
X153168503Y-84432913D01*
X153294936Y-84397786D01*
X153318550Y-84392126D01*
X153425368Y-84359386D01*
X153502922Y-84320969D01*
X153552747Y-84275567D01*
X153576375Y-84221872D01*
X153575339Y-84158576D01*
X153552195Y-84094830D01*
X153503300Y-84038958D01*
X153433752Y-84003585D01*
X153346994Y-83991234D01*
X153338483Y-83991344D01*
X153251576Y-84006577D01*
X153180818Y-84045414D01*
X153130096Y-84104815D01*
X153103298Y-84181741D01*
X153099697Y-84201774D01*
X153088277Y-84230933D01*
X153064638Y-84243126D01*
X153019259Y-84245583D01*
X152975217Y-84245446D01*
X152936246Y-84242674D01*
X152917968Y-84232973D01*
X152914169Y-84212013D01*
X152918635Y-84175463D01*
X152929820Y-84118273D01*
X152969484Y-84016868D01*
X153031309Y-83937549D01*
X153114989Y-83880559D01*
X153220221Y-83846139D01*
X153346700Y-83834532D01*
X153392019Y-83835591D01*
G37*
G36*
X155073210Y-83944197D02*
G01*
X155073210Y-84022592D01*
X155002654Y-84022592D01*
X154932099Y-84022592D01*
X154932099Y-84500802D01*
X154932099Y-84979012D01*
X155002654Y-84979012D01*
X155073210Y-84979012D01*
X155073210Y-85056965D01*
X155073210Y-85134917D01*
X154857624Y-85139280D01*
X154834486Y-85139716D01*
X154757586Y-85140682D01*
X154693720Y-85140754D01*
X154648991Y-85139957D01*
X154629504Y-85138318D01*
X154625208Y-85130619D01*
X154621225Y-85098988D01*
X154621664Y-85052384D01*
X154626358Y-84971772D01*
X154692994Y-84976591D01*
X154759630Y-84981410D01*
X154759630Y-84502903D01*
X154759630Y-84024395D01*
X154693050Y-84019574D01*
X154626471Y-84014753D01*
X154623553Y-83940278D01*
X154620635Y-83865802D01*
X154846923Y-83865802D01*
X155073210Y-83865802D01*
X155073210Y-83944197D01*
G37*
G36*
X158883210Y-83944197D02*
G01*
X158883210Y-84022592D01*
X158812654Y-84022592D01*
X158742099Y-84022592D01*
X158742099Y-84500802D01*
X158742099Y-84979012D01*
X158812654Y-84979012D01*
X158883210Y-84979012D01*
X158883210Y-85057407D01*
X158883210Y-85135802D01*
X158655864Y-85135802D01*
X158428519Y-85135802D01*
X158428519Y-85057407D01*
X158428519Y-84979012D01*
X158499074Y-84979012D01*
X158569630Y-84979012D01*
X158569630Y-84500802D01*
X158569630Y-84022592D01*
X158499074Y-84022592D01*
X158428519Y-84022592D01*
X158428519Y-83944197D01*
X158428519Y-83865802D01*
X158655864Y-83865802D01*
X158883210Y-83865802D01*
X158883210Y-83944197D01*
G37*
G36*
X158224692Y-84500802D02*
G01*
X158224692Y-85135802D01*
X158134537Y-85135805D01*
X158044383Y-85135808D01*
X158044383Y-84873182D01*
X158044383Y-84610555D01*
X157911111Y-84605646D01*
X157855606Y-84604546D01*
X157767875Y-84609106D01*
X157704784Y-84623475D01*
X157662599Y-84648748D01*
X157637585Y-84686024D01*
X157631571Y-84706415D01*
X157622038Y-84758267D01*
X157613552Y-84826124D01*
X157607428Y-84900617D01*
X157601965Y-84989756D01*
X157596260Y-85053725D01*
X157587723Y-85095652D01*
X157573674Y-85120182D01*
X157551433Y-85131955D01*
X157518321Y-85135614D01*
X157471658Y-85135802D01*
X157434514Y-85135396D01*
X157389848Y-85131119D01*
X157371013Y-85119151D01*
X157374491Y-85095807D01*
X157396764Y-85057407D01*
X157400730Y-85050339D01*
X157414340Y-85006908D01*
X157425017Y-84936876D01*
X157433149Y-84837901D01*
X157439210Y-84758406D01*
X157450713Y-84670877D01*
X157466750Y-84607631D01*
X157488456Y-84564600D01*
X157516966Y-84537716D01*
X157531828Y-84527354D01*
X157537399Y-84514425D01*
X157526000Y-84494408D01*
X157495449Y-84459354D01*
X157445174Y-84384651D01*
X157416283Y-84288552D01*
X157414839Y-84219555D01*
X157594660Y-84219555D01*
X157602244Y-84289571D01*
X157630896Y-84352303D01*
X157679455Y-84398823D01*
X157688205Y-84403900D01*
X157719123Y-84417091D01*
X157758160Y-84425107D01*
X157813047Y-84429091D01*
X157891513Y-84430188D01*
X158052222Y-84430247D01*
X158052222Y-84226420D01*
X158052222Y-84022592D01*
X157930710Y-84022966D01*
X157898263Y-84023333D01*
X157804235Y-84029040D01*
X157733708Y-84042786D01*
X157681055Y-84066073D01*
X157640648Y-84100402D01*
X157609304Y-84151181D01*
X157594660Y-84219555D01*
X157414839Y-84219555D01*
X157413931Y-84176140D01*
X157420619Y-84127167D01*
X157450616Y-84035514D01*
X157503057Y-83963972D01*
X157579723Y-83909679D01*
X157586766Y-83906013D01*
X157616541Y-83891302D01*
X157644084Y-83880703D01*
X157674994Y-83873542D01*
X157714868Y-83869145D01*
X157769304Y-83866839D01*
X157843902Y-83865949D01*
X157944260Y-83865802D01*
X158224692Y-83865802D01*
X158224692Y-84226420D01*
X158224692Y-84500802D01*
G37*
G36*
X154552742Y-83940278D02*
G01*
X154547963Y-84014753D01*
X154402932Y-84019261D01*
X154257901Y-84023769D01*
X154257901Y-84579786D01*
X154257901Y-85135802D01*
X154163827Y-85135802D01*
X154069753Y-85135802D01*
X154069753Y-84579197D01*
X154069753Y-84022592D01*
X153928642Y-84022592D01*
X153787531Y-84022592D01*
X153787531Y-83944197D01*
X153787531Y-83865802D01*
X154172526Y-83865802D01*
X154557521Y-83865802D01*
X154552742Y-83940278D01*
G37*
G36*
X153223087Y-84924136D02*
G01*
X153215247Y-84931975D01*
X153207408Y-84924136D01*
X153215247Y-84916296D01*
X153223087Y-84924136D01*
G37*
G36*
X152987901Y-84422407D02*
G01*
X152980062Y-84430247D01*
X152972222Y-84422407D01*
X152980062Y-84414568D01*
X152987901Y-84422407D01*
G37*
G36*
X160448537Y-83315679D02*
G01*
X160531697Y-83319100D01*
X160601546Y-83324574D01*
X160652090Y-83332100D01*
X160677337Y-83341675D01*
X160692957Y-83372043D01*
X160701656Y-83423163D01*
X160701688Y-83481320D01*
X160693122Y-83534475D01*
X160676027Y-83570586D01*
X160668314Y-83577843D01*
X160653129Y-83586073D01*
X160629203Y-83591899D01*
X160592013Y-83595726D01*
X160537036Y-83597959D01*
X160459748Y-83599001D01*
X160355628Y-83599259D01*
X160241429Y-83598648D01*
X160149651Y-83596321D01*
X160081765Y-83591662D01*
X160033974Y-83584059D01*
X160002478Y-83572897D01*
X159983482Y-83557562D01*
X159973186Y-83537441D01*
X159962949Y-83505185D01*
X156122647Y-83505185D01*
X152282346Y-83505185D01*
X152282346Y-83458148D01*
X152282346Y-83411111D01*
X156123704Y-83411111D01*
X156243248Y-83411110D01*
X156649157Y-83411082D01*
X157025125Y-83411012D01*
X157372261Y-83410896D01*
X157691671Y-83410724D01*
X157984463Y-83410492D01*
X158251743Y-83410193D01*
X158494619Y-83409820D01*
X158714198Y-83409366D01*
X158911586Y-83408825D01*
X159087892Y-83408192D01*
X159244222Y-83407458D01*
X159381683Y-83406617D01*
X159501383Y-83405664D01*
X159604428Y-83404591D01*
X159691926Y-83403392D01*
X159764984Y-83402061D01*
X159824708Y-83400590D01*
X159872207Y-83398974D01*
X159908587Y-83397206D01*
X159934956Y-83395279D01*
X159952419Y-83393187D01*
X159962086Y-83390923D01*
X159965062Y-83388481D01*
X159973840Y-83367357D01*
X159999909Y-83341444D01*
X160005676Y-83338406D01*
X160042841Y-83329460D01*
X160102655Y-83322579D01*
X160179126Y-83317763D01*
X160266258Y-83315009D01*
X160358060Y-83314315D01*
X160448537Y-83315679D01*
G37*
G36*
X160382659Y-82862357D02*
G01*
X160488110Y-82862966D01*
X160567340Y-82865572D01*
X160624097Y-82871635D01*
X160662129Y-82882620D01*
X160685184Y-82899986D01*
X160697012Y-82925197D01*
X160701359Y-82959713D01*
X160701975Y-83004998D01*
X160701803Y-83025387D01*
X160698171Y-83072179D01*
X160687590Y-83100541D01*
X160667129Y-83120160D01*
X160649520Y-83128906D01*
X160622244Y-83135383D01*
X160581003Y-83139873D01*
X160521451Y-83142691D01*
X160439242Y-83144151D01*
X160330030Y-83144568D01*
X160326456Y-83144568D01*
X160222176Y-83144350D01*
X160144550Y-83143427D01*
X160089012Y-83141369D01*
X160050996Y-83137748D01*
X160025936Y-83132134D01*
X160009266Y-83124097D01*
X159996420Y-83113210D01*
X159975182Y-83087803D01*
X159965062Y-83066173D01*
X159957020Y-83064781D01*
X159918918Y-83062946D01*
X159849541Y-83061236D01*
X159748938Y-83059652D01*
X159617157Y-83058193D01*
X159454247Y-83056860D01*
X159260256Y-83055653D01*
X159035233Y-83054572D01*
X158779226Y-83053618D01*
X158492284Y-83052790D01*
X158174455Y-83052089D01*
X157825788Y-83051515D01*
X157446331Y-83051069D01*
X157036132Y-83050749D01*
X156595240Y-83050558D01*
X156123704Y-83050494D01*
X152282346Y-83050494D01*
X152282346Y-83003457D01*
X152282346Y-82956420D01*
X156123704Y-82956420D01*
X156464575Y-82956387D01*
X156914166Y-82956231D01*
X157333077Y-82955948D01*
X157721261Y-82955537D01*
X158078668Y-82955000D01*
X158405251Y-82954335D01*
X158700961Y-82953543D01*
X158965749Y-82952624D01*
X159199567Y-82951579D01*
X159402367Y-82950408D01*
X159574099Y-82949111D01*
X159714717Y-82947688D01*
X159824170Y-82946139D01*
X159902411Y-82944465D01*
X159949391Y-82942665D01*
X159965062Y-82940741D01*
X159973400Y-82921784D01*
X159996420Y-82893704D01*
X159997821Y-82892319D01*
X160010736Y-82881869D01*
X160027940Y-82874169D01*
X160053946Y-82868802D01*
X160093264Y-82865353D01*
X160150405Y-82863405D01*
X160229882Y-82862541D01*
X160336204Y-82862346D01*
X160382659Y-82862357D01*
G37*
G36*
X160121852Y-82838827D02*
G01*
X160114013Y-82846667D01*
X160106173Y-82838827D01*
X160114013Y-82830987D01*
X160121852Y-82838827D01*
G37*
G36*
X160380645Y-82407689D02*
G01*
X160480541Y-82408297D01*
X160554682Y-82409894D01*
X160607251Y-82412786D01*
X160642428Y-82417280D01*
X160664396Y-82423680D01*
X160677337Y-82432293D01*
X160692957Y-82462660D01*
X160701656Y-82513780D01*
X160701688Y-82571938D01*
X160693122Y-82625092D01*
X160676027Y-82661204D01*
X160665982Y-82670139D01*
X160649824Y-82677734D01*
X160624277Y-82683106D01*
X160584946Y-82686631D01*
X160527439Y-82688684D01*
X160447362Y-82689641D01*
X160340322Y-82689876D01*
X160030565Y-82689876D01*
X159990986Y-82642839D01*
X159951407Y-82595802D01*
X156118656Y-82595802D01*
X152285905Y-82595802D01*
X152279001Y-82548765D01*
X152272098Y-82501728D01*
X156118580Y-82501728D01*
X156464521Y-82501694D01*
X156914122Y-82501538D01*
X157333042Y-82501254D01*
X157721233Y-82500842D01*
X158078647Y-82500304D01*
X158405235Y-82499638D01*
X158700949Y-82498846D01*
X158965741Y-82497928D01*
X159199562Y-82496883D01*
X159402363Y-82495712D01*
X159574097Y-82494415D01*
X159714716Y-82492993D01*
X159824170Y-82491445D01*
X159902411Y-82489771D01*
X159949391Y-82487973D01*
X159965062Y-82486049D01*
X159973400Y-82467092D01*
X159996420Y-82439012D01*
X159998475Y-82436995D01*
X160011419Y-82426761D01*
X160028862Y-82419222D01*
X160055280Y-82413969D01*
X160095151Y-82410594D01*
X160152950Y-82408688D01*
X160233154Y-82407845D01*
X160340238Y-82407654D01*
X160380645Y-82407689D01*
G37*
G36*
X160377924Y-81952974D02*
G01*
X160484484Y-81953564D01*
X160564676Y-81956091D01*
X160622246Y-81961974D01*
X160660944Y-81972630D01*
X160684518Y-81989477D01*
X160696715Y-82013934D01*
X160701285Y-82047419D01*
X160701975Y-82091350D01*
X160701931Y-82098625D01*
X160695026Y-82165972D01*
X160676027Y-82206512D01*
X160665769Y-82215590D01*
X160649518Y-82223130D01*
X160623821Y-82228464D01*
X160584295Y-82231963D01*
X160526559Y-82234002D01*
X160446231Y-82234951D01*
X160338928Y-82235185D01*
X160320923Y-82235182D01*
X160218424Y-82234917D01*
X160142118Y-82233932D01*
X160087518Y-82231816D01*
X160050135Y-82228159D01*
X160025483Y-82222548D01*
X160009074Y-82214575D01*
X159996420Y-82203827D01*
X159975182Y-82178420D01*
X159965062Y-82156790D01*
X159957020Y-82155399D01*
X159918918Y-82153564D01*
X159849541Y-82151854D01*
X159748938Y-82150269D01*
X159617157Y-82148811D01*
X159454247Y-82147478D01*
X159260256Y-82146271D01*
X159035233Y-82145190D01*
X158779226Y-82144235D01*
X158492284Y-82143408D01*
X158174455Y-82142707D01*
X157825788Y-82142133D01*
X157446331Y-82141686D01*
X157036132Y-82141367D01*
X156595240Y-82141175D01*
X156123704Y-82141111D01*
X152282346Y-82141111D01*
X152282346Y-82094074D01*
X152282346Y-82047037D01*
X156123704Y-82047037D01*
X156464575Y-82047004D01*
X156914166Y-82046849D01*
X157333077Y-82046565D01*
X157721261Y-82046155D01*
X158078668Y-82045617D01*
X158405251Y-82044952D01*
X158700961Y-82044160D01*
X158965749Y-82043242D01*
X159199567Y-82042197D01*
X159402367Y-82041026D01*
X159574099Y-82039728D01*
X159714717Y-82038305D01*
X159824170Y-82036756D01*
X159902411Y-82035082D01*
X159949391Y-82033282D01*
X159965062Y-82031358D01*
X159973400Y-82012401D01*
X159996420Y-81984321D01*
X159997821Y-81982936D01*
X160010736Y-81972486D01*
X160027940Y-81964786D01*
X160053946Y-81959420D01*
X160093264Y-81955970D01*
X160150405Y-81954022D01*
X160229882Y-81953158D01*
X160336204Y-81952963D01*
X160377924Y-81952974D01*
G37*
G36*
X157060610Y-79918611D02*
G01*
X157064614Y-81310123D01*
X157213395Y-81310123D01*
X157362176Y-81310123D01*
X157366181Y-79918611D01*
X157370185Y-78527099D01*
X157534815Y-78527099D01*
X157699445Y-78527099D01*
X157699445Y-79906852D01*
X157699445Y-81286605D01*
X157663696Y-81364137D01*
X157617130Y-81449545D01*
X157545648Y-81535742D01*
X157455768Y-81600637D01*
X157342182Y-81648933D01*
X157291783Y-81660063D01*
X157201941Y-81663313D01*
X157107797Y-81650991D01*
X157022540Y-81624122D01*
X157013465Y-81620034D01*
X156914835Y-81562507D01*
X156838860Y-81488586D01*
X156778850Y-81391897D01*
X156727346Y-81287292D01*
X156727346Y-79907195D01*
X156727346Y-78527099D01*
X156891975Y-78527099D01*
X157056605Y-78527099D01*
X157060610Y-79918611D01*
G37*
G36*
X154489539Y-80108343D02*
G01*
X154485247Y-81317963D01*
X154449873Y-81384163D01*
X154424919Y-81427048D01*
X154344288Y-81527886D01*
X154246901Y-81602446D01*
X154133244Y-81650317D01*
X154060303Y-81664063D01*
X153946482Y-81661321D01*
X153834928Y-81631938D01*
X153732391Y-81577971D01*
X153645622Y-81501484D01*
X153632315Y-81486660D01*
X153612840Y-81465417D01*
X153595964Y-81445897D01*
X153581493Y-81425893D01*
X153569234Y-81403202D01*
X153558992Y-81375617D01*
X153550574Y-81340934D01*
X153543785Y-81296947D01*
X153538433Y-81241450D01*
X153534322Y-81172239D01*
X153531260Y-81087109D01*
X153529052Y-80983854D01*
X153527505Y-80860268D01*
X153526424Y-80714147D01*
X153525615Y-80543285D01*
X153524886Y-80345477D01*
X153524041Y-80118518D01*
X153523407Y-79964097D01*
X153522540Y-79749238D01*
X153521981Y-79562185D01*
X153521921Y-79400780D01*
X153522551Y-79262865D01*
X153524060Y-79146281D01*
X153526639Y-79048869D01*
X153530478Y-78968472D01*
X153535768Y-78902930D01*
X153540848Y-78864197D01*
X153850247Y-78864197D01*
X153850247Y-80087160D01*
X153850247Y-81310123D01*
X154007037Y-81310123D01*
X154163827Y-81310123D01*
X154163827Y-80087160D01*
X154163827Y-78864197D01*
X154007037Y-78864197D01*
X153850247Y-78864197D01*
X153540848Y-78864197D01*
X153542699Y-78850086D01*
X153551461Y-78807780D01*
X153562245Y-78773855D01*
X153575240Y-78746151D01*
X153590638Y-78722510D01*
X153608629Y-78700774D01*
X153629402Y-78678784D01*
X153653149Y-78654382D01*
X153718960Y-78596911D01*
X153818572Y-78541042D01*
X153925324Y-78510435D01*
X154034650Y-78504216D01*
X154141983Y-78521515D01*
X154242756Y-78561459D01*
X154332404Y-78623177D01*
X154406359Y-78705796D01*
X154460054Y-78808445D01*
X154461089Y-78811214D01*
X154467188Y-78828126D01*
X154472469Y-78845373D01*
X154476982Y-78865171D01*
X154480777Y-78889737D01*
X154483905Y-78921286D01*
X154486416Y-78962034D01*
X154488360Y-79014197D01*
X154489788Y-79079990D01*
X154490749Y-79161631D01*
X154491294Y-79261334D01*
X154491474Y-79381315D01*
X154491338Y-79523791D01*
X154490937Y-79690977D01*
X154490320Y-79885089D01*
X154489613Y-80087160D01*
X154489539Y-80108343D01*
G37*
G36*
X158662679Y-78519336D02*
G01*
X158764553Y-78520457D01*
X158856984Y-78522747D01*
X158934492Y-78525993D01*
X158991601Y-78529985D01*
X159022831Y-78534511D01*
X159079233Y-78556537D01*
X159159488Y-78613844D01*
X159220186Y-78694329D01*
X159260027Y-78767485D01*
X159255847Y-80100175D01*
X159251667Y-81432866D01*
X159204630Y-81499643D01*
X159189822Y-81518490D01*
X159140572Y-81566610D01*
X159088491Y-81602901D01*
X159087664Y-81603337D01*
X159064487Y-81614863D01*
X159041411Y-81623629D01*
X159013941Y-81630013D01*
X158977584Y-81634391D01*
X158927845Y-81637140D01*
X158860231Y-81638637D01*
X158770246Y-81639259D01*
X158653398Y-81639383D01*
X158287408Y-81639383D01*
X158287408Y-81474753D01*
X158287408Y-81310123D01*
X158608827Y-81310123D01*
X158930247Y-81310123D01*
X158930247Y-80776332D01*
X158930247Y-80242541D01*
X158691142Y-80244807D01*
X158452037Y-80247074D01*
X158452037Y-80084802D01*
X158452037Y-79922531D01*
X158691142Y-79918203D01*
X158930247Y-79913874D01*
X158930247Y-79389361D01*
X158930247Y-78864847D01*
X158612747Y-78860602D01*
X158295247Y-78856358D01*
X158290797Y-78687808D01*
X158286347Y-78519259D01*
X158627999Y-78519259D01*
X158662679Y-78519336D01*
G37*
G36*
X156139383Y-80079321D02*
G01*
X156139383Y-81639383D01*
X155974916Y-81639383D01*
X155810450Y-81639383D01*
X155806367Y-80945586D01*
X155802284Y-80251790D01*
X155650084Y-80247311D01*
X155497883Y-80242831D01*
X155492960Y-80874471D01*
X155491681Y-81027249D01*
X155490291Y-81159094D01*
X155488691Y-81265763D01*
X155486726Y-81350413D01*
X155484240Y-81416202D01*
X155481078Y-81466288D01*
X155477084Y-81503827D01*
X155472102Y-81531979D01*
X155465977Y-81553899D01*
X155458554Y-81572747D01*
X155429071Y-81639383D01*
X155258980Y-81639383D01*
X155201315Y-81638879D01*
X155143104Y-81637101D01*
X155103505Y-81634341D01*
X155088889Y-81630918D01*
X155090754Y-81624719D01*
X155103440Y-81596853D01*
X155124167Y-81556443D01*
X155131003Y-81543239D01*
X155138589Y-81525808D01*
X155144780Y-81505364D01*
X155149770Y-81478757D01*
X155153753Y-81442839D01*
X155156924Y-81394460D01*
X155159477Y-81330471D01*
X155161605Y-81247723D01*
X155163504Y-81143067D01*
X155165366Y-81013353D01*
X155167387Y-80855432D01*
X155167836Y-80819756D01*
X155169997Y-80659749D01*
X155172278Y-80527588D01*
X155175020Y-80420347D01*
X155178564Y-80335103D01*
X155183251Y-80268930D01*
X155189423Y-80218904D01*
X155197420Y-80182099D01*
X155207585Y-80155591D01*
X155220256Y-80136456D01*
X155235777Y-80121768D01*
X155254488Y-80108602D01*
X155296054Y-80081367D01*
X155253252Y-80050188D01*
X155237941Y-80038577D01*
X155219437Y-80021499D01*
X155204479Y-80000991D01*
X155192689Y-79973952D01*
X155183691Y-79937278D01*
X155177110Y-79887865D01*
X155172570Y-79822610D01*
X155169693Y-79738411D01*
X155168104Y-79632164D01*
X155167426Y-79500766D01*
X155167284Y-79341113D01*
X155167284Y-78864197D01*
X155496543Y-78864197D01*
X155496543Y-79389444D01*
X155496543Y-79914691D01*
X155653333Y-79914691D01*
X155810124Y-79914691D01*
X155810124Y-79389444D01*
X155810124Y-78864197D01*
X155653333Y-78864197D01*
X155496543Y-78864197D01*
X155167284Y-78864197D01*
X155167284Y-78766527D01*
X155206865Y-78693850D01*
X155249638Y-78632461D01*
X155323875Y-78570193D01*
X155413424Y-78533842D01*
X155419037Y-78532770D01*
X155459412Y-78528685D01*
X155524021Y-78525123D01*
X155607159Y-78522289D01*
X155703121Y-78520390D01*
X155806204Y-78519633D01*
X156139383Y-78519259D01*
X156139383Y-79389444D01*
X156139383Y-80079321D01*
G37*
G36*
X155214321Y-78636852D02*
G01*
X155206482Y-78644691D01*
X155198642Y-78636852D01*
X155206482Y-78629012D01*
X155214321Y-78636852D01*
G37*
G36*
X157691605Y-84093148D02*
G01*
X157683766Y-84100987D01*
X157675926Y-84093148D01*
X157683766Y-84085308D01*
X157691605Y-84093148D01*
G37*
D13*
%TO.C,C11*%
X140488748Y-109765000D02*
X141011252Y-109765000D01*
X140488748Y-111235000D02*
X141011252Y-111235000D01*
%TO.C,C1*%
X127765000Y-93488748D02*
X127765000Y-94011252D01*
X129235000Y-93488748D02*
X129235000Y-94011252D01*
%TO.C,R19*%
X152765000Y-90727064D02*
X152765000Y-90272936D01*
X154235000Y-90727064D02*
X154235000Y-90272936D01*
%TO.C,R17*%
X152765000Y-96227064D02*
X152765000Y-95772936D01*
X154235000Y-96227064D02*
X154235000Y-95772936D01*
%TO.C,C3*%
X144265000Y-74261252D02*
X144265000Y-73738748D01*
X145735000Y-74261252D02*
X145735000Y-73738748D01*
%TO.C,R3*%
X156727064Y-73515000D02*
X156272936Y-73515000D01*
X156727064Y-74985000D02*
X156272936Y-74985000D01*
%TO.C,D1*%
X129890000Y-91540000D02*
X132750000Y-91540000D01*
X129890000Y-93460000D02*
X129890000Y-91540000D01*
X132750000Y-93460000D02*
X129890000Y-93460000D01*
%TO.C,C13*%
X146152500Y-108538748D02*
X146152500Y-109061252D01*
X147622500Y-108538748D02*
X147622500Y-109061252D01*
%TO.C,D6*%
X165250000Y-102540000D02*
X168110000Y-102540000D01*
X168110000Y-102540000D02*
X168110000Y-104460000D01*
X168110000Y-104460000D02*
X165250000Y-104460000D01*
%TO.C,C6*%
X127765000Y-86336252D02*
X127765000Y-85813748D01*
X129235000Y-86336252D02*
X129235000Y-85813748D01*
%TO.C,R13*%
X141727064Y-100765000D02*
X141272936Y-100765000D01*
X141727064Y-102235000D02*
X141272936Y-102235000D01*
%TO.C,R14*%
X143652500Y-108572936D02*
X143652500Y-109027064D01*
X145122500Y-108572936D02*
X145122500Y-109027064D01*
%TO.C,Q4*%
X160040000Y-91912600D02*
X159240000Y-91912600D01*
X160040000Y-91912600D02*
X160840000Y-91912600D01*
X160840000Y-88752600D02*
X159380000Y-88752600D01*
X160840000Y-88752600D02*
X160840000Y-89682600D01*
X160840000Y-91912600D02*
X160840000Y-90982600D01*
X158980000Y-92272600D02*
X158500000Y-92272600D01*
X158740000Y-91942600D01*
X158980000Y-92272600D01*
G36*
X158980000Y-92272600D02*
G01*
X158500000Y-92272600D01*
X158740000Y-91942600D01*
X158980000Y-92272600D01*
G37*
%TO.C,C9*%
X130515000Y-81276248D02*
X130515000Y-81798752D01*
X131985000Y-81276248D02*
X131985000Y-81798752D01*
%TO.C,R2*%
X131977064Y-96765000D02*
X131522936Y-96765000D01*
X131977064Y-98235000D02*
X131522936Y-98235000D01*
%TO.C,R5*%
X138227064Y-77265000D02*
X137772936Y-77265000D01*
X138227064Y-78735000D02*
X137772936Y-78735000D01*
%TO.C,R10*%
X144272936Y-98265000D02*
X144727064Y-98265000D01*
X144272936Y-99735000D02*
X144727064Y-99735000D01*
%TO.C,R20*%
X155265000Y-90272936D02*
X155265000Y-90727064D01*
X156735000Y-90272936D02*
X156735000Y-90727064D01*
%TO.C,D8*%
X165330000Y-91180000D02*
X168190000Y-91180000D01*
X168190000Y-91180000D02*
X168190000Y-93100000D01*
X168190000Y-93100000D02*
X165330000Y-93100000D01*
%TO.C,C4*%
X165238748Y-73515000D02*
X165761252Y-73515000D01*
X165238748Y-74985000D02*
X165761252Y-74985000D01*
%TO.C,R12*%
X137772936Y-106765000D02*
X138227064Y-106765000D01*
X137772936Y-108235000D02*
X138227064Y-108235000D01*
%TO.C,R16*%
X155345000Y-100912936D02*
X155345000Y-101367064D01*
X156815000Y-100912936D02*
X156815000Y-101367064D01*
%TO.C,R6*%
X127504100Y-102278736D02*
X127504100Y-102732864D01*
X128974100Y-102278736D02*
X128974100Y-102732864D01*
%TO.C,C7*%
X130515000Y-86298752D02*
X130515000Y-85776248D01*
X131985000Y-86298752D02*
X131985000Y-85776248D01*
%TO.C,C12*%
X141011252Y-113015000D02*
X140488748Y-113015000D01*
X141011252Y-114485000D02*
X140488748Y-114485000D01*
%TO.C,D5*%
X144637500Y-104840000D02*
X147497500Y-104840000D01*
X147497500Y-104840000D02*
X147497500Y-106760000D01*
X147497500Y-106760000D02*
X144637500Y-106760000D01*
%TO.C,C8*%
X127765000Y-81276248D02*
X127765000Y-81798752D01*
X129235000Y-81276248D02*
X129235000Y-81798752D01*
%TO.C,R11*%
X141727064Y-103265000D02*
X141272936Y-103265000D01*
X141727064Y-104735000D02*
X141272936Y-104735000D01*
%TO.C,R18*%
X155265000Y-95772936D02*
X155265000Y-96227064D01*
X156735000Y-95772936D02*
X156735000Y-96227064D01*
%TO.C,C10*%
X130765000Y-102767052D02*
X130765000Y-102244548D01*
X132235000Y-102767052D02*
X132235000Y-102244548D01*
%TO.C,R7*%
X127490000Y-106932064D02*
X127490000Y-106477936D01*
X128960000Y-106932064D02*
X128960000Y-106477936D01*
%TO.C,R4*%
X141272936Y-73515000D02*
X141727064Y-73515000D01*
X141272936Y-74985000D02*
X141727064Y-74985000D01*
%TO.C,R15*%
X152845000Y-101367064D02*
X152845000Y-100912936D01*
X154315000Y-101367064D02*
X154315000Y-100912936D01*
%TO.C,R8*%
X136015000Y-102272936D02*
X136015000Y-102727064D01*
X137485000Y-102272936D02*
X137485000Y-102727064D01*
%TO.C,R9*%
X139772936Y-98265000D02*
X140227064Y-98265000D01*
X139772936Y-99735000D02*
X140227064Y-99735000D01*
%TO.C,D7*%
X165250000Y-96790000D02*
X168110000Y-96790000D01*
X168110000Y-96790000D02*
X168110000Y-98710000D01*
X168110000Y-98710000D02*
X165250000Y-98710000D01*
%TO.C,Q3*%
X160040000Y-97470000D02*
X159240000Y-97470000D01*
X160040000Y-97470000D02*
X160840000Y-97470000D01*
X160840000Y-94310000D02*
X159380000Y-94310000D01*
X160840000Y-94310000D02*
X160840000Y-95240000D01*
X160840000Y-97470000D02*
X160840000Y-96540000D01*
X158980000Y-97830000D02*
X158500000Y-97830000D01*
X158740000Y-97500000D01*
X158980000Y-97830000D01*
G36*
X158980000Y-97830000D02*
G01*
X158500000Y-97830000D01*
X158740000Y-97500000D01*
X158980000Y-97830000D01*
G37*
%TO.C,Q2*%
X160040000Y-102720000D02*
X159240000Y-102720000D01*
X160040000Y-102720000D02*
X160840000Y-102720000D01*
X160840000Y-99560000D02*
X159380000Y-99560000D01*
X160840000Y-99560000D02*
X160840000Y-100490000D01*
X160840000Y-102720000D02*
X160840000Y-101790000D01*
X158980000Y-103080000D02*
X158500000Y-103080000D01*
X158740000Y-102750000D01*
X158980000Y-103080000D01*
G36*
X158980000Y-103080000D02*
G01*
X158500000Y-103080000D01*
X158740000Y-102750000D01*
X158980000Y-103080000D01*
G37*
%TO.C,R21*%
X150265000Y-101477064D02*
X150265000Y-101022936D01*
X151735000Y-101477064D02*
X151735000Y-101022936D01*
%TO.C,R1*%
X131977064Y-94265000D02*
X131522936Y-94265000D01*
X131977064Y-95735000D02*
X131522936Y-95735000D01*
%TO.C,C2*%
X147015000Y-74261252D02*
X147015000Y-73738748D01*
X148485000Y-74261252D02*
X148485000Y-73738748D01*
%TO.C,C5*%
X137261252Y-73515000D02*
X136738748Y-73515000D01*
X137261252Y-74985000D02*
X136738748Y-74985000D01*
%TD*%
M02*
