M48
; DRILL file {KiCad 9.0.3} date 2026-03-30T15:50:25+0200
; FORMAT={-:-/ absolute / metric / decimal}
; #@! TF.CreationDate,2026-03-30T15:50:25+02:00
; #@! TF.GenerationSoftware,Kicad,Pcbnew,9.0.3
; #@! TF.FileFunction,Plated,1,2,PTH
FMAT,2
METRIC
; #@! TA.AperFunction,Plated,PTH,ComponentDrill
T1C0.200
; #@! TA.AperFunction,Plated,PTH,ViaDrill
T2C0.400
; #@! TA.AperFunction,Plated,PTH,ComponentDrill
T3C0.600
; #@! TA.AperFunction,Plated,PTH,ComponentDrill
T4C0.750
; #@! TA.AperFunction,Plated,PTH,ComponentDrill
T5C0.800
; #@! TA.AperFunction,Plated,PTH,ComponentDrill
T6C1.000
; #@! TA.AperFunction,Plated,PTH,ComponentDrill
T7C1.400
; #@! TA.AperFunction,Plated,PTH,ComponentDrill
T8C1.750
; #@! TA.AperFunction,Plated,PTH,ComponentDrill
T9C2.700
%
G90
G05
T1
X133.5Y-101.85
X133.5Y-103.05
X133.5Y-104.25
X134.9Y-101.85
X134.9Y-103.05
X134.9Y-104.25
X148.485Y-80.76
X148.485Y-82.16
X149.185Y-80.06
X149.185Y-81.46
X149.185Y-82.86
X149.885Y-80.76
X149.885Y-82.16
X150.585Y-80.06
X150.585Y-81.46
X150.585Y-82.86
X151.285Y-80.76
X151.285Y-82.16
T2
X128.225Y-105.705
X128.5Y-85.037
X128.89Y-88.3
X129.266Y-104.532
X129.603Y-101.697
X130.188Y-103.057
X130.75Y-95.0
X131.25Y-80.5
X131.725Y-104.955
X131.931Y-109.774
X132.75Y-92.5
X133.015Y-100.774
X133.05Y-85.3
X133.25Y-108.75
X133.647Y-93.75
X133.888Y-96.608
X134.629Y-74.879
X135.25Y-88.25
X136.88Y-107.75
X137.0Y-97.5
X137.055Y-75.346
X138.258Y-106.259
X138.263Y-102.143
X138.263Y-104.184
X139.349Y-107.5
X139.712Y-110.5
X140.072Y-97.367
X140.131Y-77.099
X141.251Y-76.607
X141.276Y-85.502
X141.484Y-105.625
X141.788Y-113.75
X142.5Y-104.0
X143.223Y-106.636
X144.366Y-109.778
X144.387Y-108.45
X144.5Y-106.6
X144.547Y-89.301
X144.689Y-83.777
X144.826Y-86.223
X145.0Y-104.0
X145.553Y-97.477
X146.514Y-87.711
X146.761Y-80.848
X146.827Y-79.476
X147.236Y-82.283
X147.466Y-96.302
X147.75Y-76.232
X148.284Y-85.319
X148.961Y-98.56
X149.011Y-86.223
X149.74Y-99.461
X150.408Y-86.95
X150.758Y-95.818
X151.0Y-98.276
X151.349Y-103.901
X151.761Y-98.941
X151.809Y-84.508
X152.547Y-103.137
X153.201Y-93.51
X154.703Y-88.685
X154.824Y-102.942
X154.921Y-95.98
X156.29Y-85.416
X157.613Y-85.119
X158.75Y-86.0
X162.25Y-103.75
X162.649Y-75.802
T4
X146.0Y-111.7
X148.0Y-111.7
X150.0Y-111.7
X150.25Y-106.2
X152.0Y-111.7
X152.25Y-106.2
X154.0Y-111.7
X154.25Y-106.2
X156.0Y-111.7
X156.25Y-106.2
X158.0Y-111.7
X158.25Y-106.2
X160.0Y-111.7
X162.0Y-111.7
X163.25Y-106.2
X165.25Y-106.2
X165.33Y-89.64
X165.33Y-95.14
X165.33Y-100.64
X167.25Y-106.2
X167.33Y-89.64
X167.33Y-95.14
X167.33Y-100.64
T5
X138.5Y-82.75
X138.5Y-84.75
X138.5Y-86.75
T6
X163.0Y-78.1
X163.0Y-80.64
X163.0Y-83.18
X163.0Y-85.72
X165.54Y-78.1
X165.54Y-80.64
X165.54Y-83.18
X165.54Y-85.72
X168.08Y-78.1
X168.08Y-80.64
X168.08Y-83.18
X168.08Y-85.72
T7
X138.5Y-80.6
X138.5Y-88.9
T8
X129.75Y-112.5
X135.25Y-112.5
T9
X130.0Y-75.0
X167.0Y-112.0
T3
G00X130.65Y-90.68
M15
G01X130.05Y-90.68
M16
G05
G00X130.65Y-99.32
M15
G01X130.05Y-99.32
M16
G05
G00X135.08Y-90.68
M15
G01X133.98Y-90.68
M16
G05
G00X135.08Y-99.32
M15
G01X133.98Y-99.32
M16
G05
M30
