%TF.GenerationSoftware,KiCad,Pcbnew,9.0.3*%
%TF.CreationDate,2026-03-30T15:50:24+02:00*%
%TF.ProjectId,new version,6e657720-7665-4727-9369-6f6e2e6b6963,rev?*%
%TF.SameCoordinates,Original*%
%TF.FileFunction,Legend,Top*%
%TF.FilePolarity,Positive*%
%FSLAX46Y46*%
G04 Gerber Fmt 4.6, Leading zero omitted, Abs format (unit mm)*
G04 Created by KiCad (PCBNEW 9.0.3) date 2026-03-30 15:50:24*
%MOMM*%
%LPD*%
G01*
G04 APERTURE LIST*
%ADD10C,0.375000*%
%ADD11C,0.150000*%
%ADD12C,0.120000*%
%ADD13C,0.127000*%
%ADD14C,0.200000*%
%ADD15C,0.000000*%
G04 APERTURE END LIST*
D10*
X129937500Y-106250000D02*
G75*
G02*
X129562500Y-106250000I-187500J0D01*
G01*
X129562500Y-106250000D02*
G75*
G02*
X129937500Y-106250000I187500J0D01*
G01*
D11*
X140416666Y-111901009D02*
X140083333Y-111901009D01*
X140083333Y-112424819D02*
X140083333Y-111424819D01*
X140083333Y-111424819D02*
X140559523Y-111424819D01*
X141464285Y-112424819D02*
X140892857Y-112424819D01*
X141178571Y-112424819D02*
X141178571Y-111424819D01*
X141178571Y-111424819D02*
X141083333Y-111567676D01*
X141083333Y-111567676D02*
X140988095Y-111662914D01*
X140988095Y-111662914D02*
X140892857Y-111710533D01*
X139988095Y-109454819D02*
X139988095Y-110264342D01*
X139988095Y-110264342D02*
X140035714Y-110359580D01*
X140035714Y-110359580D02*
X140083333Y-110407200D01*
X140083333Y-110407200D02*
X140178571Y-110454819D01*
X140178571Y-110454819D02*
X140369047Y-110454819D01*
X140369047Y-110454819D02*
X140464285Y-110407200D01*
X140464285Y-110407200D02*
X140511904Y-110359580D01*
X140511904Y-110359580D02*
X140559523Y-110264342D01*
X140559523Y-110264342D02*
X140559523Y-109454819D01*
X141511904Y-109454819D02*
X141035714Y-109454819D01*
X141035714Y-109454819D02*
X140988095Y-109931009D01*
X140988095Y-109931009D02*
X141035714Y-109883390D01*
X141035714Y-109883390D02*
X141130952Y-109835771D01*
X141130952Y-109835771D02*
X141369047Y-109835771D01*
X141369047Y-109835771D02*
X141464285Y-109883390D01*
X141464285Y-109883390D02*
X141511904Y-109931009D01*
X141511904Y-109931009D02*
X141559523Y-110026247D01*
X141559523Y-110026247D02*
X141559523Y-110264342D01*
X141559523Y-110264342D02*
X141511904Y-110359580D01*
X141511904Y-110359580D02*
X141464285Y-110407200D01*
X141464285Y-110407200D02*
X141369047Y-110454819D01*
X141369047Y-110454819D02*
X141130952Y-110454819D01*
X141130952Y-110454819D02*
X141035714Y-110407200D01*
X141035714Y-110407200D02*
X140988095Y-110359580D01*
X127454819Y-79761904D02*
X128264342Y-79761904D01*
X128264342Y-79761904D02*
X128359580Y-79714285D01*
X128359580Y-79714285D02*
X128407200Y-79666666D01*
X128407200Y-79666666D02*
X128454819Y-79571428D01*
X128454819Y-79571428D02*
X128454819Y-79380952D01*
X128454819Y-79380952D02*
X128407200Y-79285714D01*
X128407200Y-79285714D02*
X128359580Y-79238095D01*
X128359580Y-79238095D02*
X128264342Y-79190476D01*
X128264342Y-79190476D02*
X127454819Y-79190476D01*
X128454819Y-78190476D02*
X128454819Y-78761904D01*
X128454819Y-78476190D02*
X127454819Y-78476190D01*
X127454819Y-78476190D02*
X127597676Y-78571428D01*
X127597676Y-78571428D02*
X127692914Y-78666666D01*
X127692914Y-78666666D02*
X127740533Y-78761904D01*
X138488095Y-94204819D02*
X138488095Y-95014342D01*
X138488095Y-95014342D02*
X138535714Y-95109580D01*
X138535714Y-95109580D02*
X138583333Y-95157200D01*
X138583333Y-95157200D02*
X138678571Y-95204819D01*
X138678571Y-95204819D02*
X138869047Y-95204819D01*
X138869047Y-95204819D02*
X138964285Y-95157200D01*
X138964285Y-95157200D02*
X139011904Y-95109580D01*
X139011904Y-95109580D02*
X139059523Y-95014342D01*
X139059523Y-95014342D02*
X139059523Y-94204819D01*
X139440476Y-94204819D02*
X140059523Y-94204819D01*
X140059523Y-94204819D02*
X139726190Y-94585771D01*
X139726190Y-94585771D02*
X139869047Y-94585771D01*
X139869047Y-94585771D02*
X139964285Y-94633390D01*
X139964285Y-94633390D02*
X140011904Y-94681009D01*
X140011904Y-94681009D02*
X140059523Y-94776247D01*
X140059523Y-94776247D02*
X140059523Y-95014342D01*
X140059523Y-95014342D02*
X140011904Y-95109580D01*
X140011904Y-95109580D02*
X139964285Y-95157200D01*
X139964285Y-95157200D02*
X139869047Y-95204819D01*
X139869047Y-95204819D02*
X139583333Y-95204819D01*
X139583333Y-95204819D02*
X139488095Y-95157200D01*
X139488095Y-95157200D02*
X139440476Y-95109580D01*
X133904761Y-108300057D02*
X133809523Y-108252438D01*
X133809523Y-108252438D02*
X133714285Y-108157200D01*
X133714285Y-108157200D02*
X133571428Y-108014342D01*
X133571428Y-108014342D02*
X133476190Y-107966723D01*
X133476190Y-107966723D02*
X133380952Y-107966723D01*
X133428571Y-108204819D02*
X133333333Y-108157200D01*
X133333333Y-108157200D02*
X133238095Y-108061961D01*
X133238095Y-108061961D02*
X133190476Y-107871485D01*
X133190476Y-107871485D02*
X133190476Y-107538152D01*
X133190476Y-107538152D02*
X133238095Y-107347676D01*
X133238095Y-107347676D02*
X133333333Y-107252438D01*
X133333333Y-107252438D02*
X133428571Y-107204819D01*
X133428571Y-107204819D02*
X133619047Y-107204819D01*
X133619047Y-107204819D02*
X133714285Y-107252438D01*
X133714285Y-107252438D02*
X133809523Y-107347676D01*
X133809523Y-107347676D02*
X133857142Y-107538152D01*
X133857142Y-107538152D02*
X133857142Y-107871485D01*
X133857142Y-107871485D02*
X133809523Y-108061961D01*
X133809523Y-108061961D02*
X133714285Y-108157200D01*
X133714285Y-108157200D02*
X133619047Y-108204819D01*
X133619047Y-108204819D02*
X133428571Y-108204819D01*
X134809523Y-108204819D02*
X134238095Y-108204819D01*
X134523809Y-108204819D02*
X134523809Y-107204819D01*
X134523809Y-107204819D02*
X134428571Y-107347676D01*
X134428571Y-107347676D02*
X134333333Y-107442914D01*
X134333333Y-107442914D02*
X134238095Y-107490533D01*
X149454819Y-101988094D02*
X148454819Y-101988094D01*
X148454819Y-101988094D02*
X148454819Y-101749999D01*
X148454819Y-101749999D02*
X148502438Y-101607142D01*
X148502438Y-101607142D02*
X148597676Y-101511904D01*
X148597676Y-101511904D02*
X148692914Y-101464285D01*
X148692914Y-101464285D02*
X148883390Y-101416666D01*
X148883390Y-101416666D02*
X149026247Y-101416666D01*
X149026247Y-101416666D02*
X149216723Y-101464285D01*
X149216723Y-101464285D02*
X149311961Y-101511904D01*
X149311961Y-101511904D02*
X149407200Y-101607142D01*
X149407200Y-101607142D02*
X149454819Y-101749999D01*
X149454819Y-101749999D02*
X149454819Y-101988094D01*
X149454819Y-100940475D02*
X149454819Y-100749999D01*
X149454819Y-100749999D02*
X149407200Y-100654761D01*
X149407200Y-100654761D02*
X149359580Y-100607142D01*
X149359580Y-100607142D02*
X149216723Y-100511904D01*
X149216723Y-100511904D02*
X149026247Y-100464285D01*
X149026247Y-100464285D02*
X148645295Y-100464285D01*
X148645295Y-100464285D02*
X148550057Y-100511904D01*
X148550057Y-100511904D02*
X148502438Y-100559523D01*
X148502438Y-100559523D02*
X148454819Y-100654761D01*
X148454819Y-100654761D02*
X148454819Y-100845237D01*
X148454819Y-100845237D02*
X148502438Y-100940475D01*
X148502438Y-100940475D02*
X148550057Y-100988094D01*
X148550057Y-100988094D02*
X148645295Y-101035713D01*
X148645295Y-101035713D02*
X148883390Y-101035713D01*
X148883390Y-101035713D02*
X148978628Y-100988094D01*
X148978628Y-100988094D02*
X149026247Y-100940475D01*
X149026247Y-100940475D02*
X149073866Y-100845237D01*
X149073866Y-100845237D02*
X149073866Y-100654761D01*
X149073866Y-100654761D02*
X149026247Y-100559523D01*
X149026247Y-100559523D02*
X148978628Y-100511904D01*
X148978628Y-100511904D02*
X148883390Y-100464285D01*
X139954819Y-101666666D02*
X139954819Y-102142856D01*
X139954819Y-102142856D02*
X138954819Y-102142856D01*
X139954819Y-100809523D02*
X139954819Y-101380951D01*
X139954819Y-101095237D02*
X138954819Y-101095237D01*
X138954819Y-101095237D02*
X139097676Y-101190475D01*
X139097676Y-101190475D02*
X139192914Y-101285713D01*
X139192914Y-101285713D02*
X139240533Y-101380951D01*
X164274667Y-74657200D02*
X164417524Y-74704819D01*
X164417524Y-74704819D02*
X164655619Y-74704819D01*
X164655619Y-74704819D02*
X164750857Y-74657200D01*
X164750857Y-74657200D02*
X164798476Y-74609580D01*
X164798476Y-74609580D02*
X164846095Y-74514342D01*
X164846095Y-74514342D02*
X164846095Y-74419104D01*
X164846095Y-74419104D02*
X164798476Y-74323866D01*
X164798476Y-74323866D02*
X164750857Y-74276247D01*
X164750857Y-74276247D02*
X164655619Y-74228628D01*
X164655619Y-74228628D02*
X164465143Y-74181009D01*
X164465143Y-74181009D02*
X164369905Y-74133390D01*
X164369905Y-74133390D02*
X164322286Y-74085771D01*
X164322286Y-74085771D02*
X164274667Y-73990533D01*
X164274667Y-73990533D02*
X164274667Y-73895295D01*
X164274667Y-73895295D02*
X164322286Y-73800057D01*
X164322286Y-73800057D02*
X164369905Y-73752438D01*
X164369905Y-73752438D02*
X164465143Y-73704819D01*
X164465143Y-73704819D02*
X164703238Y-73704819D01*
X164703238Y-73704819D02*
X164846095Y-73752438D01*
X165179429Y-73704819D02*
X165417524Y-74704819D01*
X165417524Y-74704819D02*
X165608000Y-73990533D01*
X165608000Y-73990533D02*
X165798476Y-74704819D01*
X165798476Y-74704819D02*
X166036572Y-73704819D01*
X166941333Y-74704819D02*
X166369905Y-74704819D01*
X166655619Y-74704819D02*
X166655619Y-73704819D01*
X166655619Y-73704819D02*
X166560381Y-73847676D01*
X166560381Y-73847676D02*
X166465143Y-73942914D01*
X166465143Y-73942914D02*
X166369905Y-73990533D01*
X134066667Y-87454819D02*
X134685714Y-87454819D01*
X134685714Y-87454819D02*
X134352381Y-87835771D01*
X134352381Y-87835771D02*
X134495238Y-87835771D01*
X134495238Y-87835771D02*
X134590476Y-87883390D01*
X134590476Y-87883390D02*
X134638095Y-87931009D01*
X134638095Y-87931009D02*
X134685714Y-88026247D01*
X134685714Y-88026247D02*
X134685714Y-88264342D01*
X134685714Y-88264342D02*
X134638095Y-88359580D01*
X134638095Y-88359580D02*
X134590476Y-88407200D01*
X134590476Y-88407200D02*
X134495238Y-88454819D01*
X134495238Y-88454819D02*
X134209524Y-88454819D01*
X134209524Y-88454819D02*
X134114286Y-88407200D01*
X134114286Y-88407200D02*
X134066667Y-88359580D01*
X127935714Y-88454819D02*
X127364286Y-88454819D01*
X127650000Y-88454819D02*
X127650000Y-87454819D01*
X127650000Y-87454819D02*
X127554762Y-87597676D01*
X127554762Y-87597676D02*
X127459524Y-87692914D01*
X127459524Y-87692914D02*
X127364286Y-87740533D01*
X127511905Y-109704819D02*
X127511905Y-108704819D01*
X127511905Y-108704819D02*
X127750000Y-108704819D01*
X127750000Y-108704819D02*
X127892857Y-108752438D01*
X127892857Y-108752438D02*
X127988095Y-108847676D01*
X127988095Y-108847676D02*
X128035714Y-108942914D01*
X128035714Y-108942914D02*
X128083333Y-109133390D01*
X128083333Y-109133390D02*
X128083333Y-109276247D01*
X128083333Y-109276247D02*
X128035714Y-109466723D01*
X128035714Y-109466723D02*
X127988095Y-109561961D01*
X127988095Y-109561961D02*
X127892857Y-109657200D01*
X127892857Y-109657200D02*
X127750000Y-109704819D01*
X127750000Y-109704819D02*
X127511905Y-109704819D01*
X128940476Y-109038152D02*
X128940476Y-109704819D01*
X128702381Y-108657200D02*
X128464286Y-109371485D01*
X128464286Y-109371485D02*
X129083333Y-109371485D01*
X135666667Y-74657200D02*
X135809524Y-74704819D01*
X135809524Y-74704819D02*
X136047619Y-74704819D01*
X136047619Y-74704819D02*
X136142857Y-74657200D01*
X136142857Y-74657200D02*
X136190476Y-74609580D01*
X136190476Y-74609580D02*
X136238095Y-74514342D01*
X136238095Y-74514342D02*
X136238095Y-74419104D01*
X136238095Y-74419104D02*
X136190476Y-74323866D01*
X136190476Y-74323866D02*
X136142857Y-74276247D01*
X136142857Y-74276247D02*
X136047619Y-74228628D01*
X136047619Y-74228628D02*
X135857143Y-74181009D01*
X135857143Y-74181009D02*
X135761905Y-74133390D01*
X135761905Y-74133390D02*
X135714286Y-74085771D01*
X135714286Y-74085771D02*
X135666667Y-73990533D01*
X135666667Y-73990533D02*
X135666667Y-73895295D01*
X135666667Y-73895295D02*
X135714286Y-73800057D01*
X135714286Y-73800057D02*
X135761905Y-73752438D01*
X135761905Y-73752438D02*
X135857143Y-73704819D01*
X135857143Y-73704819D02*
X136095238Y-73704819D01*
X136095238Y-73704819D02*
X136238095Y-73752438D01*
X136571429Y-73704819D02*
X136809524Y-74704819D01*
X136809524Y-74704819D02*
X137000000Y-73990533D01*
X137000000Y-73990533D02*
X137190476Y-74704819D01*
X137190476Y-74704819D02*
X137428572Y-73704819D01*
X137761905Y-73800057D02*
X137809524Y-73752438D01*
X137809524Y-73752438D02*
X137904762Y-73704819D01*
X137904762Y-73704819D02*
X138142857Y-73704819D01*
X138142857Y-73704819D02*
X138238095Y-73752438D01*
X138238095Y-73752438D02*
X138285714Y-73800057D01*
X138285714Y-73800057D02*
X138333333Y-73895295D01*
X138333333Y-73895295D02*
X138333333Y-73990533D01*
X138333333Y-73990533D02*
X138285714Y-74133390D01*
X138285714Y-74133390D02*
X137714286Y-74704819D01*
X137714286Y-74704819D02*
X138333333Y-74704819D01*
X144875595Y-104504819D02*
X144875595Y-105314342D01*
X144875595Y-105314342D02*
X144923214Y-105409580D01*
X144923214Y-105409580D02*
X144970833Y-105457200D01*
X144970833Y-105457200D02*
X145066071Y-105504819D01*
X145066071Y-105504819D02*
X145256547Y-105504819D01*
X145256547Y-105504819D02*
X145351785Y-105457200D01*
X145351785Y-105457200D02*
X145399404Y-105409580D01*
X145399404Y-105409580D02*
X145447023Y-105314342D01*
X145447023Y-105314342D02*
X145447023Y-104504819D01*
X146351785Y-104504819D02*
X146161309Y-104504819D01*
X146161309Y-104504819D02*
X146066071Y-104552438D01*
X146066071Y-104552438D02*
X146018452Y-104600057D01*
X146018452Y-104600057D02*
X145923214Y-104742914D01*
X145923214Y-104742914D02*
X145875595Y-104933390D01*
X145875595Y-104933390D02*
X145875595Y-105314342D01*
X145875595Y-105314342D02*
X145923214Y-105409580D01*
X145923214Y-105409580D02*
X145970833Y-105457200D01*
X145970833Y-105457200D02*
X146066071Y-105504819D01*
X146066071Y-105504819D02*
X146256547Y-105504819D01*
X146256547Y-105504819D02*
X146351785Y-105457200D01*
X146351785Y-105457200D02*
X146399404Y-105409580D01*
X146399404Y-105409580D02*
X146447023Y-105314342D01*
X146447023Y-105314342D02*
X146447023Y-105076247D01*
X146447023Y-105076247D02*
X146399404Y-104981009D01*
X146399404Y-104981009D02*
X146351785Y-104933390D01*
X146351785Y-104933390D02*
X146256547Y-104885771D01*
X146256547Y-104885771D02*
X146066071Y-104885771D01*
X146066071Y-104885771D02*
X145970833Y-104933390D01*
X145970833Y-104933390D02*
X145923214Y-104981009D01*
X145923214Y-104981009D02*
X145875595Y-105076247D01*
X130454819Y-103238094D02*
X129454819Y-103238094D01*
X129454819Y-103238094D02*
X129454819Y-102999999D01*
X129454819Y-102999999D02*
X129502438Y-102857142D01*
X129502438Y-102857142D02*
X129597676Y-102761904D01*
X129597676Y-102761904D02*
X129692914Y-102714285D01*
X129692914Y-102714285D02*
X129883390Y-102666666D01*
X129883390Y-102666666D02*
X130026247Y-102666666D01*
X130026247Y-102666666D02*
X130216723Y-102714285D01*
X130216723Y-102714285D02*
X130311961Y-102761904D01*
X130311961Y-102761904D02*
X130407200Y-102857142D01*
X130407200Y-102857142D02*
X130454819Y-102999999D01*
X130454819Y-102999999D02*
X130454819Y-103238094D01*
X129454819Y-102333332D02*
X129454819Y-101714285D01*
X129454819Y-101714285D02*
X129835771Y-102047618D01*
X129835771Y-102047618D02*
X129835771Y-101904761D01*
X129835771Y-101904761D02*
X129883390Y-101809523D01*
X129883390Y-101809523D02*
X129931009Y-101761904D01*
X129931009Y-101761904D02*
X130026247Y-101714285D01*
X130026247Y-101714285D02*
X130264342Y-101714285D01*
X130264342Y-101714285D02*
X130359580Y-101761904D01*
X130359580Y-101761904D02*
X130407200Y-101809523D01*
X130407200Y-101809523D02*
X130454819Y-101904761D01*
X130454819Y-101904761D02*
X130454819Y-102190475D01*
X130454819Y-102190475D02*
X130407200Y-102285713D01*
X130407200Y-102285713D02*
X130359580Y-102333332D01*
X135954819Y-78738094D02*
X134954819Y-78738094D01*
X134954819Y-78738094D02*
X134954819Y-78499999D01*
X134954819Y-78499999D02*
X135002438Y-78357142D01*
X135002438Y-78357142D02*
X135097676Y-78261904D01*
X135097676Y-78261904D02*
X135192914Y-78214285D01*
X135192914Y-78214285D02*
X135383390Y-78166666D01*
X135383390Y-78166666D02*
X135526247Y-78166666D01*
X135526247Y-78166666D02*
X135716723Y-78214285D01*
X135716723Y-78214285D02*
X135811961Y-78261904D01*
X135811961Y-78261904D02*
X135907200Y-78357142D01*
X135907200Y-78357142D02*
X135954819Y-78499999D01*
X135954819Y-78499999D02*
X135954819Y-78738094D01*
X135050057Y-77785713D02*
X135002438Y-77738094D01*
X135002438Y-77738094D02*
X134954819Y-77642856D01*
X134954819Y-77642856D02*
X134954819Y-77404761D01*
X134954819Y-77404761D02*
X135002438Y-77309523D01*
X135002438Y-77309523D02*
X135050057Y-77261904D01*
X135050057Y-77261904D02*
X135145295Y-77214285D01*
X135145295Y-77214285D02*
X135240533Y-77214285D01*
X135240533Y-77214285D02*
X135383390Y-77261904D01*
X135383390Y-77261904D02*
X135954819Y-77833332D01*
X135954819Y-77833332D02*
X135954819Y-77214285D01*
D12*
%TO.C,F1*%
X140147936Y-112890000D02*
X141352064Y-112890000D01*
X140147936Y-114710000D02*
X141352064Y-114710000D01*
%TO.C,J3*%
X161670000Y-76770000D02*
X161670000Y-79430000D01*
X166810000Y-76770000D02*
X161670000Y-76770000D01*
X166810000Y-76770000D02*
X166810000Y-79430000D01*
X166810000Y-79430000D02*
X161670000Y-79430000D01*
X169410000Y-78100000D02*
X169410000Y-79430000D01*
X169410000Y-79430000D02*
X168080000Y-79430000D01*
%TO.C,U5*%
X140750000Y-105940000D02*
X139950000Y-105940000D01*
X140750000Y-105940000D02*
X141550000Y-105940000D01*
X140750000Y-109060000D02*
X139950000Y-109060000D01*
X140750000Y-109060000D02*
X141550000Y-109060000D01*
X139450000Y-105990000D02*
X139210000Y-105660000D01*
X139690000Y-105660000D01*
X139450000Y-105990000D01*
G36*
X139450000Y-105990000D02*
G01*
X139210000Y-105660000D01*
X139690000Y-105660000D01*
X139450000Y-105990000D01*
G37*
%TO.C,U1*%
X127340000Y-80240000D02*
X128600000Y-80240000D01*
X127340000Y-84000000D02*
X127340000Y-80240000D01*
X134160000Y-80240000D02*
X132900000Y-80240000D01*
X134160000Y-84000000D02*
X134160000Y-80240000D01*
X127440000Y-85280000D02*
X127110000Y-85520000D01*
X127110000Y-85040000D01*
X127440000Y-85280000D01*
G36*
X127440000Y-85280000D02*
G01*
X127110000Y-85520000D01*
X127110000Y-85040000D01*
X127440000Y-85280000D01*
G37*
%TO.C,U3*%
X139250000Y-90440000D02*
X138450000Y-90440000D01*
X139250000Y-90440000D02*
X140050000Y-90440000D01*
X139250000Y-93560000D02*
X138450000Y-93560000D01*
X139250000Y-93560000D02*
X140050000Y-93560000D01*
X137950000Y-90490000D02*
X137710000Y-90160000D01*
X138190000Y-90160000D01*
X137950000Y-90490000D01*
G36*
X137950000Y-90490000D02*
G01*
X137710000Y-90160000D01*
X138190000Y-90160000D01*
X137950000Y-90490000D01*
G37*
%TO.C,J4*%
X147890000Y-104090000D02*
X147890000Y-105340000D01*
X148190000Y-104390000D02*
X148190000Y-109110000D01*
X148190000Y-105700000D02*
X148800000Y-105700000D01*
X148190000Y-107000000D02*
X148800000Y-107000000D01*
X148190000Y-109110000D02*
X160310000Y-109110000D01*
X148800000Y-105000000D02*
X148800000Y-108500000D01*
X148800000Y-108500000D02*
X159700000Y-108500000D01*
X149140000Y-104090000D02*
X147890000Y-104090000D01*
X149650000Y-104190000D02*
X149650000Y-104390000D01*
X149950000Y-104190000D02*
X149650000Y-104190000D01*
X149950000Y-104290000D02*
X149650000Y-104290000D01*
X149950000Y-104390000D02*
X149950000Y-104190000D01*
X150750000Y-104390000D02*
X150750000Y-105000000D01*
X150750000Y-105000000D02*
X148800000Y-105000000D01*
X151150000Y-108000000D02*
X151350000Y-108000000D01*
X151150000Y-108500000D02*
X151150000Y-108000000D01*
X151250000Y-108500000D02*
X151250000Y-108000000D01*
X151350000Y-108000000D02*
X151350000Y-108500000D01*
X153150000Y-108000000D02*
X153350000Y-108000000D01*
X153150000Y-108500000D02*
X153150000Y-108000000D01*
X153250000Y-108500000D02*
X153250000Y-108000000D01*
X153350000Y-108000000D02*
X153350000Y-108500000D01*
X155150000Y-108000000D02*
X155350000Y-108000000D01*
X155150000Y-108500000D02*
X155150000Y-108000000D01*
X155250000Y-108500000D02*
X155250000Y-108000000D01*
X155350000Y-108000000D02*
X155350000Y-108500000D01*
X157150000Y-108000000D02*
X157350000Y-108000000D01*
X157150000Y-108500000D02*
X157150000Y-108000000D01*
X157250000Y-108500000D02*
X157250000Y-108000000D01*
X157350000Y-108000000D02*
X157350000Y-108500000D01*
X157750000Y-105000000D02*
X157750000Y-104390000D01*
X159700000Y-105000000D02*
X157750000Y-105000000D01*
X159700000Y-108500000D02*
X159700000Y-105000000D01*
X160310000Y-104390000D02*
X148190000Y-104390000D01*
X160310000Y-105700000D02*
X159700000Y-105700000D01*
X160310000Y-107000000D02*
X159700000Y-107000000D01*
X160310000Y-109110000D02*
X160310000Y-104390000D01*
D13*
%TO.C,Q1*%
X131750000Y-106235000D02*
X136250000Y-106235000D01*
X131750000Y-109265000D02*
X136250000Y-109265000D01*
D14*
X129660000Y-106375000D02*
G75*
G02*
X129460000Y-106375000I-100000J0D01*
G01*
X129460000Y-106375000D02*
G75*
G02*
X129660000Y-106375000I100000J0D01*
G01*
D12*
%TO.C,J13*%
X162970000Y-87530000D02*
X162970000Y-88780000D01*
X163270000Y-87830000D02*
X163270000Y-92550000D01*
X163270000Y-89140000D02*
X163880000Y-89140000D01*
X163270000Y-90440000D02*
X163880000Y-90440000D01*
X163270000Y-92550000D02*
X169390000Y-92550000D01*
X163880000Y-88440000D02*
X163880000Y-91940000D01*
X163880000Y-91940000D02*
X168780000Y-91940000D01*
X164220000Y-87530000D02*
X162970000Y-87530000D01*
X164730000Y-87630000D02*
X164730000Y-87830000D01*
X165030000Y-87630000D02*
X164730000Y-87630000D01*
X165030000Y-87730000D02*
X164730000Y-87730000D01*
X165030000Y-87830000D02*
X165030000Y-87630000D01*
X165830000Y-87830000D02*
X165830000Y-88440000D01*
X165830000Y-88440000D02*
X163880000Y-88440000D01*
X166230000Y-91440000D02*
X166430000Y-91440000D01*
X166230000Y-91940000D02*
X166230000Y-91440000D01*
X166330000Y-91940000D02*
X166330000Y-91440000D01*
X166430000Y-91440000D02*
X166430000Y-91940000D01*
X166830000Y-88440000D02*
X166830000Y-87830000D01*
X168780000Y-88440000D02*
X166830000Y-88440000D01*
X168780000Y-91940000D02*
X168780000Y-88440000D01*
X169390000Y-87830000D02*
X163270000Y-87830000D01*
X169390000Y-89140000D02*
X168780000Y-89140000D01*
X169390000Y-90440000D02*
X168780000Y-90440000D01*
X169390000Y-92550000D02*
X169390000Y-87830000D01*
D15*
%TO.C,G\u002A\u002A\u002A*%
G36*
X152954846Y-97133104D02*
G01*
X153005844Y-97148022D01*
X153053120Y-97171472D01*
X153095608Y-97202614D01*
X153132240Y-97240611D01*
X153161950Y-97284623D01*
X153183672Y-97333811D01*
X153189818Y-97354488D01*
X153195129Y-97384792D01*
X153197540Y-97420493D01*
X153197045Y-97457353D01*
X153193634Y-97491133D01*
X153190112Y-97508444D01*
X153174104Y-97552463D01*
X153150018Y-97595640D01*
X153119646Y-97635618D01*
X153084783Y-97670037D01*
X153047222Y-97696541D01*
X153046909Y-97696718D01*
X153017206Y-97713520D01*
X153017206Y-97816456D01*
X153017206Y-97919392D01*
X153386557Y-97919392D01*
X153755908Y-97919392D01*
X153755908Y-98040787D01*
X153755908Y-98162182D01*
X153307300Y-98162182D01*
X152858692Y-98162182D01*
X152835925Y-98150166D01*
X152813144Y-98133713D01*
X152792983Y-98111168D01*
X152778448Y-98086193D01*
X152774651Y-98075525D01*
X152773198Y-98065026D01*
X152771919Y-98045243D01*
X152770844Y-98017221D01*
X152770004Y-97982007D01*
X152769427Y-97940647D01*
X152769144Y-97894187D01*
X152769125Y-97883232D01*
X152768942Y-97710179D01*
X152737662Y-97692261D01*
X152706255Y-97670138D01*
X152675256Y-97640920D01*
X152647402Y-97607574D01*
X152625429Y-97573071D01*
X152622451Y-97567254D01*
X152601667Y-97514100D01*
X152590969Y-97460373D01*
X152590669Y-97439183D01*
X152754319Y-97439183D01*
X152760816Y-97473491D01*
X152776395Y-97505687D01*
X152800969Y-97534214D01*
X152801103Y-97534335D01*
X152819445Y-97548573D01*
X152839016Y-97560291D01*
X152851180Y-97565497D01*
X152879500Y-97570621D01*
X152910745Y-97569983D01*
X152940246Y-97563917D01*
X152954590Y-97558109D01*
X152987516Y-97536367D01*
X153011612Y-97509271D01*
X153026838Y-97476884D01*
X153033157Y-97439268D01*
X153033349Y-97430840D01*
X153028851Y-97394331D01*
X153016276Y-97362505D01*
X152997004Y-97335882D01*
X152972414Y-97314982D01*
X152943885Y-97300326D01*
X152912795Y-97292432D01*
X152880526Y-97291822D01*
X152848454Y-97299015D01*
X152817960Y-97314532D01*
X152790423Y-97338892D01*
X152790195Y-97339150D01*
X152768922Y-97370455D01*
X152756992Y-97404319D01*
X152754319Y-97439183D01*
X152590669Y-97439183D01*
X152590212Y-97406946D01*
X152599250Y-97354687D01*
X152617937Y-97304466D01*
X152646130Y-97257154D01*
X152680963Y-97216316D01*
X152722847Y-97180327D01*
X152767429Y-97153970D01*
X152815725Y-97136836D01*
X152868751Y-97128515D01*
X152901192Y-97127555D01*
X152954846Y-97133104D01*
G37*
G36*
X153755908Y-99014531D02*
G01*
X153755908Y-99138509D01*
X153675839Y-99138509D01*
X153595770Y-99138509D01*
X153595923Y-99648627D01*
X153596077Y-100158745D01*
X153626599Y-100176220D01*
X153667050Y-100204804D01*
X153703610Y-100241188D01*
X153734331Y-100283024D01*
X153757264Y-100327965D01*
X153761198Y-100338396D01*
X153769403Y-100370345D01*
X153774361Y-100408020D01*
X153775896Y-100447478D01*
X153773834Y-100484777D01*
X153768928Y-100512599D01*
X153750494Y-100564212D01*
X153723978Y-100610648D01*
X153690434Y-100651252D01*
X153650914Y-100685370D01*
X153606470Y-100712349D01*
X153558157Y-100731532D01*
X153507026Y-100742268D01*
X153454131Y-100743901D01*
X153407220Y-100737346D01*
X153355180Y-100720697D01*
X153307828Y-100695484D01*
X153265975Y-100662717D01*
X153230428Y-100623408D01*
X153201996Y-100578568D01*
X153181490Y-100529208D01*
X153169716Y-100476339D01*
X153167102Y-100437231D01*
X153167127Y-100436933D01*
X153331671Y-100436933D01*
X153336263Y-100475465D01*
X153349375Y-100509435D01*
X153370011Y-100537830D01*
X153397175Y-100559637D01*
X153429872Y-100573842D01*
X153467104Y-100579433D01*
X153471792Y-100579477D01*
X153492943Y-100578301D01*
X153512960Y-100575443D01*
X153524351Y-100572521D01*
X153555520Y-100556201D01*
X153580953Y-100532482D01*
X153599842Y-100503045D01*
X153611378Y-100469573D01*
X153614753Y-100433745D01*
X153609159Y-100397245D01*
X153608955Y-100396536D01*
X153594931Y-100365602D01*
X153572938Y-100338129D01*
X153545271Y-100316411D01*
X153515475Y-100303098D01*
X153477696Y-100296871D01*
X153441735Y-100299843D01*
X153408829Y-100311114D01*
X153380214Y-100329783D01*
X153357127Y-100354950D01*
X153340804Y-100385714D01*
X153332483Y-100421176D01*
X153331671Y-100436933D01*
X153167127Y-100436933D01*
X153169978Y-100402590D01*
X153178048Y-100364008D01*
X153190208Y-100325732D01*
X153204286Y-100294016D01*
X153218505Y-100271765D01*
X153238247Y-100247104D01*
X153261225Y-100222367D01*
X153285151Y-100199889D01*
X153307738Y-100182005D01*
X153323191Y-100172631D01*
X153347643Y-100160688D01*
X153349020Y-99570821D01*
X153350397Y-98980954D01*
X153361870Y-98959499D01*
X153373473Y-98942370D01*
X153388384Y-98925886D01*
X153392864Y-98921899D01*
X153403897Y-98913410D01*
X153415131Y-98906594D01*
X153427817Y-98901271D01*
X153443205Y-98897261D01*
X153462548Y-98894381D01*
X153487095Y-98892451D01*
X153518097Y-98891291D01*
X153556806Y-98890719D01*
X153604472Y-98890554D01*
X153609622Y-98890553D01*
X153755908Y-98890553D01*
X153755908Y-99014531D01*
G37*
G36*
X153755908Y-98528951D02*
G01*
X153755908Y-98652929D01*
X153386557Y-98652929D01*
X153017206Y-98652929D01*
X153017218Y-98754952D01*
X153017230Y-98856976D01*
X153046585Y-98872315D01*
X153082157Y-98895965D01*
X153115663Y-98927803D01*
X153145476Y-98965694D01*
X153169970Y-99007503D01*
X153187518Y-99051097D01*
X153190367Y-99061023D01*
X153195180Y-99088348D01*
X153197455Y-99121630D01*
X153197202Y-99156813D01*
X153194430Y-99189840D01*
X153190034Y-99213440D01*
X153171645Y-99264225D01*
X153144618Y-99310694D01*
X153110071Y-99351778D01*
X153069123Y-99386407D01*
X153022893Y-99413511D01*
X152972499Y-99432021D01*
X152957799Y-99435517D01*
X152925501Y-99440362D01*
X152891027Y-99442349D01*
X152859232Y-99441295D01*
X152846736Y-99439720D01*
X152803000Y-99428163D01*
X152758577Y-99408800D01*
X152716766Y-99383357D01*
X152680868Y-99353560D01*
X152679688Y-99352388D01*
X152643750Y-99309498D01*
X152616800Y-99262291D01*
X152599009Y-99211838D01*
X152590550Y-99159210D01*
X152590882Y-99142176D01*
X152754392Y-99142176D01*
X152759795Y-99175572D01*
X152773100Y-99206831D01*
X152793897Y-99234427D01*
X152821777Y-99256836D01*
X152850443Y-99270560D01*
X152884321Y-99277224D01*
X152921378Y-99274387D01*
X152938027Y-99270260D01*
X152969933Y-99255866D01*
X152995831Y-99234423D01*
X153015331Y-99207551D01*
X153028045Y-99176870D01*
X153033584Y-99143999D01*
X153031559Y-99110559D01*
X153021581Y-99078169D01*
X153003262Y-99048451D01*
X152993787Y-99037949D01*
X152965027Y-99016029D01*
X152932408Y-99002648D01*
X152897796Y-98997747D01*
X152863055Y-99001267D01*
X152830051Y-99013148D01*
X152800650Y-99033331D01*
X152789694Y-99044417D01*
X152768932Y-99075073D01*
X152757301Y-99108168D01*
X152754392Y-99142176D01*
X152590882Y-99142176D01*
X152591597Y-99105479D01*
X152602321Y-99051716D01*
X152622818Y-98999148D01*
X152638844Y-98972335D01*
X152660459Y-98944155D01*
X152685359Y-98917036D01*
X152711238Y-98893408D01*
X152735792Y-98875698D01*
X152744467Y-98870942D01*
X152768759Y-98859079D01*
X152770296Y-98677226D01*
X152771832Y-98495373D01*
X152784747Y-98472368D01*
X152804877Y-98446034D01*
X152831471Y-98425192D01*
X152861571Y-98412054D01*
X152867431Y-98410614D01*
X152877912Y-98409434D01*
X152897766Y-98408396D01*
X152927110Y-98407498D01*
X152966061Y-98406739D01*
X153014737Y-98406117D01*
X153073254Y-98405631D01*
X153141731Y-98405280D01*
X153220285Y-98405061D01*
X153309032Y-98404974D01*
X153324822Y-98404972D01*
X153755908Y-98404972D01*
X153755908Y-98528951D01*
G37*
G36*
X153532931Y-95857765D02*
G01*
X153586241Y-95871826D01*
X153635405Y-95895335D01*
X153680572Y-95928355D01*
X153697052Y-95943739D01*
X153730503Y-95983470D01*
X153757675Y-96029000D01*
X153777584Y-96078037D01*
X153789243Y-96128289D01*
X153791979Y-96164546D01*
X153789230Y-96199424D01*
X153781447Y-96238430D01*
X153769663Y-96277331D01*
X153757019Y-96307677D01*
X153739511Y-96336926D01*
X153715600Y-96367588D01*
X153687785Y-96397058D01*
X153658568Y-96422732D01*
X153630449Y-96442004D01*
X153625485Y-96444702D01*
X153595794Y-96460067D01*
X153595782Y-96946939D01*
X153595770Y-97433811D01*
X153675839Y-97433811D01*
X153755908Y-97433811D01*
X153755908Y-97555206D01*
X153755908Y-97676602D01*
X153596582Y-97676602D01*
X153551788Y-97676582D01*
X153516094Y-97676468D01*
X153488269Y-97676178D01*
X153467081Y-97675633D01*
X153451299Y-97674749D01*
X153439692Y-97673446D01*
X153431028Y-97671643D01*
X153424077Y-97669259D01*
X153417606Y-97666212D01*
X153414489Y-97664585D01*
X153391709Y-97648132D01*
X153371547Y-97625587D01*
X153357013Y-97600613D01*
X153353215Y-97589945D01*
X153352237Y-97581096D01*
X153351356Y-97561978D01*
X153350571Y-97532649D01*
X153349884Y-97493172D01*
X153349295Y-97443606D01*
X153348804Y-97384013D01*
X153348413Y-97314453D01*
X153348121Y-97234986D01*
X153347929Y-97145674D01*
X153347838Y-97046577D01*
X153347830Y-97012802D01*
X153347789Y-96454901D01*
X153318098Y-96439490D01*
X153285290Y-96418073D01*
X153253068Y-96389066D01*
X153223852Y-96355046D01*
X153200061Y-96318592D01*
X153194397Y-96307677D01*
X153179091Y-96272991D01*
X153169199Y-96241484D01*
X153163777Y-96208993D01*
X153161885Y-96171357D01*
X153161856Y-96165619D01*
X153325088Y-96165619D01*
X153329928Y-96204563D01*
X153343220Y-96239152D01*
X153363729Y-96268528D01*
X153390217Y-96291835D01*
X153421447Y-96308215D01*
X153456181Y-96316812D01*
X153493182Y-96316766D01*
X153530077Y-96307653D01*
X153562868Y-96290225D01*
X153589472Y-96265728D01*
X153609269Y-96235798D01*
X153621635Y-96202071D01*
X153625949Y-96166184D01*
X153621588Y-96129773D01*
X153609780Y-96097999D01*
X153588466Y-96066477D01*
X153561232Y-96042294D01*
X153529674Y-96025703D01*
X153495392Y-96016958D01*
X153459983Y-96016313D01*
X153425045Y-96024020D01*
X153392177Y-96040334D01*
X153368477Y-96059721D01*
X153344585Y-96089822D01*
X153330292Y-96123199D01*
X153325120Y-96161020D01*
X153325088Y-96165619D01*
X153161856Y-96165619D01*
X153161847Y-96163867D01*
X153166595Y-96107121D01*
X153180871Y-96054347D01*
X153204721Y-96005411D01*
X153229950Y-95969883D01*
X153270343Y-95928124D01*
X153315690Y-95895365D01*
X153365569Y-95871806D01*
X153419558Y-95857650D01*
X153475326Y-95853091D01*
X153532931Y-95857765D01*
G37*
G36*
X157096844Y-96272991D02*
G01*
X157222907Y-96282576D01*
X157281533Y-96289850D01*
X157417386Y-96314079D01*
X157552070Y-96348273D01*
X157684386Y-96392065D01*
X157813133Y-96445089D01*
X157856123Y-96465273D01*
X157912009Y-96493010D01*
X157961297Y-96519027D01*
X158007105Y-96545119D01*
X158052550Y-96573076D01*
X158100751Y-96604694D01*
X158113219Y-96613123D01*
X158228187Y-96697444D01*
X158336552Y-96789616D01*
X158437915Y-96889238D01*
X158531877Y-96995911D01*
X158618040Y-97109235D01*
X158640629Y-97141977D01*
X158716590Y-97263637D01*
X158783237Y-97389706D01*
X158840464Y-97519919D01*
X158888170Y-97654009D01*
X158926251Y-97791709D01*
X158954605Y-97932753D01*
X158960155Y-97968466D01*
X158966940Y-98024458D01*
X158972106Y-98087269D01*
X158975627Y-98154579D01*
X158977480Y-98224064D01*
X158977639Y-98293400D01*
X158976080Y-98360265D01*
X158972778Y-98422336D01*
X158967709Y-98477290D01*
X158965737Y-98492790D01*
X158942638Y-98631576D01*
X158912205Y-98763792D01*
X158874032Y-98890532D01*
X158827713Y-99012891D01*
X158772841Y-99131962D01*
X158709010Y-99248842D01*
X158649924Y-99343472D01*
X158568096Y-99458308D01*
X158478722Y-99566351D01*
X158382278Y-99667317D01*
X158279239Y-99760925D01*
X158170081Y-99846892D01*
X158055280Y-99924937D01*
X157935309Y-99994776D01*
X157810646Y-100056128D01*
X157681765Y-100108712D01*
X157549142Y-100152243D01*
X157413252Y-100186442D01*
X157274571Y-100211024D01*
X157167887Y-100223078D01*
X157145645Y-100224468D01*
X157115595Y-100225615D01*
X157079846Y-100226506D01*
X157040508Y-100227128D01*
X156999692Y-100227468D01*
X156959507Y-100227512D01*
X156922063Y-100227248D01*
X156889471Y-100226663D01*
X156863841Y-100225743D01*
X156852776Y-100225033D01*
X156707705Y-100208202D01*
X156567059Y-100182081D01*
X156430532Y-100146565D01*
X156297819Y-100101550D01*
X156168616Y-100046929D01*
X156042616Y-99982600D01*
X155919516Y-99908456D01*
X155906528Y-99899953D01*
X155791780Y-99818126D01*
X155683712Y-99728654D01*
X155582634Y-99632027D01*
X155488857Y-99528735D01*
X155402690Y-99419266D01*
X155324442Y-99304109D01*
X155254424Y-99183754D01*
X155192944Y-99058689D01*
X155140314Y-98929405D01*
X155096841Y-98796389D01*
X155062837Y-98660131D01*
X155040068Y-98531533D01*
X155026847Y-98409696D01*
X155021090Y-98283902D01*
X155021899Y-98223923D01*
X155835767Y-98223923D01*
X155838319Y-98330738D01*
X155850704Y-98438066D01*
X155873132Y-98545310D01*
X155873649Y-98547314D01*
X155905248Y-98648891D01*
X155946460Y-98747378D01*
X155996823Y-98841970D01*
X156055872Y-98931860D01*
X156123146Y-99016240D01*
X156174163Y-99070874D01*
X156254558Y-99144438D01*
X156340865Y-99209846D01*
X156432411Y-99266787D01*
X156528525Y-99314952D01*
X156628535Y-99354031D01*
X156731766Y-99383714D01*
X156837548Y-99403692D01*
X156914195Y-99411840D01*
X156945083Y-99414043D01*
X156968530Y-99415519D01*
X156987398Y-99416275D01*
X157004551Y-99416316D01*
X157022853Y-99415648D01*
X157045167Y-99414277D01*
X157074358Y-99412208D01*
X157074903Y-99412169D01*
X157186744Y-99399253D01*
X157294431Y-99376890D01*
X157397940Y-99345090D01*
X157497243Y-99303860D01*
X157592315Y-99253209D01*
X157628145Y-99230966D01*
X157716905Y-99167686D01*
X157798166Y-99097787D01*
X157871762Y-99021868D01*
X157937529Y-98940525D01*
X157995301Y-98854356D01*
X158044913Y-98763958D01*
X158086200Y-98669929D01*
X158118997Y-98572866D01*
X158143140Y-98473367D01*
X158158463Y-98372028D01*
X158164801Y-98269447D01*
X158161990Y-98166221D01*
X158149864Y-98062948D01*
X158128258Y-97960226D01*
X158097008Y-97858651D01*
X158055948Y-97758820D01*
X158042479Y-97730878D01*
X157988852Y-97634558D01*
X157927206Y-97544749D01*
X157857613Y-97461535D01*
X157780144Y-97385000D01*
X157694871Y-97315228D01*
X157684462Y-97307565D01*
X157594074Y-97247966D01*
X157499800Y-97197644D01*
X157402294Y-97156594D01*
X157302211Y-97124813D01*
X157200207Y-97102297D01*
X157096936Y-97089044D01*
X156993054Y-97085049D01*
X156889216Y-97090309D01*
X156786077Y-97104821D01*
X156684291Y-97128581D01*
X156584515Y-97161585D01*
X156487403Y-97203830D01*
X156393610Y-97255312D01*
X156305206Y-97314975D01*
X156220895Y-97383909D01*
X156144331Y-97459312D01*
X156075723Y-97540587D01*
X156015281Y-97627140D01*
X155963211Y-97718374D01*
X155919724Y-97813695D01*
X155885028Y-97912505D01*
X155859330Y-98014210D01*
X155842841Y-98118215D01*
X155835767Y-98223923D01*
X155021899Y-98223923D01*
X155022797Y-98157291D01*
X155031969Y-98033002D01*
X155039953Y-97968466D01*
X155065025Y-97828837D01*
X155100074Y-97691844D01*
X155145036Y-97557705D01*
X155199842Y-97426638D01*
X155215093Y-97394336D01*
X155243190Y-97337621D01*
X155269710Y-97287436D01*
X155296503Y-97240565D01*
X155325418Y-97193790D01*
X155358304Y-97143894D01*
X155363123Y-97136780D01*
X155446948Y-97022465D01*
X155538220Y-96915049D01*
X155636471Y-96814827D01*
X155741230Y-96722091D01*
X155852028Y-96637136D01*
X155968396Y-96560253D01*
X156089863Y-96491738D01*
X156215961Y-96431882D01*
X156346219Y-96380980D01*
X156480169Y-96339325D01*
X156617340Y-96307209D01*
X156718466Y-96290068D01*
X156841627Y-96276739D01*
X156968752Y-96271046D01*
X157096844Y-96272991D01*
G37*
G36*
X157168415Y-93333992D02*
G01*
X157344426Y-93342646D01*
X157444255Y-93350568D01*
X157667748Y-93376104D01*
X157889201Y-93411697D01*
X158108296Y-93457217D01*
X158324714Y-93512532D01*
X158538136Y-93577513D01*
X158748242Y-93652029D01*
X158954714Y-93735951D01*
X159157233Y-93829146D01*
X159355480Y-93931486D01*
X159549136Y-94042840D01*
X159737882Y-94163077D01*
X159921399Y-94292068D01*
X160099368Y-94429680D01*
X160114948Y-94442358D01*
X160223369Y-94534203D01*
X160333477Y-94633692D01*
X160443351Y-94738886D01*
X160551072Y-94847850D01*
X160654718Y-94958646D01*
X160752368Y-95069338D01*
X160832559Y-95166046D01*
X160970394Y-95345942D01*
X161099424Y-95531172D01*
X161219540Y-95721528D01*
X161330636Y-95916798D01*
X161432603Y-96116773D01*
X161525336Y-96321244D01*
X161608726Y-96529999D01*
X161682666Y-96742830D01*
X161744135Y-96948883D01*
X161797784Y-97163115D01*
X161841733Y-97380324D01*
X161876025Y-97600777D01*
X161900703Y-97824740D01*
X161912548Y-97988411D01*
X161916079Y-98069937D01*
X161917962Y-98159126D01*
X161918243Y-98253450D01*
X161916970Y-98350380D01*
X161914189Y-98447388D01*
X161909947Y-98541946D01*
X161904290Y-98631525D01*
X161899588Y-98689089D01*
X161874118Y-98913746D01*
X161838622Y-99136103D01*
X161793203Y-99355899D01*
X161737964Y-99572868D01*
X161673009Y-99786749D01*
X161598439Y-99997277D01*
X161514360Y-100204189D01*
X161420872Y-100407222D01*
X161318080Y-100606112D01*
X161206087Y-100800596D01*
X161084996Y-100990410D01*
X160954909Y-101175292D01*
X160896254Y-101253180D01*
X160790685Y-101384993D01*
X160676602Y-101517023D01*
X160555642Y-101647571D01*
X160429443Y-101774940D01*
X160299642Y-101897430D01*
X160167877Y-102013345D01*
X160142968Y-102034306D01*
X159970039Y-102172075D01*
X159791073Y-102301590D01*
X159606437Y-102422710D01*
X159416495Y-102535291D01*
X159221612Y-102639190D01*
X159022155Y-102734264D01*
X158818487Y-102820370D01*
X158610974Y-102897365D01*
X158399981Y-102965106D01*
X158185873Y-103023450D01*
X157969016Y-103072253D01*
X157749775Y-103111373D01*
X157528514Y-103140666D01*
X157305599Y-103159990D01*
X157263453Y-103162502D01*
X157238661Y-103163555D01*
X157205772Y-103164473D01*
X157166377Y-103165250D01*
X157122065Y-103165880D01*
X157074427Y-103166357D01*
X157025052Y-103166675D01*
X156975532Y-103166828D01*
X156927454Y-103166810D01*
X156882410Y-103166615D01*
X156841990Y-103166237D01*
X156807782Y-103165670D01*
X156781379Y-103164908D01*
X156770124Y-103164366D01*
X156698806Y-103159877D01*
X156635770Y-103155518D01*
X156578971Y-103151090D01*
X156526365Y-103146391D01*
X156475907Y-103141224D01*
X156425553Y-103135388D01*
X156373259Y-103128685D01*
X156316980Y-103120914D01*
X156300041Y-103118492D01*
X156077239Y-103081263D01*
X155857212Y-103034119D01*
X155640205Y-102977166D01*
X155426463Y-102910506D01*
X155216233Y-102834244D01*
X155009760Y-102748484D01*
X154807291Y-102653329D01*
X154609070Y-102548883D01*
X154415343Y-102435249D01*
X154226358Y-102312532D01*
X154042358Y-102180835D01*
X153996820Y-102146254D01*
X153913741Y-102080995D01*
X153834175Y-102015442D01*
X153756185Y-101947883D01*
X153677835Y-101876605D01*
X153597191Y-101799899D01*
X153528174Y-101731932D01*
X153442210Y-101644645D01*
X153363206Y-101561194D01*
X153289535Y-101479673D01*
X153219568Y-101398177D01*
X153151676Y-101314800D01*
X153084230Y-101227637D01*
X153015603Y-101134782D01*
X153003371Y-101117832D01*
X152877744Y-100934384D01*
X152760691Y-100745369D01*
X152652368Y-100551211D01*
X152552932Y-100352334D01*
X152462538Y-100149162D01*
X152381344Y-99942118D01*
X152309505Y-99731627D01*
X152247178Y-99518112D01*
X152194520Y-99301997D01*
X152151686Y-99083707D01*
X152118833Y-98863665D01*
X152097827Y-98663260D01*
X152089083Y-98534095D01*
X152083746Y-98398358D01*
X152082015Y-98273523D01*
X152326319Y-98273523D01*
X152332379Y-98490206D01*
X152348491Y-98706470D01*
X152374666Y-98921935D01*
X152410915Y-99136219D01*
X152457247Y-99348944D01*
X152490432Y-99477654D01*
X152552282Y-99684983D01*
X152623671Y-99889433D01*
X152704296Y-100090340D01*
X152793855Y-100287038D01*
X152892046Y-100478861D01*
X152998565Y-100665143D01*
X153109621Y-100840004D01*
X153197312Y-100967393D01*
X153285247Y-101087095D01*
X153375237Y-101201314D01*
X153469094Y-101312253D01*
X153568630Y-101422118D01*
X153675656Y-101533112D01*
X153696144Y-101553668D01*
X153732357Y-101589539D01*
X153768796Y-101625098D01*
X153804553Y-101659499D01*
X153838717Y-101691895D01*
X153870380Y-101721441D01*
X153898632Y-101747289D01*
X153922565Y-101768593D01*
X153941268Y-101784507D01*
X153953833Y-101794185D01*
X153956083Y-101795635D01*
X153956584Y-101794170D01*
X153957060Y-101789008D01*
X153957512Y-101779922D01*
X153957940Y-101766685D01*
X153958344Y-101749070D01*
X153958726Y-101726847D01*
X153959085Y-101699790D01*
X153959423Y-101667670D01*
X153959739Y-101630261D01*
X153960035Y-101587334D01*
X153960311Y-101538662D01*
X153960567Y-101484017D01*
X153960805Y-101423172D01*
X153961024Y-101355898D01*
X153961226Y-101281967D01*
X153961410Y-101201153D01*
X153961577Y-101113228D01*
X153961728Y-101017963D01*
X153961864Y-100915132D01*
X153961985Y-100804506D01*
X153962089Y-100688841D01*
X155186793Y-100688841D01*
X155188099Y-101624012D01*
X155189404Y-102559182D01*
X155220399Y-102571836D01*
X155424907Y-102649923D01*
X155632225Y-102718415D01*
X155841886Y-102777231D01*
X156053426Y-102826290D01*
X156266382Y-102865510D01*
X156480288Y-102894808D01*
X156694681Y-102914104D01*
X156909095Y-102923314D01*
X157123065Y-102922359D01*
X157196298Y-102919673D01*
X157418524Y-102904629D01*
X157638129Y-102879593D01*
X157855138Y-102844560D01*
X158069573Y-102799527D01*
X158281458Y-102744489D01*
X158485153Y-102681344D01*
X158518792Y-102669876D01*
X158555076Y-102657174D01*
X158592682Y-102643733D01*
X158630285Y-102630050D01*
X158666560Y-102616621D01*
X158700183Y-102603943D01*
X158729830Y-102592512D01*
X158754175Y-102582824D01*
X158771894Y-102575376D01*
X158781663Y-102570663D01*
X158782979Y-102569732D01*
X158780844Y-102564921D01*
X158773801Y-102551646D01*
X158762122Y-102530383D01*
X158746078Y-102501609D01*
X158725940Y-102465800D01*
X158701978Y-102423432D01*
X158674466Y-102374981D01*
X158643672Y-102320923D01*
X158609870Y-102261735D01*
X158573329Y-102197892D01*
X158534321Y-102129872D01*
X158493116Y-102058150D01*
X158449987Y-101983202D01*
X158405205Y-101905504D01*
X158373228Y-101850099D01*
X157959838Y-101134214D01*
X157894470Y-101154347D01*
X157775016Y-101188070D01*
X157648711Y-101217982D01*
X157518520Y-101243495D01*
X157387409Y-101264018D01*
X157276368Y-101277210D01*
X157245506Y-101279659D01*
X157206244Y-101281766D01*
X157160508Y-101283509D01*
X157110225Y-101284865D01*
X157057319Y-101285812D01*
X157003718Y-101286326D01*
X156951348Y-101286385D01*
X156902134Y-101285966D01*
X156858004Y-101285048D01*
X156820883Y-101283607D01*
X156806251Y-101282731D01*
X156636629Y-101266671D01*
X156471408Y-101242113D01*
X156308621Y-101208696D01*
X156146304Y-101166061D01*
X156109285Y-101155051D01*
X155963091Y-101106066D01*
X155816558Y-101048055D01*
X155671578Y-100981950D01*
X155530044Y-100908681D01*
X155393849Y-100829177D01*
X155264884Y-100744368D01*
X155244922Y-100730279D01*
X155186793Y-100688841D01*
X153962089Y-100688841D01*
X153962092Y-100685857D01*
X153962184Y-100558959D01*
X153962263Y-100423582D01*
X153962330Y-100279501D01*
X153962384Y-100126486D01*
X153962427Y-99964311D01*
X153962459Y-99792747D01*
X153962480Y-99611566D01*
X153962491Y-99420542D01*
X153962493Y-99219447D01*
X153962492Y-99190204D01*
X153962497Y-98970718D01*
X153962518Y-98761454D01*
X153962557Y-98562304D01*
X153962614Y-98373157D01*
X153962666Y-98250000D01*
X154781310Y-98250000D01*
X154781461Y-98307785D01*
X154782002Y-98357112D01*
X154783067Y-98399850D01*
X154784788Y-98437868D01*
X154787300Y-98473035D01*
X154790734Y-98507223D01*
X154795224Y-98542299D01*
X154800904Y-98580134D01*
X154807793Y-98621934D01*
X154837991Y-98769477D01*
X154877817Y-98913692D01*
X154926993Y-99054177D01*
X154985237Y-99190532D01*
X155052271Y-99322357D01*
X155127815Y-99449251D01*
X155211590Y-99570813D01*
X155303316Y-99686643D01*
X155402714Y-99796340D01*
X155509503Y-99899503D01*
X155623405Y-99995733D01*
X155744141Y-100084628D01*
X155871429Y-100165788D01*
X155894529Y-100179264D01*
X156001396Y-100236436D01*
X156115000Y-100289166D01*
X156232380Y-100336260D01*
X156350575Y-100376521D01*
X156456833Y-100406335D01*
X156600586Y-100437398D01*
X156744777Y-100458707D01*
X156890354Y-100470339D01*
X157038267Y-100472372D01*
X157180801Y-100465560D01*
X157325414Y-100449413D01*
X157469661Y-100423261D01*
X157612530Y-100387409D01*
X157753006Y-100342163D01*
X157890074Y-100287828D01*
X158022721Y-100224710D01*
X158077290Y-100195421D01*
X158206944Y-100117508D01*
X158330534Y-100031359D01*
X158447709Y-99937345D01*
X158558115Y-99835839D01*
X158661400Y-99727215D01*
X158757213Y-99611845D01*
X158845201Y-99490100D01*
X158925011Y-99362355D01*
X158996291Y-99228982D01*
X159001900Y-99217491D01*
X159062721Y-99080160D01*
X159113977Y-98938950D01*
X159155646Y-98793945D01*
X159187705Y-98645230D01*
X159210130Y-98492888D01*
X159216182Y-98433384D01*
X159218388Y-98400627D01*
X159220004Y-98359934D01*
X159221030Y-98313684D01*
X159221470Y-98264254D01*
X159221323Y-98214025D01*
X159220590Y-98165375D01*
X159219273Y-98120681D01*
X159217373Y-98082324D01*
X159216014Y-98064033D01*
X159197632Y-97912078D01*
X159169234Y-97762528D01*
X159130914Y-97615687D01*
X159082764Y-97471858D01*
X159024878Y-97331343D01*
X158957349Y-97194447D01*
X158937083Y-97157443D01*
X158912638Y-97115730D01*
X158883176Y-97068628D01*
X158850377Y-97018619D01*
X158815919Y-96968185D01*
X158781482Y-96919804D01*
X158748744Y-96875958D01*
X158732530Y-96855247D01*
X158704503Y-96821779D01*
X158670222Y-96783430D01*
X158631313Y-96741826D01*
X158589402Y-96698595D01*
X158546113Y-96655361D01*
X158503072Y-96613751D01*
X158461906Y-96575391D01*
X158424239Y-96541907D01*
X158394753Y-96517348D01*
X158271734Y-96425788D01*
X158143851Y-96343294D01*
X158011415Y-96269990D01*
X157874740Y-96206002D01*
X157734137Y-96151452D01*
X157589918Y-96106466D01*
X157442394Y-96071168D01*
X157291879Y-96045683D01*
X157181591Y-96033458D01*
X157144841Y-96031132D01*
X157100224Y-96029696D01*
X157049826Y-96029103D01*
X156995733Y-96029308D01*
X156940030Y-96030267D01*
X156884803Y-96031932D01*
X156832138Y-96034259D01*
X156784120Y-96037202D01*
X156742836Y-96040716D01*
X156718466Y-96043571D01*
X156565756Y-96069480D01*
X156416774Y-96104858D01*
X156271797Y-96149583D01*
X156131101Y-96203528D01*
X155994964Y-96266569D01*
X155863661Y-96338580D01*
X155737470Y-96419437D01*
X155616667Y-96509015D01*
X155532927Y-96579064D01*
X155501369Y-96607790D01*
X155465562Y-96642035D01*
X155427513Y-96679747D01*
X155389229Y-96718876D01*
X155352716Y-96757372D01*
X155319980Y-96793182D01*
X155293032Y-96824253D01*
X155201123Y-96942378D01*
X155117433Y-97066505D01*
X155042245Y-97196018D01*
X154975842Y-97330304D01*
X154918505Y-97468747D01*
X154870520Y-97610733D01*
X154832167Y-97755649D01*
X154807793Y-97878066D01*
X154800812Y-97920448D01*
X154795150Y-97958229D01*
X154790676Y-97993279D01*
X154787257Y-98027467D01*
X154784758Y-98062664D01*
X154783047Y-98100737D01*
X154781990Y-98143558D01*
X154781456Y-98192995D01*
X154781310Y-98250000D01*
X153962666Y-98250000D01*
X153962689Y-98193906D01*
X153962782Y-98024440D01*
X153962894Y-97864651D01*
X153963024Y-97714430D01*
X153963174Y-97573667D01*
X153963342Y-97442253D01*
X153963530Y-97320079D01*
X153963737Y-97207036D01*
X153963964Y-97103015D01*
X153964211Y-97007907D01*
X153964478Y-96921602D01*
X153964766Y-96843992D01*
X153965075Y-96774967D01*
X153965404Y-96714418D01*
X153965755Y-96662236D01*
X153966127Y-96618312D01*
X153966520Y-96582537D01*
X153966936Y-96554801D01*
X153967373Y-96534995D01*
X153967833Y-96523011D01*
X153968013Y-96520496D01*
X153983838Y-96402849D01*
X154009318Y-96286327D01*
X154044044Y-96172044D01*
X154087606Y-96061113D01*
X154139598Y-95954647D01*
X154199610Y-95853760D01*
X154227903Y-95812197D01*
X154302326Y-95715865D01*
X154383614Y-95626997D01*
X154471327Y-95545887D01*
X154565026Y-95472827D01*
X154664273Y-95408108D01*
X154768626Y-95352025D01*
X154877648Y-95304868D01*
X154990898Y-95266932D01*
X155080923Y-95244141D01*
X155096480Y-95240697D01*
X155110628Y-95237535D01*
X155123841Y-95234645D01*
X155136597Y-95232014D01*
X155149371Y-95229629D01*
X155162640Y-95227479D01*
X155176879Y-95225551D01*
X155192564Y-95223834D01*
X155210171Y-95222316D01*
X155230177Y-95220983D01*
X155253058Y-95219825D01*
X155279289Y-95218829D01*
X155309346Y-95217982D01*
X155343706Y-95217274D01*
X155382844Y-95216691D01*
X155427237Y-95216222D01*
X155477360Y-95215855D01*
X155533690Y-95215577D01*
X155596702Y-95215376D01*
X155666873Y-95215240D01*
X155744679Y-95215158D01*
X155830595Y-95215117D01*
X155925098Y-95215104D01*
X156028664Y-95215109D01*
X156141768Y-95215118D01*
X156222554Y-95215121D01*
X156342607Y-95215119D01*
X156452829Y-95215121D01*
X156553720Y-95215138D01*
X156645781Y-95215181D01*
X156729513Y-95215260D01*
X156805416Y-95215387D01*
X156873991Y-95215573D01*
X156935738Y-95215829D01*
X156991158Y-95216165D01*
X157040750Y-95216593D01*
X157085017Y-95217124D01*
X157124458Y-95217768D01*
X157159573Y-95218537D01*
X157190864Y-95219442D01*
X157218831Y-95220494D01*
X157243974Y-95221703D01*
X157266794Y-95223081D01*
X157287791Y-95224638D01*
X157307467Y-95226386D01*
X157326320Y-95228335D01*
X157344853Y-95230498D01*
X157363565Y-95232883D01*
X157382958Y-95235504D01*
X157403530Y-95238370D01*
X157425784Y-95241492D01*
X157426174Y-95241547D01*
X157597543Y-95270705D01*
X157767038Y-95309865D01*
X157934120Y-95358782D01*
X158098249Y-95417213D01*
X158258883Y-95484912D01*
X158415482Y-95561637D01*
X158567506Y-95647143D01*
X158714415Y-95741186D01*
X158855666Y-95843522D01*
X158975900Y-95941134D01*
X159004165Y-95966170D01*
X159037820Y-95997351D01*
X159075337Y-96033149D01*
X159115188Y-96072037D01*
X159155844Y-96112486D01*
X159195779Y-96152969D01*
X159233463Y-96191956D01*
X159267369Y-96227921D01*
X159295969Y-96259336D01*
X159308866Y-96274100D01*
X159415981Y-96406973D01*
X159516155Y-96547041D01*
X159608848Y-96693390D01*
X159693522Y-96845108D01*
X159769638Y-97001281D01*
X159836657Y-97160995D01*
X159845165Y-97183272D01*
X159899536Y-97341363D01*
X159945497Y-97505005D01*
X159982899Y-97673548D01*
X160011594Y-97846340D01*
X160028119Y-97986547D01*
X160030196Y-98014801D01*
X160031894Y-98051656D01*
X160033215Y-98095388D01*
X160034157Y-98144272D01*
X160034720Y-98196585D01*
X160034905Y-98250603D01*
X160034712Y-98304602D01*
X160034140Y-98356858D01*
X160033190Y-98405646D01*
X160031861Y-98449244D01*
X160030154Y-98485926D01*
X160028119Y-98513453D01*
X160005583Y-98694913D01*
X159973555Y-98872315D01*
X159932042Y-99045639D01*
X159881052Y-99214867D01*
X159820592Y-99379978D01*
X159750670Y-99540952D01*
X159671294Y-99697769D01*
X159582472Y-99850409D01*
X159484210Y-99998853D01*
X159422914Y-100082997D01*
X159386681Y-100130321D01*
X159352067Y-100173799D01*
X159317568Y-100215136D01*
X159281675Y-100256040D01*
X159242885Y-100298214D01*
X159199690Y-100343367D01*
X159150585Y-100393203D01*
X159137718Y-100406086D01*
X159109159Y-100434769D01*
X159083173Y-100461166D01*
X159060610Y-100484390D01*
X159042322Y-100503550D01*
X159029161Y-100517759D01*
X159021979Y-100526127D01*
X159020895Y-100527979D01*
X159024121Y-100534055D01*
X159032154Y-100548383D01*
X159044658Y-100570386D01*
X159061298Y-100599484D01*
X159081738Y-100635100D01*
X159105642Y-100676655D01*
X159132676Y-100723570D01*
X159162503Y-100775267D01*
X159194788Y-100831167D01*
X159229196Y-100890692D01*
X159265390Y-100953264D01*
X159303036Y-101018303D01*
X159341798Y-101085232D01*
X159381340Y-101153471D01*
X159421326Y-101222443D01*
X159461422Y-101291568D01*
X159501292Y-101360269D01*
X159540600Y-101427967D01*
X159579010Y-101494082D01*
X159616187Y-101558038D01*
X159651796Y-101619254D01*
X159685501Y-101677153D01*
X159716966Y-101731157D01*
X159745856Y-101780686D01*
X159771836Y-101825162D01*
X159794569Y-101864007D01*
X159813720Y-101896642D01*
X159828955Y-101922489D01*
X159839936Y-101940969D01*
X159846329Y-101951503D01*
X159847906Y-101953844D01*
X159853333Y-101950806D01*
X159865101Y-101942520D01*
X159881512Y-101930229D01*
X159900867Y-101915176D01*
X159902149Y-101914161D01*
X160070096Y-101774519D01*
X160230974Y-101627455D01*
X160384563Y-101473280D01*
X160530647Y-101312305D01*
X160669007Y-101144842D01*
X160799424Y-100971200D01*
X160921681Y-100791691D01*
X161035559Y-100606626D01*
X161140841Y-100416315D01*
X161237308Y-100221070D01*
X161324742Y-100021202D01*
X161402925Y-99817021D01*
X161431683Y-99733842D01*
X161496228Y-99525162D01*
X161550751Y-99314375D01*
X161595261Y-99101844D01*
X161629771Y-98887931D01*
X161654290Y-98672996D01*
X161668828Y-98457402D01*
X161673396Y-98241509D01*
X161668004Y-98025681D01*
X161652663Y-97810278D01*
X161627382Y-97595662D01*
X161592173Y-97382195D01*
X161547046Y-97170238D01*
X161492011Y-96960153D01*
X161427078Y-96752302D01*
X161352258Y-96547046D01*
X161339305Y-96514307D01*
X161252866Y-96312004D01*
X161157411Y-96114733D01*
X161052930Y-95922474D01*
X160939411Y-95735211D01*
X160816842Y-95552924D01*
X160685213Y-95375596D01*
X160544512Y-95203207D01*
X160487464Y-95137635D01*
X160461741Y-95109321D01*
X160429851Y-95075393D01*
X160393203Y-95037260D01*
X160353205Y-94996332D01*
X160311268Y-94954018D01*
X160268800Y-94911728D01*
X160227211Y-94870870D01*
X160187911Y-94832855D01*
X160152309Y-94799091D01*
X160121813Y-94770988D01*
X160112365Y-94762536D01*
X159942602Y-94618955D01*
X159767537Y-94484105D01*
X159587369Y-94358100D01*
X159402299Y-94241058D01*
X159212530Y-94133095D01*
X159018260Y-94034327D01*
X158819691Y-93944871D01*
X158617024Y-93864843D01*
X158482571Y-93817730D01*
X158271118Y-93752661D01*
X158058013Y-93697761D01*
X157843492Y-93653039D01*
X157627789Y-93618506D01*
X157411142Y-93594174D01*
X157193787Y-93580053D01*
X156975958Y-93576153D01*
X156757892Y-93582485D01*
X156539824Y-93599061D01*
X156321991Y-93625889D01*
X156104629Y-93662982D01*
X155923366Y-93701896D01*
X155719002Y-93755081D01*
X155516247Y-93818131D01*
X155315790Y-93890706D01*
X155118316Y-93972468D01*
X154924513Y-94063079D01*
X154735067Y-94162199D01*
X154550666Y-94269490D01*
X154371997Y-94384614D01*
X154199747Y-94507231D01*
X154046563Y-94627163D01*
X153912557Y-94741528D01*
X153779998Y-94863515D01*
X153651017Y-94991007D01*
X153527749Y-95121885D01*
X153412327Y-95254029D01*
X153397384Y-95271944D01*
X153265278Y-95439234D01*
X153140571Y-95613448D01*
X153023611Y-95793957D01*
X152914743Y-95980135D01*
X152814316Y-96171354D01*
X152722677Y-96366988D01*
X152640173Y-96566408D01*
X152567150Y-96768987D01*
X152564500Y-96776942D01*
X152500483Y-96985914D01*
X152446446Y-97197128D01*
X152402399Y-97410203D01*
X152368352Y-97624761D01*
X152344316Y-97840421D01*
X152330302Y-98056801D01*
X152326319Y-98273523D01*
X152082015Y-98273523D01*
X152081817Y-98259230D01*
X152083296Y-98119892D01*
X152088182Y-97983525D01*
X152096477Y-97853310D01*
X152097827Y-97836740D01*
X152121533Y-97615216D01*
X152155368Y-97395101D01*
X152199179Y-97176809D01*
X152252813Y-96960756D01*
X152316117Y-96747355D01*
X152388939Y-96537021D01*
X152471124Y-96330169D01*
X152562521Y-96127214D01*
X152662976Y-95928570D01*
X152772336Y-95734651D01*
X152890448Y-95545873D01*
X153004149Y-95380651D01*
X153075225Y-95283936D01*
X153145436Y-95192870D01*
X153216412Y-95105544D01*
X153289787Y-95020049D01*
X153367194Y-94934474D01*
X153450266Y-94846912D01*
X153528116Y-94767929D01*
X153625975Y-94672279D01*
X153721046Y-94583810D01*
X153815499Y-94500641D01*
X153911502Y-94420888D01*
X154011223Y-94342667D01*
X154060687Y-94305379D01*
X154243871Y-94175353D01*
X154432375Y-94054085D01*
X154625857Y-93941712D01*
X154823976Y-93838368D01*
X155026389Y-93744187D01*
X155232756Y-93659305D01*
X155442735Y-93583855D01*
X155655984Y-93517974D01*
X155872162Y-93461795D01*
X156090927Y-93415453D01*
X156311937Y-93379083D01*
X156455013Y-93361034D01*
X156629120Y-93345084D01*
X156807938Y-93335241D01*
X156988645Y-93331533D01*
X157168415Y-93333992D01*
G37*
G36*
X157021998Y-93816184D02*
G01*
X157088258Y-93816829D01*
X157152046Y-93818090D01*
X157211252Y-93819961D01*
X157263768Y-93822433D01*
X157296181Y-93824575D01*
X157327516Y-93827058D01*
X157355119Y-93829393D01*
X157377415Y-93831432D01*
X157392829Y-93833033D01*
X157399788Y-93834048D01*
X157400019Y-93834155D01*
X157401544Y-93839269D01*
X157405607Y-93853679D01*
X157412022Y-93876713D01*
X157420605Y-93907700D01*
X157431170Y-93945969D01*
X157443534Y-93990848D01*
X157457511Y-94041666D01*
X157472916Y-94097752D01*
X157489564Y-94158435D01*
X157507272Y-94223044D01*
X157525853Y-94290907D01*
X157537297Y-94332734D01*
X157673202Y-94829604D01*
X157712410Y-94838112D01*
X157779267Y-94853279D01*
X157848858Y-94870263D01*
X157917960Y-94888224D01*
X157983348Y-94906325D01*
X158041800Y-94923727D01*
X158042719Y-94924013D01*
X158142689Y-94955170D01*
X158158702Y-94940504D01*
X158164643Y-94934835D01*
X158177428Y-94922461D01*
X158196522Y-94903907D01*
X158221387Y-94879695D01*
X158251486Y-94850351D01*
X158286282Y-94816397D01*
X158325240Y-94778359D01*
X158367821Y-94736759D01*
X158413490Y-94692121D01*
X158461708Y-94644970D01*
X158511940Y-94595829D01*
X158527069Y-94581025D01*
X158577488Y-94531742D01*
X158625866Y-94484565D01*
X158671688Y-94439989D01*
X158714440Y-94398512D01*
X158753604Y-94360629D01*
X158788666Y-94326838D01*
X158819110Y-94297634D01*
X158844421Y-94273515D01*
X158864082Y-94254976D01*
X158877579Y-94242515D01*
X158884396Y-94236627D01*
X158885101Y-94236211D01*
X158893358Y-94238660D01*
X158909508Y-94245621D01*
X158932454Y-94256513D01*
X158961099Y-94270754D01*
X158994346Y-94287764D01*
X159031100Y-94306962D01*
X159070262Y-94327767D01*
X159110737Y-94349598D01*
X159151428Y-94371875D01*
X159191237Y-94394017D01*
X159229069Y-94415442D01*
X159263826Y-94435571D01*
X159283262Y-94447091D01*
X159313402Y-94465471D01*
X159345773Y-94485776D01*
X159379263Y-94507251D01*
X159412759Y-94529143D01*
X159445150Y-94550700D01*
X159475322Y-94571166D01*
X159502163Y-94589789D01*
X159524561Y-94605815D01*
X159541404Y-94618491D01*
X159551579Y-94627063D01*
X159554145Y-94630585D01*
X159552552Y-94636323D01*
X159548522Y-94651371D01*
X159542236Y-94675046D01*
X159533875Y-94706662D01*
X159523618Y-94745536D01*
X159511645Y-94790984D01*
X159498138Y-94842320D01*
X159483275Y-94898861D01*
X159467238Y-94959922D01*
X159450207Y-95024820D01*
X159432361Y-95092869D01*
X159422658Y-95129886D01*
X159293376Y-95623215D01*
X159320638Y-95649044D01*
X159333579Y-95661269D01*
X159352164Y-95678778D01*
X159374501Y-95699791D01*
X159398696Y-95722527D01*
X159416717Y-95739445D01*
X159443146Y-95764831D01*
X159473803Y-95795228D01*
X159506032Y-95827944D01*
X159537177Y-95860286D01*
X159560725Y-95885377D01*
X159583217Y-95909401D01*
X159603632Y-95930612D01*
X159620854Y-95947900D01*
X159633767Y-95960152D01*
X159641256Y-95966258D01*
X159642403Y-95966738D01*
X159648230Y-95965481D01*
X159663368Y-95961826D01*
X159687124Y-95955950D01*
X159718802Y-95948029D01*
X159757708Y-95938237D01*
X159803147Y-95926751D01*
X159854426Y-95913746D01*
X159910849Y-95899398D01*
X159971722Y-95883882D01*
X160036351Y-95867375D01*
X160104041Y-95850051D01*
X160131166Y-95843100D01*
X160200048Y-95825443D01*
X160266264Y-95808472D01*
X160329107Y-95792369D01*
X160387869Y-95777314D01*
X160441841Y-95763490D01*
X160490317Y-95751077D01*
X160532587Y-95740257D01*
X160567944Y-95731211D01*
X160595680Y-95724120D01*
X160615087Y-95719165D01*
X160625458Y-95716528D01*
X160626865Y-95716176D01*
X160631555Y-95715552D01*
X160636223Y-95716805D01*
X160641715Y-95720963D01*
X160648881Y-95729055D01*
X160658567Y-95742106D01*
X160671621Y-95761146D01*
X160688891Y-95787201D01*
X160702217Y-95807528D01*
X160799602Y-95962317D01*
X160887161Y-96114028D01*
X160964915Y-96262699D01*
X160984104Y-96302060D01*
X161024791Y-96386844D01*
X160986484Y-96426038D01*
X160977118Y-96435583D01*
X160961090Y-96451871D01*
X160938998Y-96474295D01*
X160911443Y-96502248D01*
X160879021Y-96535123D01*
X160842334Y-96572313D01*
X160801978Y-96613210D01*
X160758553Y-96657209D01*
X160712659Y-96703701D01*
X160664892Y-96752080D01*
X160624229Y-96793258D01*
X160565694Y-96852590D01*
X160514117Y-96905002D01*
X160469142Y-96950872D01*
X160430412Y-96990574D01*
X160397570Y-97024485D01*
X160370258Y-97052979D01*
X160348119Y-97076434D01*
X160330796Y-97095224D01*
X160317931Y-97109725D01*
X160309168Y-97120313D01*
X160304149Y-97127364D01*
X160302518Y-97131253D01*
X160302549Y-97131615D01*
X160304664Y-97139385D01*
X160309346Y-97155483D01*
X160316131Y-97178358D01*
X160324560Y-97206459D01*
X160334171Y-97238236D01*
X160339450Y-97255593D01*
X160351781Y-97297517D01*
X160364993Y-97344936D01*
X160378053Y-97393973D01*
X160389928Y-97440748D01*
X160399166Y-97479550D01*
X160406590Y-97511853D01*
X160413357Y-97540636D01*
X160419105Y-97564415D01*
X160423472Y-97581707D01*
X160426098Y-97591027D01*
X160426596Y-97592209D01*
X160427635Y-97592841D01*
X160430114Y-97593837D01*
X160434580Y-97595352D01*
X160441578Y-97597542D01*
X160451656Y-97600560D01*
X160465360Y-97604561D01*
X160483236Y-97609700D01*
X160505831Y-97616132D01*
X160533691Y-97624012D01*
X160567364Y-97633494D01*
X160607394Y-97644734D01*
X160654329Y-97657885D01*
X160708716Y-97673102D01*
X160771101Y-97690541D01*
X160842029Y-97710356D01*
X160922049Y-97732702D01*
X160972463Y-97746778D01*
X161033999Y-97763965D01*
X161093334Y-97780550D01*
X161149611Y-97796294D01*
X161201974Y-97810956D01*
X161249566Y-97824295D01*
X161291530Y-97836073D01*
X161327011Y-97846047D01*
X161355150Y-97853979D01*
X161375091Y-97859627D01*
X161385978Y-97862751D01*
X161386256Y-97862833D01*
X161420367Y-97872886D01*
X161427468Y-97977500D01*
X161430012Y-98024480D01*
X161431907Y-98079458D01*
X161433162Y-98140340D01*
X161433784Y-98205035D01*
X161433779Y-98271449D01*
X161433157Y-98337492D01*
X161431924Y-98401069D01*
X161430087Y-98460088D01*
X161427654Y-98512458D01*
X161425438Y-98546181D01*
X161422951Y-98577517D01*
X161420613Y-98605122D01*
X161418570Y-98627421D01*
X161416968Y-98642840D01*
X161415952Y-98649803D01*
X161415845Y-98650035D01*
X161410731Y-98651563D01*
X161396321Y-98655629D01*
X161373287Y-98662047D01*
X161342301Y-98670634D01*
X161304033Y-98681205D01*
X161259154Y-98693573D01*
X161208337Y-98707555D01*
X161152251Y-98722966D01*
X161091569Y-98739620D01*
X161026960Y-98757333D01*
X160959098Y-98775920D01*
X160917252Y-98787372D01*
X160420370Y-98923322D01*
X160411874Y-98962469D01*
X160395863Y-99033135D01*
X160378465Y-99104329D01*
X160360399Y-99173304D01*
X160342382Y-99237310D01*
X160326564Y-99289143D01*
X160317053Y-99319169D01*
X160308734Y-99345958D01*
X160302091Y-99367907D01*
X160297608Y-99383414D01*
X160295769Y-99390875D01*
X160295749Y-99391140D01*
X160299291Y-99395539D01*
X160309589Y-99406798D01*
X160326156Y-99424412D01*
X160348504Y-99447874D01*
X160376145Y-99476680D01*
X160408591Y-99510324D01*
X160445353Y-99548300D01*
X160485945Y-99590103D01*
X160529877Y-99635228D01*
X160576661Y-99683169D01*
X160625810Y-99733420D01*
X160653478Y-99761659D01*
X160703747Y-99812988D01*
X160751946Y-99862297D01*
X160797584Y-99909081D01*
X160840171Y-99952832D01*
X160879215Y-99993042D01*
X160914226Y-100029205D01*
X160944713Y-100060812D01*
X160970186Y-100087357D01*
X160990153Y-100108331D01*
X161004123Y-100123229D01*
X161011607Y-100131541D01*
X161012779Y-100133115D01*
X161011121Y-100140814D01*
X161004883Y-100156444D01*
X160994607Y-100178967D01*
X160980839Y-100207344D01*
X160964123Y-100240537D01*
X160945004Y-100277507D01*
X160924025Y-100317216D01*
X160901731Y-100358623D01*
X160878667Y-100400692D01*
X160855377Y-100442383D01*
X160832406Y-100482657D01*
X160810297Y-100520476D01*
X160805763Y-100528096D01*
X160794174Y-100547109D01*
X160779175Y-100571119D01*
X160761608Y-100598835D01*
X160742313Y-100628968D01*
X160722131Y-100660230D01*
X160701903Y-100691330D01*
X160682469Y-100720978D01*
X160664670Y-100747887D01*
X160649347Y-100770765D01*
X160637340Y-100788324D01*
X160629491Y-100799275D01*
X160627037Y-100802219D01*
X160621578Y-100801482D01*
X160607037Y-100798317D01*
X160584320Y-100792949D01*
X160554329Y-100785603D01*
X160517970Y-100776505D01*
X160476144Y-100765880D01*
X160429757Y-100753955D01*
X160379713Y-100740954D01*
X160342241Y-100731138D01*
X160285889Y-100716329D01*
X160229166Y-100701427D01*
X160173485Y-100686804D01*
X160120256Y-100672830D01*
X160070891Y-100659875D01*
X160026803Y-100648310D01*
X159989403Y-100638506D01*
X159960102Y-100630833D01*
X159952227Y-100628773D01*
X159919954Y-100620326D01*
X159883635Y-100610806D01*
X159844845Y-100600628D01*
X159805156Y-100590203D01*
X159766140Y-100579948D01*
X159729371Y-100570273D01*
X159696421Y-100561594D01*
X159668863Y-100554324D01*
X159648270Y-100548877D01*
X159636781Y-100545818D01*
X159632014Y-100546163D01*
X159625168Y-100549888D01*
X159615371Y-100557791D01*
X159601751Y-100570672D01*
X159583436Y-100589330D01*
X159559556Y-100614563D01*
X159546403Y-100628662D01*
X159514239Y-100662602D01*
X159487355Y-100689605D01*
X159466093Y-100709346D01*
X159450790Y-100721504D01*
X159445666Y-100724548D01*
X159416853Y-100733326D01*
X159387443Y-100733268D01*
X159359429Y-100725233D01*
X159334806Y-100710082D01*
X159315567Y-100688674D01*
X159304152Y-100663537D01*
X159299957Y-100643433D01*
X159299549Y-100624628D01*
X159303556Y-100605858D01*
X159312604Y-100585858D01*
X159327320Y-100563365D01*
X159348332Y-100537114D01*
X159376265Y-100505841D01*
X159389240Y-100491936D01*
X159415259Y-100463959D01*
X159443553Y-100432971D01*
X159471439Y-100401948D01*
X159496232Y-100373863D01*
X159506931Y-100361501D01*
X159525090Y-100340614D01*
X159541024Y-100322831D01*
X159553487Y-100309503D01*
X159561232Y-100301979D01*
X159563035Y-100300803D01*
X159568504Y-100302085D01*
X159583278Y-100305811D01*
X159606668Y-100311803D01*
X159637988Y-100319882D01*
X159676549Y-100329870D01*
X159721662Y-100341586D01*
X159772641Y-100354854D01*
X159828796Y-100369493D01*
X159889440Y-100385325D01*
X159953886Y-100402172D01*
X160021444Y-100419854D01*
X160050114Y-100427364D01*
X160118821Y-100445349D01*
X160184746Y-100462572D01*
X160247195Y-100478853D01*
X160305477Y-100494013D01*
X160358898Y-100507873D01*
X160406765Y-100520254D01*
X160448385Y-100530977D01*
X160483067Y-100539864D01*
X160510116Y-100546734D01*
X160528841Y-100551409D01*
X160538549Y-100553710D01*
X160539759Y-100553925D01*
X160547715Y-100550009D01*
X160552168Y-100544885D01*
X160576118Y-100506958D01*
X160600830Y-100466944D01*
X160625735Y-100425842D01*
X160650264Y-100384649D01*
X160673849Y-100344365D01*
X160695919Y-100305986D01*
X160715907Y-100270512D01*
X160733242Y-100238940D01*
X160747356Y-100212269D01*
X160757680Y-100191497D01*
X160763645Y-100177622D01*
X160764824Y-100171877D01*
X160761061Y-100167682D01*
X160750563Y-100156626D01*
X160733830Y-100139223D01*
X160711363Y-100115985D01*
X160683661Y-100087429D01*
X160651225Y-100054067D01*
X160614554Y-100016414D01*
X160574149Y-99974985D01*
X160530509Y-99930292D01*
X160484134Y-99882850D01*
X160435525Y-99833174D01*
X160419727Y-99817041D01*
X160370321Y-99766577D01*
X160322848Y-99718060D01*
X160277825Y-99672019D01*
X160235766Y-99628981D01*
X160197185Y-99589474D01*
X160162599Y-99554025D01*
X160132520Y-99523163D01*
X160107465Y-99497414D01*
X160087948Y-99477307D01*
X160074484Y-99463370D01*
X160067587Y-99456130D01*
X160066888Y-99455357D01*
X160064270Y-99451871D01*
X160062677Y-99447758D01*
X160062390Y-99441869D01*
X160063692Y-99433055D01*
X160066865Y-99420168D01*
X160072191Y-99402058D01*
X160079953Y-99377576D01*
X160090431Y-99345575D01*
X160103651Y-99305684D01*
X160116300Y-99267281D01*
X160128437Y-99229857D01*
X160139501Y-99195181D01*
X160148932Y-99165023D01*
X160156172Y-99141154D01*
X160160594Y-99125595D01*
X160167576Y-99097762D01*
X160176007Y-99062141D01*
X160185372Y-99021085D01*
X160195158Y-98976949D01*
X160204851Y-98932088D01*
X160213937Y-98888855D01*
X160221901Y-98849606D01*
X160228230Y-98816694D01*
X160229238Y-98811172D01*
X160234088Y-98786293D01*
X160238849Y-98765388D01*
X160243026Y-98750412D01*
X160246122Y-98743319D01*
X160246534Y-98743028D01*
X160252175Y-98741457D01*
X160267091Y-98737359D01*
X160290587Y-98730924D01*
X160321971Y-98722340D01*
X160360549Y-98711797D01*
X160405627Y-98699485D01*
X160456511Y-98685593D01*
X160512510Y-98670310D01*
X160572927Y-98653826D01*
X160637072Y-98636330D01*
X160704248Y-98618012D01*
X160727090Y-98611784D01*
X160795274Y-98593178D01*
X160860759Y-98575276D01*
X160922839Y-98558271D01*
X160980811Y-98542358D01*
X161033970Y-98527733D01*
X161081610Y-98514589D01*
X161123026Y-98503122D01*
X161157515Y-98493525D01*
X161184371Y-98485993D01*
X161202889Y-98480721D01*
X161212365Y-98477903D01*
X161213365Y-98477555D01*
X161216696Y-98475811D01*
X161219318Y-98472929D01*
X161221356Y-98467706D01*
X161222932Y-98458940D01*
X161224171Y-98445428D01*
X161225195Y-98425969D01*
X161226128Y-98399360D01*
X161227092Y-98364398D01*
X161227788Y-98336909D01*
X161228588Y-98294427D01*
X161228969Y-98249875D01*
X161228941Y-98205987D01*
X161228512Y-98165495D01*
X161227690Y-98131131D01*
X161227092Y-98116207D01*
X161223002Y-98031490D01*
X160734901Y-97895004D01*
X160666097Y-97875754D01*
X160600149Y-97857280D01*
X160537733Y-97839775D01*
X160479524Y-97823428D01*
X160426199Y-97808430D01*
X160378431Y-97794971D01*
X160336898Y-97783241D01*
X160302273Y-97773431D01*
X160275233Y-97765732D01*
X160256453Y-97760333D01*
X160246609Y-97757426D01*
X160245247Y-97756965D01*
X160243820Y-97751618D01*
X160240895Y-97737874D01*
X160236827Y-97717497D01*
X160231973Y-97692255D01*
X160228918Y-97675972D01*
X160219031Y-97623873D01*
X160209584Y-97576732D01*
X160200148Y-97532939D01*
X160190292Y-97490882D01*
X160179585Y-97448950D01*
X160167598Y-97405531D01*
X160153901Y-97359015D01*
X160138062Y-97307789D01*
X160119652Y-97250244D01*
X160098241Y-97184768D01*
X160095573Y-97176676D01*
X160055902Y-97056432D01*
X160177212Y-96933885D01*
X160203381Y-96907460D01*
X160235730Y-96874808D01*
X160273163Y-96837038D01*
X160314583Y-96795254D01*
X160358893Y-96750565D01*
X160404994Y-96704076D01*
X160451791Y-96656894D01*
X160498185Y-96610126D01*
X160534850Y-96573173D01*
X160771177Y-96335008D01*
X160746969Y-96289057D01*
X160726840Y-96251394D01*
X160705298Y-96212059D01*
X160682952Y-96172077D01*
X160660412Y-96132477D01*
X160638286Y-96094285D01*
X160617183Y-96058527D01*
X160597712Y-96026231D01*
X160580481Y-95998424D01*
X160566099Y-95976132D01*
X160555175Y-95960382D01*
X160548319Y-95952201D01*
X160546703Y-95951263D01*
X160541128Y-95952515D01*
X160526236Y-95956162D01*
X160502717Y-95962028D01*
X160471262Y-95969938D01*
X160432560Y-95979717D01*
X160387301Y-95991191D01*
X160336176Y-96004183D01*
X160279875Y-96018520D01*
X160219087Y-96034026D01*
X160154503Y-96050525D01*
X160086812Y-96067844D01*
X160058018Y-96075219D01*
X159989183Y-96092832D01*
X159923123Y-96109693D01*
X159860534Y-96125627D01*
X159802109Y-96140459D01*
X159748545Y-96154014D01*
X159700534Y-96166117D01*
X159658773Y-96176593D01*
X159623955Y-96185267D01*
X159596775Y-96191965D01*
X159577929Y-96196510D01*
X159568110Y-96198729D01*
X159566856Y-96198926D01*
X159560349Y-96195027D01*
X159549616Y-96184939D01*
X159536734Y-96170660D01*
X159533801Y-96167135D01*
X159458964Y-96079973D01*
X159375738Y-95990708D01*
X159285471Y-95900690D01*
X159189512Y-95811269D01*
X159101169Y-95733923D01*
X159082222Y-95717528D01*
X159066529Y-95703405D01*
X159055585Y-95692937D01*
X159050879Y-95687506D01*
X159050803Y-95687228D01*
X159052085Y-95681785D01*
X159055811Y-95667038D01*
X159061802Y-95643672D01*
X159069880Y-95612377D01*
X159079866Y-95573838D01*
X159091581Y-95528746D01*
X159104847Y-95477786D01*
X159119485Y-95421646D01*
X159135315Y-95361014D01*
X159152160Y-95296579D01*
X159169841Y-95229026D01*
X159177364Y-95200306D01*
X159195352Y-95131580D01*
X159212576Y-95065624D01*
X159228858Y-95003132D01*
X159244020Y-94944798D01*
X159257881Y-94891316D01*
X159270263Y-94843381D01*
X159280986Y-94801686D01*
X159289871Y-94766926D01*
X159296740Y-94739794D01*
X159301413Y-94720984D01*
X159303711Y-94711191D01*
X159303925Y-94709948D01*
X159299565Y-94704544D01*
X159287167Y-94694793D01*
X159267749Y-94681317D01*
X159242333Y-94664734D01*
X159211938Y-94645666D01*
X159177586Y-94624733D01*
X159140296Y-94602554D01*
X159101089Y-94579751D01*
X159060984Y-94556943D01*
X159021003Y-94534750D01*
X158982165Y-94513793D01*
X158975095Y-94510053D01*
X158922632Y-94482391D01*
X158560850Y-94837133D01*
X158509828Y-94887135D01*
X158460895Y-94935038D01*
X158414553Y-94980354D01*
X158371305Y-95022592D01*
X158331654Y-95061264D01*
X158296103Y-95095878D01*
X158265155Y-95125947D01*
X158239313Y-95150981D01*
X158219081Y-95170489D01*
X158204960Y-95183983D01*
X158197455Y-95190972D01*
X158196340Y-95191875D01*
X158190933Y-95190310D01*
X158176955Y-95185883D01*
X158155639Y-95178995D01*
X158128216Y-95170046D01*
X158095919Y-95159437D01*
X158059979Y-95147570D01*
X158047518Y-95143442D01*
X158008755Y-95130692D01*
X157971510Y-95118629D01*
X157937379Y-95107755D01*
X157907960Y-95098573D01*
X157884849Y-95091587D01*
X157869643Y-95087299D01*
X157867846Y-95086847D01*
X157835295Y-95079132D01*
X157796661Y-95070293D01*
X157754188Y-95060814D01*
X157710120Y-95051181D01*
X157666704Y-95041878D01*
X157626183Y-95033391D01*
X157590803Y-95026204D01*
X157562808Y-95020802D01*
X157558501Y-95020017D01*
X157494529Y-95008491D01*
X157360901Y-94520575D01*
X157342001Y-94451672D01*
X157323821Y-94385593D01*
X157306551Y-94323020D01*
X157290380Y-94264633D01*
X157275500Y-94211113D01*
X157262102Y-94163143D01*
X157250375Y-94121403D01*
X157240511Y-94086574D01*
X157232699Y-94059339D01*
X157227131Y-94040377D01*
X157223996Y-94030370D01*
X157223408Y-94028944D01*
X157216981Y-94027538D01*
X157201637Y-94026215D01*
X157178790Y-94024997D01*
X157149856Y-94023909D01*
X157116247Y-94022974D01*
X157079379Y-94022214D01*
X157040666Y-94021653D01*
X157001522Y-94021314D01*
X156963362Y-94021220D01*
X156927599Y-94021395D01*
X156895650Y-94021862D01*
X156868927Y-94022643D01*
X156861038Y-94022997D01*
X156781482Y-94026998D01*
X156645080Y-94515018D01*
X156625838Y-94583821D01*
X156607371Y-94649769D01*
X156589870Y-94712186D01*
X156573525Y-94770397D01*
X156558527Y-94823725D01*
X156545066Y-94871496D01*
X156533334Y-94913033D01*
X156523519Y-94947661D01*
X156515813Y-94974704D01*
X156510407Y-94993486D01*
X156507490Y-95003332D01*
X156507024Y-95004694D01*
X156501617Y-95006175D01*
X156487945Y-95009085D01*
X156467916Y-95013037D01*
X156443435Y-95017649D01*
X156436282Y-95018962D01*
X156408927Y-95024172D01*
X156374488Y-95031057D01*
X156335955Y-95039002D01*
X156296320Y-95047390D01*
X156258715Y-95055573D01*
X156217622Y-95064452D01*
X156185075Y-95070743D01*
X156159595Y-95074360D01*
X156139703Y-95075217D01*
X156123921Y-95073228D01*
X156110770Y-95068308D01*
X156098773Y-95060370D01*
X156086449Y-95049330D01*
X156082399Y-95045331D01*
X156062240Y-95018808D01*
X156052057Y-94989925D01*
X156051954Y-94959370D01*
X156062038Y-94927833D01*
X156063925Y-94924038D01*
X156071315Y-94911592D01*
X156080243Y-94901155D01*
X156091979Y-94892160D01*
X156107794Y-94884039D01*
X156128960Y-94876225D01*
X156156747Y-94868152D01*
X156192427Y-94859252D01*
X156226968Y-94851277D01*
X156259695Y-94843786D01*
X156288943Y-94836917D01*
X156313237Y-94831032D01*
X156331104Y-94826490D01*
X156341069Y-94823651D01*
X156342615Y-94822998D01*
X156344371Y-94817734D01*
X156348704Y-94803209D01*
X156355416Y-94780114D01*
X156364311Y-94749143D01*
X156375194Y-94710985D01*
X156387868Y-94666333D01*
X156402137Y-94615879D01*
X156417805Y-94560314D01*
X156434675Y-94500329D01*
X156452551Y-94436618D01*
X156471237Y-94369871D01*
X156476429Y-94351301D01*
X156495455Y-94283234D01*
X156513812Y-94217578D01*
X156531294Y-94155073D01*
X156547694Y-94096455D01*
X156562805Y-94042464D01*
X156576420Y-93993838D01*
X156588332Y-93951315D01*
X156598335Y-93915635D01*
X156606222Y-93887535D01*
X156611787Y-93867754D01*
X156614821Y-93857030D01*
X156615117Y-93855999D01*
X156622745Y-93829642D01*
X156727429Y-93822488D01*
X156774415Y-93819931D01*
X156829474Y-93818030D01*
X156890497Y-93816777D01*
X156955375Y-93816165D01*
X157021998Y-93816184D01*
G37*
D12*
%TO.C,D9*%
X150045000Y-99390000D02*
X150045000Y-102250000D01*
X151965000Y-99390000D02*
X150045000Y-99390000D01*
X151965000Y-102250000D02*
X151965000Y-99390000D01*
%TO.C,J11*%
X162970000Y-98530000D02*
X162970000Y-99780000D01*
X163270000Y-98830000D02*
X163270000Y-103550000D01*
X163270000Y-100140000D02*
X163880000Y-100140000D01*
X163270000Y-101440000D02*
X163880000Y-101440000D01*
X163270000Y-103550000D02*
X169390000Y-103550000D01*
X163880000Y-99440000D02*
X163880000Y-102940000D01*
X163880000Y-102940000D02*
X168780000Y-102940000D01*
X164220000Y-98530000D02*
X162970000Y-98530000D01*
X164730000Y-98630000D02*
X164730000Y-98830000D01*
X165030000Y-98630000D02*
X164730000Y-98630000D01*
X165030000Y-98730000D02*
X164730000Y-98730000D01*
X165030000Y-98830000D02*
X165030000Y-98630000D01*
X165830000Y-98830000D02*
X165830000Y-99440000D01*
X165830000Y-99440000D02*
X163880000Y-99440000D01*
X166230000Y-102440000D02*
X166430000Y-102440000D01*
X166230000Y-102940000D02*
X166230000Y-102440000D01*
X166330000Y-102940000D02*
X166330000Y-102440000D01*
X166430000Y-102440000D02*
X166430000Y-102940000D01*
X166830000Y-99440000D02*
X166830000Y-98830000D01*
X168780000Y-99440000D02*
X166830000Y-99440000D01*
X168780000Y-102940000D02*
X168780000Y-99440000D01*
X169390000Y-98830000D02*
X163270000Y-98830000D01*
X169390000Y-100140000D02*
X168780000Y-100140000D01*
X169390000Y-101440000D02*
X168780000Y-101440000D01*
X169390000Y-103550000D02*
X169390000Y-98830000D01*
%TO.C,J16*%
X161670000Y-84390000D02*
X161670000Y-87050000D01*
X166810000Y-84390000D02*
X161670000Y-84390000D01*
X166810000Y-84390000D02*
X166810000Y-87050000D01*
X166810000Y-87050000D02*
X161670000Y-87050000D01*
X169410000Y-85720000D02*
X169410000Y-87050000D01*
X169410000Y-87050000D02*
X168080000Y-87050000D01*
%TO.C,U4*%
X134200000Y-100490000D02*
X132250000Y-100490000D01*
X134200000Y-100490000D02*
X136150000Y-100490000D01*
X134200000Y-105610000D02*
X132250000Y-105610000D01*
X134200000Y-105610000D02*
X136150000Y-105610000D01*
X137140000Y-105845000D02*
X136660000Y-105845000D01*
X136900000Y-105515000D01*
X137140000Y-105845000D01*
G36*
X137140000Y-105845000D02*
G01*
X136660000Y-105845000D01*
X136900000Y-105515000D01*
X137140000Y-105845000D01*
G37*
%TO.C,U2*%
X142185000Y-72475000D02*
X160585000Y-72475000D01*
X142185000Y-90950000D02*
X142185000Y-91950000D01*
X142185000Y-91950000D02*
X143685000Y-91950000D01*
X160585000Y-91950000D02*
X159085000Y-91950000D01*
X160585000Y-91950000D02*
X160585000Y-90950000D01*
X142185000Y-72975000D02*
X141685000Y-72975000D01*
X142185000Y-72475000D01*
X142185000Y-72975000D01*
G36*
X142185000Y-72975000D02*
G01*
X141685000Y-72975000D01*
X142185000Y-72475000D01*
X142185000Y-72975000D01*
G37*
%TO.C,J14*%
X161670000Y-79310000D02*
X161670000Y-81970000D01*
X166810000Y-79310000D02*
X161670000Y-79310000D01*
X166810000Y-79310000D02*
X166810000Y-81970000D01*
X166810000Y-81970000D02*
X161670000Y-81970000D01*
X169410000Y-80640000D02*
X169410000Y-81970000D01*
X169410000Y-81970000D02*
X168080000Y-81970000D01*
%TO.C,L1*%
X138550000Y-98400000D02*
X139450000Y-98400000D01*
X138550000Y-104600000D02*
X138550000Y-98400000D01*
X139450000Y-104600000D02*
X138550000Y-104600000D01*
X143950000Y-98400000D02*
X143050000Y-98400000D01*
X143950000Y-104600000D02*
X143050000Y-104600000D01*
X143950000Y-104600000D02*
X143950000Y-98400000D01*
%TO.C,J15*%
X161670000Y-81850000D02*
X161670000Y-84510000D01*
X166810000Y-81850000D02*
X161670000Y-81850000D01*
X166810000Y-81850000D02*
X166810000Y-84510000D01*
X166810000Y-84510000D02*
X161670000Y-84510000D01*
X169410000Y-83180000D02*
X169410000Y-84510000D01*
X169410000Y-84510000D02*
X168080000Y-84510000D01*
%TO.C,J12*%
X162970000Y-93030000D02*
X162970000Y-94280000D01*
X163270000Y-93330000D02*
X163270000Y-98050000D01*
X163270000Y-94640000D02*
X163880000Y-94640000D01*
X163270000Y-95940000D02*
X163880000Y-95940000D01*
X163270000Y-98050000D02*
X169390000Y-98050000D01*
X163880000Y-93940000D02*
X163880000Y-97440000D01*
X163880000Y-97440000D02*
X168780000Y-97440000D01*
X164220000Y-93030000D02*
X162970000Y-93030000D01*
X164730000Y-93130000D02*
X164730000Y-93330000D01*
X165030000Y-93130000D02*
X164730000Y-93130000D01*
X165030000Y-93230000D02*
X164730000Y-93230000D01*
X165030000Y-93330000D02*
X165030000Y-93130000D01*
X165830000Y-93330000D02*
X165830000Y-93940000D01*
X165830000Y-93940000D02*
X163880000Y-93940000D01*
X166230000Y-96940000D02*
X166430000Y-96940000D01*
X166230000Y-97440000D02*
X166230000Y-96940000D01*
X166330000Y-97440000D02*
X166330000Y-96940000D01*
X166430000Y-96940000D02*
X166430000Y-97440000D01*
X166830000Y-93940000D02*
X166830000Y-93330000D01*
X168780000Y-93940000D02*
X166830000Y-93940000D01*
X168780000Y-97440000D02*
X168780000Y-93940000D01*
X169390000Y-93330000D02*
X163270000Y-93330000D01*
X169390000Y-94640000D02*
X168780000Y-94640000D01*
X169390000Y-95940000D02*
X168780000Y-95940000D01*
X169390000Y-98050000D02*
X169390000Y-93330000D01*
%TO.C,SW1*%
X163358000Y-72418000D02*
X163358000Y-72918000D01*
X163358000Y-75418000D02*
X163358000Y-75918000D01*
X163358000Y-75918000D02*
X167858000Y-75918000D01*
X167858000Y-72418000D02*
X163358000Y-72418000D01*
X167858000Y-72918000D02*
X167858000Y-72418000D01*
X167858000Y-75918000D02*
X167858000Y-75418000D01*
%TO.C,J5*%
X160890000Y-104090000D02*
X160890000Y-105340000D01*
X161190000Y-104390000D02*
X161190000Y-109110000D01*
X161190000Y-105700000D02*
X161800000Y-105700000D01*
X161190000Y-107000000D02*
X161800000Y-107000000D01*
X161190000Y-109110000D02*
X169310000Y-109110000D01*
X161800000Y-105000000D02*
X161800000Y-108500000D01*
X161800000Y-108500000D02*
X168700000Y-108500000D01*
X162140000Y-104090000D02*
X160890000Y-104090000D01*
X162650000Y-104190000D02*
X162650000Y-104390000D01*
X162950000Y-104190000D02*
X162650000Y-104190000D01*
X162950000Y-104290000D02*
X162650000Y-104290000D01*
X162950000Y-104390000D02*
X162950000Y-104190000D01*
X163750000Y-104390000D02*
X163750000Y-105000000D01*
X163750000Y-105000000D02*
X161800000Y-105000000D01*
X164150000Y-108000000D02*
X164350000Y-108000000D01*
X164150000Y-108500000D02*
X164150000Y-108000000D01*
X164250000Y-108500000D02*
X164250000Y-108000000D01*
X164350000Y-108000000D02*
X164350000Y-108500000D01*
X166150000Y-108000000D02*
X166350000Y-108000000D01*
X166150000Y-108500000D02*
X166150000Y-108000000D01*
X166250000Y-108500000D02*
X166250000Y-108000000D01*
X166350000Y-108000000D02*
X166350000Y-108500000D01*
X166750000Y-105000000D02*
X166750000Y-104390000D01*
X168700000Y-105000000D02*
X166750000Y-105000000D01*
X168700000Y-108500000D02*
X168700000Y-105000000D01*
X169310000Y-104390000D02*
X161190000Y-104390000D01*
X169310000Y-105700000D02*
X168700000Y-105700000D01*
X169310000Y-107000000D02*
X168700000Y-107000000D01*
X169310000Y-109110000D02*
X169310000Y-104390000D01*
%TO.C,JP2*%
X128250000Y-87000000D02*
X133750000Y-87000000D01*
X128250000Y-88950000D02*
X128250000Y-87000000D01*
X133750000Y-87000000D02*
X133750000Y-88950000D01*
X133750000Y-88950000D02*
X128250000Y-88950000D01*
%TO.C,D4*%
X127290000Y-104890000D02*
X127290000Y-107750000D01*
X129210000Y-104890000D02*
X127290000Y-104890000D01*
X129210000Y-107750000D02*
X129210000Y-104890000D01*
%TO.C,J1*%
X127500000Y-90300000D02*
X127500000Y-99700000D01*
X129400000Y-90300000D02*
X127500000Y-90300000D01*
X129400000Y-99700000D02*
X127500000Y-99700000D01*
X133300000Y-90300000D02*
X131300000Y-90300000D01*
X133300000Y-99700000D02*
X131300000Y-99700000D01*
%TO.C,SW2*%
X134750000Y-72500000D02*
X134750000Y-73000000D01*
X134750000Y-75500000D02*
X134750000Y-76000000D01*
X134750000Y-76000000D02*
X139250000Y-76000000D01*
X139250000Y-72500000D02*
X134750000Y-72500000D01*
X139250000Y-73000000D02*
X139250000Y-72500000D01*
X139250000Y-76000000D02*
X139250000Y-75500000D01*
D13*
%TO.C,U7*%
X136300000Y-80350000D02*
X140700000Y-80350000D01*
X136300000Y-80750000D02*
X136300000Y-80350000D01*
X136300000Y-88750000D02*
X136300000Y-80750000D01*
X136300000Y-89150000D02*
X136300000Y-88750000D01*
X140700000Y-80350000D02*
X140700000Y-89150000D01*
X140700000Y-89150000D02*
X136300000Y-89150000D01*
D12*
%TO.C,U6*%
X145637500Y-105990000D02*
X144837500Y-105990000D01*
X145637500Y-105990000D02*
X146437500Y-105990000D01*
X145637500Y-109110000D02*
X144837500Y-109110000D01*
X145637500Y-109110000D02*
X146437500Y-109110000D01*
X144337500Y-106040000D02*
X144097500Y-105710000D01*
X144577500Y-105710000D01*
X144337500Y-106040000D01*
G36*
X144337500Y-106040000D02*
G01*
X144097500Y-105710000D01*
X144577500Y-105710000D01*
X144337500Y-106040000D01*
G37*
%TO.C,J2*%
X143640000Y-109590000D02*
X143640000Y-110840000D01*
X143940000Y-109890000D02*
X143940000Y-114610000D01*
X143940000Y-111200000D02*
X144550000Y-111200000D01*
X143940000Y-112500000D02*
X144550000Y-112500000D01*
X143940000Y-114610000D02*
X164060000Y-114610000D01*
X144550000Y-110500000D02*
X144550000Y-114000000D01*
X144550000Y-114000000D02*
X163450000Y-114000000D01*
X144890000Y-109590000D02*
X143640000Y-109590000D01*
X145400000Y-109690000D02*
X145400000Y-109890000D01*
X145700000Y-109690000D02*
X145400000Y-109690000D01*
X145700000Y-109790000D02*
X145400000Y-109790000D01*
X145700000Y-109890000D02*
X145700000Y-109690000D01*
X146500000Y-109890000D02*
X146500000Y-110500000D01*
X146500000Y-110500000D02*
X144550000Y-110500000D01*
X146900000Y-113500000D02*
X147100000Y-113500000D01*
X146900000Y-114000000D02*
X146900000Y-113500000D01*
X147000000Y-114000000D02*
X147000000Y-113500000D01*
X147100000Y-113500000D02*
X147100000Y-114000000D01*
X148900000Y-113500000D02*
X149100000Y-113500000D01*
X148900000Y-114000000D02*
X148900000Y-113500000D01*
X149000000Y-114000000D02*
X149000000Y-113500000D01*
X149100000Y-113500000D02*
X149100000Y-114000000D01*
X150900000Y-113500000D02*
X151100000Y-113500000D01*
X150900000Y-114000000D02*
X150900000Y-113500000D01*
X151000000Y-114000000D02*
X151000000Y-113500000D01*
X151100000Y-113500000D02*
X151100000Y-114000000D01*
X152900000Y-113500000D02*
X153100000Y-113500000D01*
X152900000Y-114000000D02*
X152900000Y-113500000D01*
X153000000Y-114000000D02*
X153000000Y-113500000D01*
X153100000Y-113500000D02*
X153100000Y-114000000D01*
X154900000Y-113500000D02*
X155100000Y-113500000D01*
X154900000Y-114000000D02*
X154900000Y-113500000D01*
X155000000Y-114000000D02*
X155000000Y-113500000D01*
X155100000Y-113500000D02*
X155100000Y-114000000D01*
X156900000Y-113500000D02*
X157100000Y-113500000D01*
X156900000Y-114000000D02*
X156900000Y-113500000D01*
X157000000Y-114000000D02*
X157000000Y-113500000D01*
X157100000Y-113500000D02*
X157100000Y-114000000D01*
X158900000Y-113500000D02*
X159100000Y-113500000D01*
X158900000Y-114000000D02*
X158900000Y-113500000D01*
X159000000Y-114000000D02*
X159000000Y-113500000D01*
X159100000Y-113500000D02*
X159100000Y-114000000D01*
X160900000Y-113500000D02*
X161100000Y-113500000D01*
X160900000Y-114000000D02*
X160900000Y-113500000D01*
X161000000Y-114000000D02*
X161000000Y-113500000D01*
X161100000Y-113500000D02*
X161100000Y-114000000D01*
X161500000Y-110500000D02*
X161500000Y-109890000D01*
X163450000Y-110500000D02*
X161500000Y-110500000D01*
X163450000Y-114000000D02*
X163450000Y-110500000D01*
X164060000Y-109890000D02*
X143940000Y-109890000D01*
X164060000Y-111200000D02*
X163450000Y-111200000D01*
X164060000Y-112500000D02*
X163450000Y-112500000D01*
X164060000Y-114610000D02*
X164060000Y-109890000D01*
%TO.C,D3*%
X127290000Y-101500000D02*
X127290000Y-104360000D01*
X127290000Y-104360000D02*
X129210000Y-104360000D01*
X129210000Y-104360000D02*
X129210000Y-101500000D01*
%TO.C,D2*%
X137000000Y-78960000D02*
X139860000Y-78960000D01*
X139860000Y-77040000D02*
X137000000Y-77040000D01*
X139860000Y-78960000D02*
X139860000Y-77040000D01*
%TD*%
M02*
